<svg width="111" height="86" viewBox="0 0 111 86" fill="none" xmlns="http://www.w3.org/2000/svg">
<g clip-path="url(#clip0_238_4344)">
<path d="M20.1182 85.8115V80.104C20.1182 77.9208 18.7851 76.4911 16.4967 76.4911C15.3525 76.4911 14.1083 76.8679 13.2529 78.1092C12.5864 77.0674 11.631 76.4911 10.198 76.4911C9.2426 76.4911 8.28723 76.7793 7.53183 77.821V76.6795H5.53223V85.8115H7.53183V80.769C7.53183 79.1509 8.38721 78.3862 9.72028 78.3862C11.0533 78.3862 11.7199 79.2396 11.7199 80.769V85.8115H13.7195V80.769C13.7195 79.1509 14.6748 78.3862 15.9079 78.3862C17.241 78.3862 17.9075 79.2396 17.9075 80.769V85.8115H20.1182ZM49.7789 76.6795H46.5351V73.92H44.5355V76.6795H42.7248V78.486H44.5355V82.6752C44.5355 84.7697 45.3909 85.9999 47.6793 85.9999C48.5347 85.9999 49.4901 85.7118 50.1566 85.335L49.579 83.6172C49.0013 83.994 48.3348 84.0937 47.8571 84.0937C46.9017 84.0937 46.524 83.5174 46.524 82.5754V78.486H49.7678V76.6795H49.7789ZM66.7533 76.4801C65.6091 76.4801 64.8426 77.0563 64.3649 77.8099V76.6685H62.3653V85.8004H64.3649V80.6581C64.3649 79.1398 65.0314 78.2754 66.2756 78.2754C66.6533 78.2754 67.131 78.3752 67.5198 78.4638L68.0975 76.5576C67.6976 76.4801 67.131 76.4801 66.7533 76.4801ZM41.1029 77.4331C40.1475 76.7682 38.8145 76.4801 37.3814 76.4801C35.093 76.4801 33.5711 77.6216 33.5711 79.428C33.5711 80.9463 34.7153 81.8107 36.7149 82.0878L37.6702 82.1875C38.7145 82.3759 39.2921 82.6641 39.2921 83.1406C39.2921 83.8056 38.5256 84.2821 37.1926 84.2821C35.8595 84.2821 34.8041 83.8056 34.1376 83.329L33.1822 84.8473C34.2265 85.612 35.6595 85.9888 37.0926 85.9888C39.7587 85.9888 41.2917 84.7476 41.2917 83.0409C41.2917 81.4228 40.0475 80.5695 38.1479 80.2813L37.1926 80.1816C36.3372 80.0819 35.6706 79.8935 35.6706 79.3282C35.6706 78.6633 36.3372 78.2865 37.3925 78.2865C38.5367 78.2865 39.6809 78.763 40.2586 79.0512L41.1029 77.4331ZM94.3033 76.4801C93.1591 76.4801 92.3926 77.0563 91.9149 77.8099V76.6685H89.9153V85.8004H91.9149V80.6581C91.9149 79.1398 92.5815 78.2754 93.8257 78.2754C94.2034 78.2754 94.681 78.3752 95.0699 78.4638L95.6475 76.5798C95.2587 76.4801 94.6922 76.4801 94.3033 76.4801ZM68.7529 81.2455C68.7529 84.0051 70.6636 85.9999 73.6186 85.9999C74.9517 85.9999 75.907 85.7118 76.8624 84.9581L75.907 83.3401C75.1405 83.9164 74.3851 84.1935 73.5186 84.1935C71.8967 84.1935 70.7525 83.052 70.7525 81.2455C70.7525 79.5277 71.8967 78.3862 73.5186 78.2976C74.374 78.2976 75.1405 78.5857 75.907 79.1509L76.8624 77.5329C75.907 76.7682 74.9517 76.4911 73.6186 76.4911C70.6636 76.4801 68.7529 78.486 68.7529 81.2455ZM87.2492 81.2455V76.6795H85.2496V77.821C84.5831 76.9677 83.6277 76.4911 82.3835 76.4911C79.8062 76.4911 77.8066 78.486 77.8066 81.2455C77.8066 84.0051 79.8062 85.9999 82.3835 85.9999C83.7166 85.9999 84.6719 85.5234 85.2496 84.67V85.8115H87.2492V81.2455ZM79.9062 81.2455C79.9062 79.6275 80.9505 78.2976 82.6723 78.2976C84.2942 78.2976 85.4385 79.5388 85.4385 81.2455C85.4385 82.8636 84.2942 84.1935 82.6723 84.1935C80.9616 84.0937 79.9062 82.8525 79.9062 81.2455ZM55.9777 76.4801C53.3116 76.4801 51.4008 78.3862 51.4008 81.2344C51.4008 84.0937 53.3116 85.9888 56.0777 85.9888C57.4107 85.9888 58.7438 85.612 59.7991 84.7476L58.8438 83.3179C58.0773 83.8942 57.1219 84.271 56.1776 84.271C54.9334 84.271 53.7004 83.6947 53.4115 82.0878H60.1768C60.1768 81.7996 60.1768 81.6112 60.1768 81.3231C60.2657 78.3862 58.5438 76.4801 55.9777 76.4801ZM55.9777 78.1978C57.2219 78.1978 58.0773 78.9625 58.2661 80.3811H53.5004C53.6893 79.1509 54.5446 78.1978 55.9777 78.1978ZM105.657 81.2455V73.0667H103.657V77.821C102.99 76.9677 102.035 76.4911 100.791 76.4911C98.2137 76.4911 96.2141 78.486 96.2141 81.2455C96.2141 84.0051 98.2137 85.9999 100.791 85.9999C102.124 85.9999 103.079 85.5234 103.657 84.67V85.8115H105.657V81.2455ZM98.3137 81.2455C98.3137 79.6275 99.3579 78.2976 101.08 78.2976C102.702 78.2976 103.846 79.5388 103.846 81.2455C103.846 82.8636 102.702 84.1935 101.08 84.1935C99.3579 84.0937 98.3137 82.8525 98.3137 81.2455ZM31.3715 81.2455V76.6795H29.3719V77.821C28.7054 76.9677 27.75 76.4911 26.5058 76.4911C23.9285 76.4911 21.9289 78.486 21.9289 81.2455C21.9289 84.0051 23.9285 85.9999 26.5058 85.9999C27.8389 85.9999 28.7942 85.5234 29.3719 84.67V85.8115H31.3715V81.2455ZM23.9397 81.2455C23.9397 79.6275 24.9839 78.2976 26.7058 78.2976C28.3277 78.2976 29.4719 79.5388 29.4719 81.2455C29.4719 82.8636 28.3277 84.1935 26.7058 84.1935C24.9839 84.0937 23.9397 82.8525 23.9397 81.2455Z" fill="#C9C9C9"/>
<path d="M70.4747 7.32544H40.4363V61.1641H70.4747V7.32544Z" fill="#FF5A00"/>
<path d="M42.4359 34.2448C42.4359 23.3064 47.5905 13.5982 55.5 7.32551C49.6789 2.75954 42.336 0 34.3265 0C15.3525 0 0 15.316 0 34.2448C0 53.1737 15.3525 68.4897 34.3265 68.4897C42.336 68.4897 49.6789 65.7302 55.5 61.1642C47.5794 54.9802 42.4359 45.1832 42.4359 34.2448Z" fill="#EB001B"/>
<path d="M111 34.2448C111 53.1737 95.6475 68.4897 76.6735 68.4897C68.664 68.4897 61.3211 65.7302 55.5 61.1642C63.5095 54.8804 68.5641 45.1832 68.5641 34.2448C68.5641 23.3064 63.4095 13.5982 55.5 7.32551C61.3099 2.75954 68.6529 0 76.6624 0C95.6475 0 111 15.4157 111 34.2448Z" fill="#F79E1B"/>
</g>
<defs>
<clipPath id="clip0_238_4344">
<rect width="111" height="86" fill="white"/>
</clipPath>
</defs>
</svg>
