<svg width="122" height="40" viewBox="0 0 122 40" fill="none" xmlns="http://www.w3.org/2000/svg">
<g clip-path="url(#clip0_238_4350)">
<path d="M52.8665 39.423H42.9836L49.1651 0.701904H59.0474L52.8665 39.423Z" fill="#00579F"/>
<path d="M88.6927 1.64851C86.7434 0.865044 83.6516 0 79.8286 0C70.069 0 63.1963 5.27238 63.1541 12.8103C63.0731 18.3718 68.0748 21.4607 71.8156 23.3151C75.6392 25.21 76.9389 26.4468 76.9389 28.1358C76.9 30.7298 73.8493 31.9256 71.0039 31.9256C67.0582 31.9256 64.9441 31.3091 61.7312 29.8659L60.4298 29.2472L59.0469 37.9392C61.3648 39.009 65.6353 39.9584 70.069 40C80.4387 40 87.1898 34.8092 87.2698 26.7764C87.3092 22.3685 84.6681 18.991 78.9742 16.231C75.5176 14.4594 73.4007 13.2647 73.4007 11.452C73.4412 9.804 75.1912 8.11607 79.0931 8.11607C82.3059 8.0334 84.6665 8.81577 86.4548 9.59869L87.3487 10.0099L88.6927 1.64851Z" fill="#00579F"/>
<path d="M101.828 25.7055C102.642 23.481 105.774 14.8716 105.774 14.8716C105.733 14.9543 106.586 12.6061 107.074 11.1645L107.765 14.501C107.765 14.501 109.636 23.7695 110.043 25.7055C108.498 25.7055 103.78 25.7055 101.828 25.7055ZM114.027 0.701904H106.383C104.025 0.701904 102.234 1.4016 101.217 3.91461L86.5376 39.4224H96.9074C96.9074 39.4224 98.6146 34.6433 98.9816 33.614C100.119 33.614 110.207 33.614 111.67 33.614C111.954 34.9735 112.85 39.4224 112.85 39.4224H122L114.027 0.701904Z" fill="#00579F"/>
<path d="M34.7292 0.701904L25.0507 27.106L23.9931 21.7509C22.2037 15.5719 16.5919 8.85849 10.3293 5.52041L19.1946 39.3819H29.6454L45.1796 0.701904H34.7292Z" fill="#00579F"/>
<path d="M16.0632 0.701904H0.162669L0 1.48427C12.4034 4.69752 20.618 12.4429 23.993 21.7526L20.5364 3.95676C19.9673 1.48373 18.2185 0.783481 16.0632 0.701904Z" fill="#FAA61A"/>
</g>
<defs>
<clipPath id="clip0_238_4350">
<rect width="122" height="40" fill="white"/>
</clipPath>
</defs>
</svg>
