<svg width="81" height="37" viewBox="0 0 81 37" fill="none" xmlns="http://www.w3.org/2000/svg">
<g clip-path="url(#clip0_120_959)">
<path fill-rule="evenodd" clip-rule="evenodd" d="M2.31323 22.7426H2.69835C3.00073 22.7426 3.21183 22.7212 3.33022 22.677C3.44392 22.6374 3.54192 22.5624 3.60979 22.463C3.67929 22.3553 3.71414 22.2288 3.70963 22.1007C3.70963 21.854 3.61549 21.6757 3.42436 21.5616C3.286 21.4788 3.02926 21.436 2.65413 21.436H2.31466L2.31323 22.7426ZM1.10083 20.255H2.3874C3.08203 20.255 3.58268 20.3192 3.88935 20.4476C4.19744 20.5759 4.43992 20.7842 4.61679 21.0709C4.79366 21.3576 4.88352 21.7013 4.88352 22.1021C4.88352 22.5472 4.76656 22.9152 4.53406 23.209C4.30299 23.5042 3.98777 23.7082 3.58982 23.8238C3.35589 23.8908 2.93084 23.9236 2.31323 23.9236V26.6194H1.10083V20.255ZM7.08723 22.7426H7.46664C7.85176 22.7426 8.11706 22.6912 8.26255 22.59C8.40804 22.4901 8.47936 22.3218 8.47936 22.0879C8.48401 21.9609 8.44807 21.8358 8.37677 21.7306C8.30547 21.6254 8.2025 21.5457 8.08283 21.5031C7.96302 21.4589 7.7405 21.436 7.41958 21.436H7.08723V22.7426ZM5.87483 20.255H7.15855C7.86174 20.255 8.36239 20.3178 8.6605 20.4433C8.96004 20.5688 9.19824 20.7771 9.38081 21.068C9.56196 21.3604 9.65182 21.7042 9.65182 22.1021C9.65182 22.5201 9.55197 22.8709 9.35228 23.1519C9.15259 23.4329 8.84878 23.6455 8.44512 23.7895L9.95278 26.6194H8.62912L7.19849 23.9222H7.08723V26.618H5.87483V20.2536V20.255ZM13.7583 21.9424L12.9039 24.1276H14.607L13.7583 21.9424ZM13.1364 20.255H14.3645L16.8121 26.6194H15.5526L15.0548 25.3072H12.4589L11.9411 26.6194H10.6816L13.135 20.255H13.1364ZM23.1465 21.2934L22.2936 22.1364C21.7544 21.5658 21.124 21.2806 20.4065 21.2806C19.7789 21.2806 19.2555 21.4874 18.8318 21.9039C18.6274 22.0987 18.4656 22.3337 18.3566 22.5942C18.2476 22.8547 18.1937 23.1349 18.1985 23.4172C18.1985 24.0306 18.4168 24.5526 18.8561 24.9791C19.2954 25.407 19.836 25.621 20.4807 25.621C20.8986 25.621 21.2509 25.5311 21.539 25.3557C21.8272 25.1802 22.0582 24.9049 22.2337 24.5284H20.3908V23.3916H23.593L23.6016 23.6597C23.6016 24.216 23.4575 24.7437 23.1694 25.243C22.8798 25.7422 22.5075 26.123 22.0483 26.3841C21.589 26.6479 21.0527 26.7792 20.435 26.7792C19.7746 26.7792 19.1841 26.6365 18.6664 26.3484C18.1507 26.0625 17.7256 25.6374 17.4397 25.1217C17.1399 24.5992 16.9834 24.0068 16.9861 23.4044C16.9861 22.5629 17.2643 21.8297 17.822 21.2078C18.4824 20.4661 19.341 20.0953 20.3994 20.0953C20.9542 20.0953 21.472 20.198 21.9541 20.4019C22.3592 20.5745 22.7572 20.8726 23.1465 21.2934ZM25.2561 20.255H26.4357L27.912 24.6938L29.3997 20.255H30.5793L31.6476 26.6194H30.4766L29.7934 22.5999L28.4412 26.6194H27.3743L26.0335 22.5999L25.3346 26.6194H24.1536L25.2561 20.255ZM35.4545 21.9424L34.6002 24.1276H36.3032L35.4545 21.9424ZM34.8327 20.255H36.0607L38.5084 26.6194H37.2503L36.7511 25.3072H34.1551L33.6374 26.6194H32.3779L34.8327 20.255ZM38.3786 20.255H41.896V21.4489H40.7363V26.6194H39.5082V21.4489H38.3786V20.255ZM42.8445 26.6194H44.0469V20.255H42.8445V26.6194ZM51.1687 21.3733L50.3214 22.1806C49.7452 21.5715 49.0962 21.2677 48.3759 21.2677C47.7682 21.2677 47.2562 21.4745 46.8397 21.891C46.4232 22.3061 46.215 22.8182 46.215 23.4287C46.215 23.8523 46.3077 24.2303 46.4917 24.5583C46.6771 24.8864 46.9367 25.146 47.2747 25.3343C47.6114 25.5211 47.9865 25.6153 48.3987 25.6153C48.7496 25.6153 49.0705 25.5496 49.3615 25.4184C49.6525 25.2872 49.972 25.0476 50.3214 24.701L51.143 25.5582C50.6723 26.0175 50.2287 26.3356 49.8108 26.5139C49.3562 26.6978 48.8691 26.7881 48.3787 26.7792C47.3888 26.7792 46.5801 26.4654 45.9497 25.8378C45.3192 25.2102 45.004 24.4071 45.004 23.4272C45.004 22.7911 45.1466 22.2291 45.4347 21.7341C45.7302 21.2333 46.1561 20.8221 46.6671 20.5446C47.1945 20.247 47.7903 20.0921 48.3958 20.0953C48.9207 20.0953 49.4257 20.2065 49.9121 20.4276C50.397 20.6487 50.8164 20.9653 51.1687 21.3733ZM56.4348 22.821H56.8128C57.1094 22.821 57.3163 22.7996 57.4318 22.7568C57.5427 22.7178 57.6381 22.6443 57.7042 22.5472C57.7731 22.4413 57.808 22.3168 57.8041 22.1906C57.8041 21.9509 57.7114 21.7755 57.5245 21.6643C57.389 21.5815 57.138 21.5416 56.77 21.5416H56.4348V22.821ZM55.2495 20.3848H56.5075C57.1893 20.3848 57.68 20.4476 57.9809 20.5731C58.2805 20.6986 58.5187 20.9012 58.6927 21.1836C58.8667 21.4646 58.9537 21.8012 58.9537 22.1934C58.9537 22.6299 58.8396 22.9908 58.6114 23.2789C58.3832 23.567 58.0751 23.7681 57.6857 23.8808C57.4575 23.9464 57.0395 23.9778 56.4348 23.9778V26.6194H55.2495V20.3848ZM59.7182 20.3848H60.905V25.4869H62.6337V26.6194H59.7182V20.3848ZM66.3337 22.038L65.4978 24.1775H67.1652L66.3337 22.038ZM65.7246 20.3834H66.9285L69.3247 26.6194H68.0924L67.6045 25.3357H65.0614L64.5536 26.6194H63.3198L65.7246 20.3848V20.3834ZM68.4532 20.3848H69.727L70.8909 22.627L72.0476 20.3848H73.3057L71.4799 23.9193V26.6194H70.2861V23.9193L68.4532 20.3848ZM77.0698 22.6171H76.6448V20.827H76.254V20.4133H77.4721V20.827H77.0713L77.0698 22.6171ZM79.7799 22.6171L79.5445 21.2249L79.0767 22.6171H78.7058L78.2423 21.2249L77.9998 22.6171H77.5919L77.9741 20.4133H78.3821L78.8927 21.9495L79.4076 20.4133H79.817L80.1864 22.6171H79.7799ZM65.6932 14.3071C61.9676 14.5382 63.6393 19.3906 67.76 19.1339C71.788 18.8843 69.6656 14.0604 65.6932 14.3071Z" fill="#696969"/>
<path fill-rule="evenodd" clip-rule="evenodd" d="M64.1162 34.0579C61.2671 34.0579 58.5347 32.926 56.52 30.9114C54.5054 28.8968 53.3736 26.1644 53.3736 23.3153C53.3736 20.4662 54.5054 17.7337 56.52 15.7191C58.5347 13.7045 61.2671 12.5727 64.1162 12.5727C66.9653 12.5727 69.6977 13.7045 71.7123 15.7191C73.727 17.7337 74.8588 20.4662 74.8588 23.3153C74.8588 26.1644 73.727 28.8968 71.7123 30.9114C69.6977 32.926 66.9653 34.0579 64.1162 34.0579ZM64.1162 11.3089C60.9319 11.3089 57.8781 12.5739 55.6264 14.8255C53.3748 17.0771 52.1099 20.131 52.1099 23.3153C52.1099 26.4996 53.3748 29.5534 55.6264 31.805C57.8781 34.0567 60.9319 35.3216 64.1162 35.3216C67.3005 35.3216 70.3543 34.0567 72.6059 31.805C74.8576 29.5534 76.1225 26.4996 76.1225 23.3153C76.1225 20.131 74.8576 17.0771 72.6059 14.8255C70.3543 12.5739 67.3005 11.3089 64.1162 11.3089ZM63.7553 2.92912C60.9055 5.08291 61.4018 8.38777 61.4018 8.38777C61.4018 8.38777 59.6089 3.73786 57.284 0.895142C56.9702 4.55374 58.1169 9.40334 58.1169 9.40334C58.1169 9.40334 56.6592 6.39659 53.0919 6.22828C56.0516 7.93277 57.1998 10.9951 57.4623 11.8182C59.2265 10.7293 61.244 10.1187 63.316 10.0466C63.0821 9.27925 62.2519 6.05283 63.7553 2.92912Z" fill="#696969"/>
</g>
<defs>
<clipPath id="clip0_120_959">
<rect width="79.8758" height="35.6588" fill="white" transform="translate(0.814453 0.530151)"/>
</clipPath>
</defs>
</svg>
