<svg width="145" height="37" viewBox="0 0 145 37" fill="none" xmlns="http://www.w3.org/2000/svg">
<g clip-path="url(#clip0_120_946)">
<path d="M17.9602 0.530151C8.25388 0.530151 0.300537 8.25671 0.300537 17.9745C0.300537 19.7303 0.534459 21.3692 1.11926 23.0095C1.47015 22.5402 1.82103 22.0724 2.05495 21.6031C3.34152 19.8487 4.51113 17.9745 5.68074 16.2186L6.49947 14.8137C6.73339 14.3444 7.08427 13.8765 7.3182 13.4087C7.903 12.4716 8.48781 11.5359 8.95565 10.5988C9.18957 10.1309 9.42349 9.66166 9.77438 9.19382C10.1253 8.72598 10.2422 8.25671 10.5931 7.78886C10.944 7.32102 11.0609 6.85175 11.2949 6.3839L11.9966 5.09591L12.1136 4.97895C12.4645 4.15879 13.4002 3.92487 14.2189 4.27718C14.8037 4.62806 15.1546 5.21287 15.1546 5.91606C15.1546 6.73479 15.0376 7.67048 14.9192 8.49063C14.8023 9.31078 14.8023 10.2479 14.8023 11.0666C14.6853 12.8225 14.6853 14.4613 14.6853 16.1016C14.6853 17.7405 14.8023 19.4964 14.9192 21.0183L15.2701 23.4773C15.3885 24.1791 15.6224 24.8823 15.9719 25.584C16.0888 25.818 16.2058 25.9349 16.3228 26.1689C16.4397 26.2872 16.3228 26.1689 16.4397 26.1689H16.7906L16.9076 26.0519L17.6093 25.3501C18.0772 24.7653 18.662 24.1805 19.0129 23.4773C19.4807 22.7741 19.8316 22.0724 20.2994 21.3692C21.1182 19.8473 21.9369 18.3253 22.6387 16.8048C22.9895 15.9847 23.3404 15.2815 23.6913 14.4628C24.0422 13.6426 24.3931 12.8225 24.744 12.1207C25.0948 11.3005 26.0305 10.9511 26.8493 11.3005C27.3171 11.5359 27.668 12.0037 27.7849 12.4716C27.7849 12.7055 27.7849 12.9394 27.9019 13.1748L28.0189 13.8765C28.1358 14.3444 28.1358 14.8137 28.2528 15.2815C28.3697 16.2186 28.6037 17.2713 28.8376 18.2084C29.0715 19.1455 29.4224 20.0812 29.7733 21.0183C30.1201 21.9619 30.6353 22.8347 31.2938 23.5943C31.4107 23.8282 31.4107 24.0621 31.1768 24.1791C31.1119 24.2355 31.0289 24.2665 30.9429 24.2665C30.8569 24.2665 30.7739 24.2355 30.709 24.1791C29.916 23.486 29.2092 22.7001 28.6037 21.8384C28.0189 21.0183 27.4341 20.0812 26.9662 19.1455C26.6153 18.4423 26.3814 17.8575 26.1475 17.1543C25.9136 17.5066 25.7966 17.9745 25.5627 18.3253C24.744 19.9656 24.0422 21.4861 23.1065 23.0081C22.6387 23.8282 22.1708 24.6484 21.703 25.3501C21.2238 26.2046 20.6339 26.9921 19.9486 27.6922C19.5977 28.16 19.1298 28.5109 18.7789 28.8618C18.662 28.9788 18.545 29.0972 18.3111 29.0972L18.0772 29.2141L17.9602 29.3311H17.6093C17.4924 29.3311 17.4924 29.448 17.3754 29.448C17.1415 29.448 17.0245 29.565 16.7906 29.565C16.3228 29.565 15.9719 29.565 15.504 29.448C15.0362 29.3311 14.8023 29.0957 14.4514 28.8632C13.985 28.394 13.5171 27.9261 13.2818 27.3399C12.8154 26.4042 12.4645 25.4671 12.3475 24.413C12.1136 23.4773 11.9966 22.5402 11.8797 21.7215C11.6458 19.9642 11.6458 18.0914 11.6458 16.4525V13.8765C11.2949 14.4613 10.944 15.0461 10.7101 15.6324C10.4761 16.1017 10.2422 16.5695 9.89134 17.0373L9.07261 18.4423C8.01996 20.4335 6.85035 22.3063 5.68074 24.0621C4.94257 25.2984 4.16237 26.5092 3.34152 27.6922C8.72173 35.6527 19.5977 37.9947 27.7849 32.6088C35.9722 27.4568 38.1945 16.5695 32.8143 8.60902C29.4224 3.57399 23.9267 0.530151 17.9602 0.530151ZM50.8248 24.1791V12.5885H50.5909L46.8482 24.1791H45.9125L42.1711 12.5885H41.8188V24.1791H40.2998V11.5359H43.1068L46.3803 21.7201L49.6552 11.5359H52.4623V24.413L50.8248 24.1791ZM54.6845 13.1748V11.5345H56.322V13.1748H54.6845ZM54.6845 24.1791V14.3444H56.322V24.1791H54.6845ZM66.3806 21.0183C66.3806 23.0081 65.6789 24.413 62.404 24.413C58.3103 24.413 58.0764 22.0724 58.0764 19.378C58.0764 16.6865 58.3103 14.3444 62.404 14.3444C65.6789 14.3444 66.3806 15.8663 66.3806 17.7391H64.8601C64.8601 16.1016 64.2753 15.3999 62.404 15.3999C59.8308 15.3999 59.7139 16.8034 59.7139 19.4964C59.7139 22.1893 59.8308 23.5943 62.404 23.5943C64.2753 23.5943 64.8601 22.7741 64.8601 21.2522H66.3806V21.0183ZM69.5386 15.3985C70.3559 14.9306 71.293 14.2288 72.2287 14.2288H73.6308L73.5138 15.3985H72.2287C71.4085 15.3985 70.4743 16.1016 69.7725 16.4525V24.1791H68.1351V14.3444H69.4216L69.5386 15.3999V15.3985ZM82.7538 19.2624C82.7538 22.0724 82.5198 24.2975 78.4262 24.2975C74.3326 24.2975 74.0986 21.9554 74.0986 19.2624C74.0986 16.5695 74.3326 14.2274 78.4262 14.2274C82.5198 14.2274 82.7538 16.4525 82.7538 19.2624ZM75.6191 19.2624C75.6191 21.9554 75.7361 23.3604 78.3092 23.3604C80.8824 23.3604 80.9993 22.0724 80.9993 19.2624C80.9993 16.4525 80.8824 15.1645 78.3092 15.1645C75.8531 15.2815 75.6191 16.5695 75.6191 19.2624ZM85.7947 26.5212C86.3795 26.6381 87.1983 26.6381 88.134 26.6381C90.7071 26.6381 90.941 25.9349 91.058 23.3604C90.3562 23.8282 89.3036 24.296 88.2509 24.296C84.6251 24.413 84.3912 22.4232 84.3912 19.3794C84.3912 16.3356 84.6251 14.3444 88.134 14.3444C89.3036 14.3444 90.4732 14.9292 91.2919 15.3999L91.4089 14.4613H92.6954V23.2434C92.6954 26.872 91.8767 27.8077 88.6018 27.8077C87.6661 27.8077 86.6135 27.6922 85.6778 27.5752L85.7947 26.5212ZM90.941 16.1016C90.2393 15.6324 89.3036 15.1645 88.4848 15.1645C86.0287 15.1645 85.9117 16.5695 85.9117 19.2624C85.9117 21.9554 86.0287 23.125 88.4848 23.125C89.3036 23.125 90.2393 22.6572 90.941 22.3063V16.1016ZM101.583 24.1791L101.466 23.2434C100.649 23.7112 99.5961 24.296 98.4251 24.296C94.8007 24.413 94.5668 22.3063 94.5668 19.261C94.5668 16.2186 94.8007 14.2274 98.4265 14.2274C99.5961 14.2274 100.649 14.8122 101.466 15.2829L101.583 14.4613H102.87V24.296H101.583V24.1791ZM101.234 16.1016C100.53 15.7493 99.5961 15.2815 98.776 15.2815C96.3212 15.2815 96.2043 16.6865 96.2043 19.3794C96.2043 22.0724 96.3212 23.4773 98.776 23.4773C99.5961 23.4773 100.53 23.0081 101.232 22.5402L101.234 16.1016ZM106.261 15.1645C106.963 14.6967 108.016 14.1105 109.069 14.1105C110.706 13.9935 111.642 14.4628 111.993 15.1645C112.811 14.6967 113.747 14.1105 114.917 14.1105C118.308 13.9935 118.542 15.7508 118.542 18.2084V24.1791H116.905V18.3253C116.905 16.2186 116.788 15.2815 114.566 15.2815C113.747 15.2815 112.928 15.7493 112.226 16.2186C112.343 16.9204 112.46 17.6236 112.46 18.4437V24.296H111.057V18.4423C111.057 16.3356 110.94 15.3985 108.718 15.3985C107.899 15.3985 107.08 15.8677 106.495 16.2186V24.296H104.858V14.4628H106.145L106.261 15.1645ZM120.765 13.1748V11.5345H122.402V13.1748H120.765ZM120.765 24.1791V14.3444H122.402V24.1791H120.765ZM125.911 15.1645C126.73 14.6967 127.782 14.1105 128.952 14.1105C132.576 13.9935 132.81 15.7508 132.81 18.2084V24.1791H131.173V18.3253C131.173 16.2186 131.056 15.2815 128.601 15.2815C127.781 15.2815 126.847 15.7493 126.145 16.1016V24.1791H124.507V14.3444H125.794L125.911 15.1645ZM136.085 26.5212C136.67 26.6381 137.489 26.6381 138.424 26.6381C140.997 26.6381 141.231 25.9349 141.348 23.3604C140.647 23.8282 139.594 24.296 138.541 24.296C134.915 24.413 134.682 22.4232 134.682 19.3794C134.682 16.3356 134.915 14.3444 138.424 14.3444C139.594 14.3444 140.764 14.9292 141.582 15.3999L141.699 14.4613H142.986V23.2434C142.986 26.872 142.167 27.8077 138.892 27.8077C137.956 27.8077 136.904 27.6922 135.968 27.5752L136.085 26.5212ZM141.231 16.1016C140.53 15.6324 139.594 15.1645 138.775 15.1645C136.319 15.1645 136.202 16.5695 136.202 19.2624C136.202 21.9554 136.319 23.125 138.775 23.125C139.594 23.125 140.53 22.6572 141.231 22.3063V16.1016Z" fill="#696969"/>
</g>
<defs>
<clipPath id="clip0_120_946">
<rect width="144.062" height="35.6588" fill="white" transform="translate(0.299805 0.530151)"/>
</clipPath>
</defs>
</svg>
