<svg width="66" height="50" viewBox="0 0 66 50" fill="none" xmlns="http://www.w3.org/2000/svg">
<g clip-path="url(#clip0_238_4364)">
<path d="M12.1853 49.8905V46.5722C12.1853 45.3029 11.4103 44.4717 10.0798 44.4717C9.41453 44.4717 8.69116 44.6908 8.19384 45.4124C7.80633 44.8067 7.25088 44.4717 6.41771 44.4717C5.86227 44.4717 5.30683 44.6392 4.86764 45.2449V44.5812H3.70508V49.8905H4.86764V46.9588C4.86764 46.0181 5.36495 45.5735 6.13999 45.5735C6.91503 45.5735 7.30255 46.0696 7.30255 46.9588V49.8905H8.46511V46.9588C8.46511 46.0181 9.02055 45.5735 9.73746 45.5735C10.5125 45.5735 10.9 46.0696 10.9 46.9588V49.8905H12.1853ZM29.4299 44.5812H27.544V42.9768H26.3814V44.5812H25.3287V45.6315H26.3814V48.067C26.3814 49.2848 26.8787 50 28.2092 50C28.7065 50 29.262 49.8325 29.6495 49.6134L29.3137 48.6147C28.9778 48.8338 28.5903 48.8918 28.3126 48.8918C27.7571 48.8918 27.5375 48.5567 27.5375 48.0091V45.6315H29.4235V44.5812H29.4299ZM39.2987 44.4652C38.6335 44.4652 38.1879 44.8003 37.9101 45.2384V44.5748H36.7476V49.8841H37.9101V46.8944C37.9101 46.0116 38.2976 45.5091 39.021 45.5091C39.2406 45.5091 39.5183 45.5671 39.7444 45.6186L40.0802 44.5104C39.8477 44.4652 39.5183 44.4652 39.2987 44.4652ZM24.3857 45.0194C23.8303 44.6328 23.0552 44.4652 22.222 44.4652C20.8916 44.4652 20.0067 45.1289 20.0067 46.1792C20.0067 47.0619 20.672 47.5645 21.8345 47.7256L22.39 47.7835C22.9971 47.8931 23.3329 48.0606 23.3329 48.3377C23.3329 48.7243 22.8873 49.0013 22.1123 49.0013C21.3372 49.0013 20.7236 48.7243 20.3361 48.4472L19.7807 49.3299C20.3878 49.7745 21.221 49.9936 22.0541 49.9936C23.6042 49.9936 24.4955 49.2719 24.4955 48.2797C24.4955 47.339 23.7721 46.8428 22.6677 46.6753L22.1123 46.6173C21.6149 46.5593 21.2274 46.4498 21.2274 46.1212C21.2274 45.7346 21.6149 45.5155 22.2285 45.5155C22.8937 45.5155 23.559 45.7926 23.8948 45.9601L24.3857 45.0194ZM55.3162 44.4652C54.651 44.4652 54.2053 44.8003 53.9276 45.2384V44.5748H52.765V49.8841H53.9276V46.8944C53.9276 46.0116 54.3151 45.5091 55.0385 45.5091C55.2581 45.5091 55.5358 45.5671 55.7619 45.6186L56.0977 44.5232C55.8717 44.4652 55.5423 44.4652 55.3162 44.4652ZM40.4613 47.2359C40.4613 48.8402 41.5722 50 43.2902 50C44.0652 50 44.6207 49.8325 45.1761 49.3944L44.6207 48.4536C44.175 48.7887 43.7358 48.9498 43.2321 48.9498C42.2891 48.9498 41.6239 48.2861 41.6239 47.2359C41.6239 46.2372 42.2891 45.5735 43.2321 45.5219C43.7294 45.5219 44.175 45.6895 44.6207 46.0181L45.1761 45.0774C44.6207 44.6328 44.0652 44.4717 43.2902 44.4717C41.5722 44.4652 40.4613 45.6315 40.4613 47.2359ZM51.215 47.2359V44.5812H50.0524V45.2449C49.6649 44.7488 49.1094 44.4717 48.3861 44.4717C46.8877 44.4717 45.7251 45.6315 45.7251 47.2359C45.7251 48.8402 46.8877 50 48.3861 50C49.1611 50 49.7166 49.723 50.0524 49.2268V49.8905H51.215V47.2359ZM46.9458 47.2359C46.9458 46.2951 47.5529 45.5219 48.554 45.5219C49.497 45.5219 50.1622 46.2436 50.1622 47.2359C50.1622 48.1766 49.497 48.9498 48.554 48.9498C47.5594 48.8918 46.9458 48.1701 46.9458 47.2359ZM33.0338 44.4652C31.4838 44.4652 30.3729 45.5735 30.3729 47.2294C30.3729 48.8918 31.4838 49.9936 33.092 49.9936C33.867 49.9936 34.642 49.7745 35.2556 49.2719L34.7002 48.4408C34.2545 48.7758 33.6991 48.9949 33.1501 48.9949C32.4267 48.9949 31.7098 48.6598 31.5419 47.7256H35.4752C35.4752 47.558 35.4752 47.4485 35.4752 47.281C35.5269 45.5735 34.5258 44.4652 33.0338 44.4652ZM33.0338 45.464C33.7572 45.464 34.2545 45.9085 34.3643 46.7333H31.5936C31.7034 46.0181 32.2007 45.464 33.0338 45.464ZM61.917 47.2359V42.4807H60.7544V45.2449C60.3669 44.7488 59.8114 44.4717 59.0881 44.4717C57.5897 44.4717 56.4271 45.6315 56.4271 47.2359C56.4271 48.8402 57.5897 50 59.0881 50C59.8631 50 60.4185 49.723 60.7544 49.2268V49.8905H61.917V47.2359ZM57.6478 47.2359C57.6478 46.2951 58.2549 45.5219 59.256 45.5219C60.199 45.5219 60.8642 46.2436 60.8642 47.2359C60.8642 48.1766 60.199 48.9498 59.256 48.9498C58.2549 48.8918 57.6478 48.1701 57.6478 47.2359ZM18.7279 47.2359V44.5812H17.5654V45.2449C17.1778 44.7488 16.6224 44.4717 15.899 44.4717C14.4006 44.4717 13.2381 45.6315 13.2381 47.2359C13.2381 48.8402 14.4006 50 15.899 50C16.6741 50 17.2295 49.723 17.5654 49.2268V49.8905H18.7279V47.2359ZM14.4071 47.2359C14.4071 46.2951 15.0142 45.5219 16.0153 45.5219C16.9582 45.5219 17.6235 46.2436 17.6235 47.2359C17.6235 48.1766 16.9582 48.9498 16.0153 48.9498C15.0142 48.8918 14.4071 48.1701 14.4071 47.2359Z" fill="#C9C9C9"/>
<path d="M41.4623 4.25903H23.998V35.5606H41.4623V4.25903Z" fill="#FF5A00"/>
<path d="M25.1604 19.9098C25.1604 13.5503 28.1572 7.90593 32.7558 4.25902C29.3714 1.60438 25.1022 0 20.4455 0C9.41415 0 0.488281 8.90464 0.488281 19.9098C0.488281 30.915 9.41415 39.8196 20.4455 39.8196C25.1022 39.8196 29.3714 38.2152 32.7558 35.5606C28.1507 31.9652 25.1604 26.2693 25.1604 19.9098Z" fill="#EB001B"/>
<path d="M65.0233 19.9098C65.0233 30.915 56.0975 39.8196 45.0661 39.8196C40.4094 39.8196 36.1402 38.2152 32.7559 35.5606C37.4126 31.9072 40.3512 26.2693 40.3512 19.9098C40.3512 13.5503 37.3544 7.90593 32.7559 4.25902C36.1337 1.60438 40.4029 0 45.0596 0C56.0975 0 65.0233 8.96263 65.0233 19.9098Z" fill="#F79E1B"/>
</g>
<defs>
<clipPath id="clip0_238_4364">
<rect width="64.535" height="50" fill="white" transform="translate(0.488281)"/>
</clipPath>
</defs>
</svg>
