<svg width="37" height="21" viewBox="0 0 37 21" fill="none" xmlns="http://www.w3.org/2000/svg">
<g clip-path="url(#clip0_120_940)">
<path d="M7.24067 18.9172V1.44008H2.00024V4.93749H3.74325V18.9172H7.24067ZM16.6974 19.3679C17.6416 19.3679 18.5274 19.2324 19.3561 18.96C20.1412 18.7105 20.8772 18.3268 21.5313 17.826C22.1372 17.3613 22.6379 16.7736 23.0004 16.1016C23.357 15.4355 23.5368 14.708 23.5368 13.9192C23.5368 13.4657 23.4754 13.0221 23.3528 12.5927C23.1103 11.7306 22.6437 10.9481 22.0006 10.3248C21.6754 10.0075 21.3111 9.73281 20.9165 9.50753C21.1701 9.27804 21.3969 9.02061 21.5926 8.74015C21.7923 8.45488 21.9592 8.15249 22.0976 7.83156C22.2359 7.51063 22.3443 7.18257 22.4213 6.84453C22.4984 6.50791 22.5355 6.17272 22.5355 5.83895C22.5393 5.17167 22.3828 4.51323 22.079 3.91908C21.7699 3.31648 21.3431 2.782 20.8238 2.34724C20.2721 1.88479 19.6429 1.52359 18.9653 1.28032C18.2384 1.017 17.4705 0.885151 16.6974 0.890929C15.9029 0.890929 15.1512 1.02073 14.4438 1.28032C13.7675 1.52268 13.14 1.88401 12.5909 2.34724C12.0632 2.79796 11.6467 3.32286 11.3414 3.91908C11.0377 4.51323 10.8812 5.17167 10.885 5.83895C10.8902 6.524 11.0374 7.20054 11.3172 7.82586C11.4598 8.14251 11.631 8.44347 11.8307 8.72731C12.0289 9.01258 12.2543 9.26362 12.5053 9.48328C12.1003 9.7115 11.7351 9.98536 11.4085 10.3063C11.0878 10.6223 10.8075 10.9768 10.5741 11.3618C10.1054 12.1329 9.85865 13.0183 9.86088 13.9207C9.86088 14.708 10.0392 15.4355 10.3972 16.103C10.7538 16.7677 11.2444 17.3439 11.8663 17.826C12.5205 18.3268 13.2564 18.7105 14.0415 18.96C14.8702 19.231 15.7546 19.3679 16.6974 19.3679ZM16.7231 8.22809C16.3893 8.22809 16.0769 8.17532 15.7845 8.06977C15.5078 7.97299 15.25 7.82867 15.0229 7.64329C14.811 7.46903 14.6368 7.25358 14.5108 7.00998C14.3847 6.76481 14.32 6.49264 14.3225 6.21693C14.3225 5.93166 14.3853 5.66636 14.5108 5.41817C14.6363 5.17141 14.8075 4.95318 15.0229 4.76633C15.2474 4.5744 15.5057 4.42591 15.7845 4.32844C16.0769 4.22289 16.3893 4.17011 16.7231 4.17011C17.0483 4.17011 17.3564 4.22289 17.6502 4.32701C17.9412 4.43399 18.1965 4.57948 18.4104 4.76633C18.6258 4.95318 18.797 5.17141 18.9239 5.4196C19.0494 5.66636 19.1122 5.93309 19.1122 6.21836C19.1122 6.5022 19.0494 6.76608 18.9225 7.00998C18.7965 7.25358 18.6222 7.46903 18.4104 7.64329C18.1965 7.82158 17.9412 7.96421 17.6488 8.06977C17.3518 8.1761 17.0385 8.22968 16.7231 8.22809ZM16.6988 16.4924C16.2563 16.4955 15.8161 16.4276 15.3951 16.2913C15.0103 16.1681 14.6495 15.98 14.3282 15.735C14.0318 15.509 13.7868 15.2227 13.6093 14.8949C13.4333 14.565 13.343 14.1961 13.3469 13.8222C13.3469 13.4329 13.4339 13.0691 13.6093 12.7311C13.7833 12.3945 14.023 12.1006 14.3282 11.8482C14.6465 11.5885 15.0075 11.3863 15.3951 11.2505C15.8136 11.1022 16.2548 11.0278 16.6988 11.0309C17.1624 11.0309 17.5974 11.105 18.0082 11.2505C18.419 11.3974 18.777 11.5957 19.0808 11.8482C19.3861 12.1006 19.6257 12.3945 19.8011 12.7325C19.9751 13.0691 20.0622 13.4314 20.0622 13.8222C20.0622 14.2131 19.9751 14.5697 19.8011 14.8949C19.6257 15.2201 19.3861 15.5011 19.0808 15.7364C18.7579 15.9817 18.395 16.1694 18.0082 16.2913C17.5851 16.4268 17.1431 16.4942 16.6988 16.491V16.4924ZM32.1534 15.0774V11.7512H35.6023V8.43349H32.1534V4.83907H28.8242V8.43349H25.3625V11.7498H28.8242V15.076H32.1519L32.1534 15.0774Z" fill="#696969"/>
</g>
<defs>
<clipPath id="clip0_120_940">
<rect width="35.6588" height="19.9689" fill="white" transform="translate(0.879883 0.375122)"/>
</clipPath>
</defs>
</svg>
