<svg width="126" height="36" viewBox="0 0 126 36" fill="none" xmlns="http://www.w3.org/2000/svg">
<path d="M46.8208 34C45.1252 34 43.8928 33.5437 43.1239 32.6311C42.3746 31.7184 42 30.2427 42 28.2039V18.8252C42 16.7864 42.3746 15.3107 43.1239 14.3981C43.8731 13.466 45.0956 13 46.7913 13C48.2503 13 49.3151 13.2913 49.9854 13.8738C50.6755 14.4369 51.1192 15.233 51.3163 16.2621C51.5135 17.2913 51.6022 18.7476 51.5825 20.6311L47.7673 21.5049L47.7968 18.8252C47.7968 17.9709 47.7278 17.3786 47.5898 17.0485C47.4715 16.7184 47.2053 16.5534 46.7913 16.5534C46.4364 16.5534 46.1899 16.6893 46.0519 16.9612C45.9138 17.2136 45.8448 17.6602 45.8448 18.301V28.699C45.8448 29.3204 45.9138 29.767 46.0519 30.0388C46.1899 30.3107 46.4364 30.4466 46.7913 30.4466C47.2053 30.4466 47.4715 30.2816 47.5898 29.9515C47.7278 29.6214 47.7968 29.0388 47.7968 28.2039L47.7673 25.466L51.5825 26.3107C51.6022 28.1553 51.5135 29.6117 51.3163 30.6796C51.1192 31.7282 50.6755 32.5437 49.9854 33.1262C49.2953 33.7087 48.2405 34 46.8208 34Z" fill="#F9C143"/>
<path d="M63.615 33.7087H59.7701L59.4448 30.7379H56.8126L56.4872 33.7087H52.6424L55.9844 13.3204H60.3025L63.615 33.7087ZM58.0843 19.2621L57.197 27.1553H59.0603L58.173 19.2621H58.0843Z" fill="#F9C143"/>
<path d="M68.6655 34C67.0881 34 65.9544 33.5631 65.2643 32.6893C64.5742 31.8155 64.1995 30.5631 64.1404 28.932V27.6505L67.9557 26.8058V28.0874C67.9557 28.9223 68.005 29.5243 68.1035 29.8932C68.2218 30.2621 68.4486 30.4466 68.7838 30.4466C69.0795 30.4466 69.2866 30.301 69.4049 30.0097C69.5232 29.699 69.5823 29.2718 69.5823 28.7282C69.5823 27.7961 69.5133 27.1456 69.3753 26.7767C69.2373 26.4078 68.9908 26.0874 68.6359 25.8155L66.9797 24.4757C66.1318 23.835 65.5107 23.2621 65.1164 22.7573C64.7418 22.233 64.4854 21.6311 64.3474 20.9515C64.2094 20.2718 64.1404 19.3107 64.1404 18.068C64.1404 16.3398 64.5249 15.068 65.2938 14.2524C66.0628 13.4369 67.2261 13.0291 68.7838 13.0291C70.3414 13.0291 71.5047 13.4466 72.2737 14.2816C73.0427 15.0971 73.4272 16.3592 73.4272 18.068C73.4272 18.5922 73.4173 18.9903 73.3976 19.2621L69.5823 20.1359V18.8544C69.5823 18.0388 69.533 17.4563 69.4344 17.1068C69.3359 16.7379 69.119 16.5534 68.7838 16.5534C68.4486 16.5534 68.2218 16.7184 68.1035 17.0485C68.005 17.3786 67.9557 17.8155 67.9557 18.3592C67.9557 19.0583 68.005 19.5825 68.1035 19.932C68.2218 20.2621 68.4387 20.5437 68.7542 20.7767L70.2034 21.9417C71.1104 22.6602 71.7808 23.301 72.2146 23.8641C72.6681 24.4272 72.9835 25.068 73.161 25.7864C73.3384 26.4854 73.4272 27.4272 73.4272 28.6117C73.4272 30.4951 73.0328 31.8641 72.2441 32.7184C71.4752 33.5728 70.2823 34 68.6655 34Z" fill="#F9C143"/>
<path d="M80.9375 21.7087V13.3204H84.7528V33.7087H80.9375V25.3204H78.7785V33.7087H74.9337V13.3204H78.7785V21.7087H80.9375Z" fill="#F9C143"/>
<path d="M90.6416 33.7087H87.1221V13.3204H92.357L93.9836 25.3204L94.1019 26.9223H94.1315L94.2498 25.3204L95.7582 13.3204H101.082V33.7087H97.5623L97.6806 21.8544L97.7102 21.2427H97.651L97.5327 21.8544L95.6695 33.7087H92.4753L90.6416 21.8252L90.5233 21.2136H90.4641L90.5233 21.8544L90.6416 33.7087Z" fill="#F9C143"/>
<path d="M113.437 33.7087H109.592L109.267 30.7379H106.635L106.31 33.7087H102.465L105.807 13.3204H110.125L113.437 33.7087ZM107.907 19.2621L107.019 27.1553H108.883L107.995 19.2621H107.907Z" fill="#F9C143"/>
<path d="M118.458 33.7087H114.82V13.3204H119.553L122.599 26.1942H122.717L122.569 24.8544L122.362 13.3204H126V33.7087H121.652L118.192 20.6893H118.103L118.251 22.0291L118.458 33.7087Z" fill="#F9C143"/>
<path d="M25.7914 14.7024L23.1573 9.10539L20.3592 6.47217L12.4579 7.12984L6.03756 11.4106L4.06201 17.5013L6.36639 21.7812L9.65898 22.7685L25.7914 14.7024Z" fill="#2851A9"/>
<path fill-rule="evenodd" clip-rule="evenodd" d="M18.1688 0.817783C16.4501 0.376849 14.7203 0.806797 13.1721 1.19162C13.0158 1.23047 12.8613 1.26887 12.7089 1.30585L12.7002 1.30797L12.6917 1.31101C9.03335 2.62322 5.91423 4.72391 3.61393 7.18839C2.81034 8.02444 2.12292 8.94125 1.51705 9.90416C1.34086 10.0853 1.22814 10.2968 1.13037 10.4924L1.09228 10.5691C1.00492 10.7455 0.926006 10.9048 0.815765 11.0476L0.795273 11.0742L0.786469 11.1066C0.720985 11.3473 0.620293 11.5611 0.512302 11.7904L0.497272 11.8223C0.387592 12.0554 0.272697 12.3047 0.202633 12.5932C0.0700531 12.8775 0.00201035 13.2962 -1.90735e-05 13.698C-0.00207901 14.1055 0.0634041 14.5383 0.233982 14.8229L0.248917 14.8478L0.271305 14.8663C1.10225 15.553 1.88752 16.2743 2.61575 17.0345L5.47002 21.1574C4.92041 21.9871 4.55963 22.9317 4.30501 23.9704H4.27379L4.25459 24.1176C4.10484 25.2656 4.22389 26.2888 4.61256 27.1448C5.00171 28.0019 5.65651 28.6808 6.55902 29.1451C6.8715 29.318 7.20567 29.4197 7.5397 29.4964C7.70714 29.5349 7.87656 29.5676 8.04368 29.5994L8.0763 29.6056C8.19902 29.629 8.32042 29.6521 8.44104 29.6772C8.45325 29.689 8.46501 29.697 8.47348 29.7022C8.4879 29.7109 8.5014 29.7165 8.51161 29.7201C8.52791 29.7259 8.54386 29.7293 8.55814 29.7312C8.56286 29.7329 8.56789 29.7345 8.57321 29.736C8.65462 29.8023 8.76941 29.9126 8.88225 30.078C10.1503 31.9361 13.1089 31.346 13.1089 31.346C18.1809 37.2634 29.1703 38.5314 32.9743 29.2327C32.9743 29.2327 36.3557 27.9647 36.7783 24.1606L36.5604 23.0711C36.5606 23.0643 36.5609 23.0575 36.5611 23.0506C36.5672 22.8631 36.5703 22.6608 36.5657 22.4787C36.5611 22.3003 36.5489 22.1283 36.5201 22.008L36.5179 21.9999C36.4927 21.9136 36.4737 21.8253 36.4535 21.7314L36.4504 21.7172C36.4296 21.6206 36.407 21.5173 36.3754 21.4185C36.3112 21.2169 36.2043 21.0158 35.976 20.8807L35.8847 20.8266L35.7964 20.8853C35.7037 20.9468 35.6576 21.0354 35.6325 21.1166C35.6087 21.1935 35.5994 21.2789 35.5918 21.3489L35.5916 21.3502L35.5906 21.3593V21.3685C35.5906 21.3801 35.5869 21.3978 35.5704 21.4327C35.5641 21.4459 35.5578 21.458 35.5501 21.4728C35.5473 21.4784 35.5442 21.4843 35.5408 21.4908C35.5298 21.5123 35.5164 21.5391 35.5051 21.568L35.5028 21.5743C35.2367 22.3407 34.8244 22.9754 34.0602 23.3578C34.0298 23.3594 33.9913 23.342 33.9686 23.3079C33.8223 21.8509 33.6081 20.4412 33.1139 19.2212C32.2772 17.0232 31.0615 15.0656 29.3675 13.4661C29.1975 13.2382 28.9719 13.0579 28.7529 12.8951C28.7062 12.8604 28.6601 12.8266 28.6145 12.7933C28.4407 12.6661 28.2761 12.5457 28.131 12.4089C28.0883 12.3492 28.0382 12.3019 27.9927 12.2631C27.9693 12.2432 27.9453 12.224 27.9237 12.2068L27.9198 12.2036C27.8964 12.1849 27.8756 12.1681 27.8559 12.1511C27.8044 12.1065 27.7689 12.0672 27.7485 12.0197C27.9534 11.8293 28.1963 11.662 28.4448 11.4908C28.5029 11.4508 28.5614 11.4106 28.6197 11.3698L28.6305 11.3622L28.64 11.3531C28.7236 11.2726 28.8084 11.1923 28.8936 11.1115C29.7066 10.3409 30.5586 9.53332 30.7757 8.2777L30.7823 8.23936L30.7649 8.17902C30.7342 8.07284 30.7015 7.95914 30.6532 7.83089L30.6457 7.81118L30.6337 7.79389C30.4496 7.52936 30.055 7.33484 29.6422 7.43237C29.3036 7.50794 29.1373 7.73228 29.0031 7.91336L28.9742 7.95219L28.9639 7.96593L28.9565 7.98147C28.4256 9.10648 27.4866 9.96137 26.3969 10.7331C26.3811 10.7374 26.3665 10.7414 26.3527 10.7453C26.31 10.7573 26.2752 10.7671 26.2359 10.7726C26.184 10.78 26.1669 10.7719 26.1612 10.768C25.9498 10.6113 25.7594 10.437 25.5617 10.2561L25.4711 10.1732C25.2512 9.97289 25.0196 9.76881 24.7513 9.5937C24.6662 9.46452 24.5576 9.36264 24.4572 9.27362C24.4367 9.25544 24.4166 9.23787 24.3969 9.22066C24.3081 9.14289 24.2281 9.07279 24.1567 8.98989C23.8914 8.64745 23.608 8.3195 23.3284 7.99589C23.2527 7.90829 23.1773 7.82101 23.1026 7.73385C22.7519 7.32477 22.4142 6.91532 22.1207 6.47279L22.0352 6.284L22.0196 6.26574C20.9751 5.04458 20.1841 3.59452 19.4523 2.13024C19.2058 1.60412 18.9024 1.05624 18.1792 0.820785L18.1688 0.817783ZM26.0621 10.9048L26.1612 10.768C26.1614 10.7681 26.161 10.7679 26.1612 10.768C26.1617 10.7684 26.1622 10.7687 26.1626 10.7691L26.0621 10.9048ZM7.65623 17.1433C8.19752 16.3487 8.81156 15.6041 9.48143 14.9008L9.48204 14.9001C12.1222 12.0986 15.9454 9.31193 20.5477 8.71249C20.7056 8.71691 20.8742 8.70325 21.0304 8.69059C21.1049 8.68456 21.1767 8.67874 21.243 8.67524C21.4542 8.66409 21.6362 8.67268 21.7957 8.73516C21.8231 8.76311 21.8435 8.78529 21.8579 8.80499C21.7725 8.81816 21.6868 8.8312 21.6008 8.84426C20.8031 8.96549 19.9845 9.08988 19.2271 9.36112L19.115 9.40125V9.6554L19.1645 9.70492C19.2661 9.80653 19.3676 9.90824 19.469 10.0099C20.1631 10.7059 20.8567 11.4015 21.6008 12.0587L21.6193 12.075L21.8965 12.2037L21.9443 12.1979C22.7663 12.099 23.5377 11.8709 24.271 11.5804H24.4561C24.4794 11.5979 24.5019 11.6135 24.5223 11.6273L24.5472 11.6441C24.5728 11.6613 24.5933 11.675 24.6129 11.69C24.6305 11.7035 24.6432 11.7148 24.6524 11.725L24.6458 11.738L24.6387 11.7519L24.6336 11.7619C24.6238 11.7803 24.6179 11.7888 24.6147 11.7928C23.6307 12.3456 22.515 12.6656 21.3713 12.8912C18.7512 13.3823 16.2476 14.2008 13.8173 15.0653L13.8131 15.0669C12.1006 15.7279 10.5662 16.5518 9.21277 17.5183L7.65623 17.1433Z" fill="black"/>
<path d="M14.5393 2.52607C15.4024 4.5963 16.6738 6.38841 18.0103 8.13234C18.0754 8.18137 18.0263 8.31155 18.0433 8.40961C17.1464 8.75197 16.2013 9.06136 15.3213 9.46881C13.9036 10.1375 12.7143 10.9355 11.524 11.7664C11.0515 11.7504 10.9864 11.2778 10.7091 11.0327C9.47071 9.517 8.03618 8.11543 6.63545 6.71471C6.61855 6.60059 6.58643 6.55156 6.58643 6.42138C7.43345 5.49236 8.65666 4.8406 9.79701 4.12376C11.1174 3.37394 12.5511 2.70613 14.0668 2.29868C14.3103 2.23274 14.4574 2.36377 14.5393 2.52607Z" fill="#2851A9"/>
<path d="M2.15325 12.7116C3.76699 14.032 5.08656 15.5468 6.30892 17.1445C6.34189 17.2257 6.35795 17.2908 6.34189 17.3888C6.30892 17.4869 6.2117 17.5841 6.19564 17.6982C6.06546 17.8614 5.98346 18.0727 5.85328 18.2198C5.64195 18.3018 5.55995 18.0896 5.44583 18.0085C4.3376 16.5579 3.01803 15.2383 1.64858 13.983C1.50234 13.901 1.58349 13.6567 1.56658 13.4935H1.5835C1.61646 13.2002 1.74664 13.037 1.82779 12.7927C1.87598 12.7116 2.03828 12.6144 2.15325 12.7116Z" fill="#2851A9"/>
<path d="M26.9572 13.055C27.1364 13.1851 27.3478 13.2993 27.3807 13.5436C27.0223 13.7879 26.4027 13.8859 26.5337 14.4887C26.5988 14.6028 26.7129 14.6839 26.86 14.733C27.1043 14.7499 27.2506 14.5377 27.4627 14.4557C28.7502 14.2435 29.3368 15.3357 29.8914 16.0204C30.4451 16.8683 31.0157 17.6663 31.3741 18.6604C31.5854 19.0188 31.7165 19.4263 31.8467 19.8506C32.0749 20.2251 32.1239 20.7467 32.2541 21.1871C32.3192 21.6275 32.4164 22.051 32.4654 22.5236C32.4003 22.9961 32.6446 23.2734 32.5635 23.778C32.4494 24.0553 32.074 23.8922 31.8137 23.9082C30.7384 23.68 29.7113 23.3216 28.505 23.4196C28.1956 23.2074 28.2278 22.7839 28.0164 22.5227C27.7231 22.0823 27.3976 21.6258 26.778 21.3984C26.4196 21.3815 26.0603 21.4956 25.7188 21.5937C25.7027 21.6427 25.6698 21.7569 25.7357 21.7729C26.3055 22.2455 26.9741 22.6529 26.9251 23.5659C26.8761 23.5659 26.8761 23.6149 26.8761 23.647C26.8431 24.1196 26.1914 24.1847 25.882 24.4619C25.849 24.7071 25.947 24.8694 26.0451 25.0165C26.5016 25.489 27.1373 25.0494 27.6098 24.8863C28.3267 24.0224 29.9404 24.2176 30.9506 24.5439C32.4494 25.2447 34.3074 24.7231 35.3996 23.7611C35.5137 23.6639 35.5458 23.8262 35.5627 23.8913V24.0866H35.5458C35.5788 24.3478 35.3996 24.429 35.4157 24.6572C35.3827 24.7553 35.3176 24.8364 35.3176 24.9345C34.6329 26.7105 33.2152 28.1772 30.9497 28.5846C29.9066 28.7148 28.8635 28.5686 28.0004 28.096C27.8212 28.0631 27.8372 28.2101 27.7552 28.2913C27.1204 29.6768 26.0282 30.7681 24.5125 31.534C22.6223 32.414 19.7381 32.2508 18.2875 30.8653C18.2545 30.7512 18.3365 30.7191 18.3686 30.654C19.8513 30.8822 21.1878 30.0513 21.7584 29.0403C22.1168 28.5187 22.3451 27.8991 22.7847 27.4265C23.4364 26.7748 24.2192 26.09 25.2784 25.8136C25.4246 25.7316 25.4897 25.6183 25.4897 25.4222C25.4246 25.2591 25.3595 25.1128 25.1643 25.0477C23.5835 24.9657 22.5564 26.0909 21.7745 26.9709C21.5792 27.2482 21.4 27.5246 21.2368 27.834V27.916C21.2039 28.014 21.1067 28.0952 21.0906 28.2093C21.0255 28.2414 21.0416 28.3065 21.0094 28.3716C20.7482 29.0234 20.0965 29.4798 19.3145 29.6751C18.0761 29.9034 16.8377 29.2026 16.2341 28.4206C16.0549 28.2575 16.0549 27.8991 15.7286 27.9151C15.6957 28.5508 16.0059 29.0073 16.2012 29.5289C16.9831 31.5171 19.2655 32.9668 21.8725 33.0488C23.258 33.0818 24.5125 32.7395 25.6047 32.1038C26.4678 31.7124 27.1035 31.1418 27.658 30.5061C28.0646 30.2457 28.6352 30.7183 28.8474 30.1967C29.0587 30.0175 29.1078 29.6751 29.4341 29.561C30.0698 29.5779 30.7545 29.5779 31.3733 29.4959C31.4874 29.5289 31.5034 29.6261 31.4874 29.7571H31.4705C30.183 32.6253 26.8583 34.988 22.8658 34.7607C19.3129 34.6626 16.2485 32.7073 14.2282 30.621C14.0489 30.4258 14.0489 30.0995 13.9509 29.8391C13.6736 29.5458 13.5764 30.0183 13.3482 30.0834C12.5823 30.5889 11.2788 30.5399 10.5129 29.9853C9.86116 29.4477 9.24237 28.8281 9.4537 27.7689C9.50273 27.7858 9.48667 27.7359 9.48667 27.7038C9.63292 27.1822 10.1063 26.8407 10.709 26.6776C10.8882 26.6446 11.1325 26.5964 11.1985 26.4332C11.1985 26.1399 10.9373 26.0097 10.693 25.9117C10.2855 25.6674 9.63376 26.2701 9.58473 25.6183C9.51964 25.4391 9.48667 25.227 9.47061 24.9827L9.4537 24.5591H9.47061L9.48667 24.2979H9.50273C9.63291 23.7764 9.76394 23.2717 9.97528 22.8313C10.3667 22.1144 10.8392 21.4458 11.3608 20.8101C12.3059 19.7838 13.4462 18.8709 14.6694 18.0238C15.7286 17.258 17.0651 16.6383 18.3196 16.1007C17.0482 16.0677 15.989 16.6874 14.8977 17.1439C11.6871 18.7407 9.07922 20.745 7.71062 23.6462C7.20596 24.5262 7.04281 26.2532 7.69456 27.134L8.02085 27.6066C8.08594 27.6725 8.05382 27.8188 8.05382 27.9329C7.74443 28.1281 7.38516 27.8348 7.10874 27.6886C6.01657 27.0199 5.65814 25.6353 5.93541 24.2176C6.47305 22.2133 7.79347 20.7627 9.34128 19.4753C11.4597 17.6502 14.442 16.1836 17.4083 15.3196C19.853 14.3906 22.5902 14.1953 25.0189 13.2012C25.4914 13.0871 25.8659 12.6796 26.3883 12.7118L26.9572 13.055Z" fill="#FFD3AF"/>
<path d="M27.6098 24.8863C27.1373 25.0494 26.5016 25.489 26.0451 25.0165L25.4897 25.4222C25.4897 25.6183 25.4246 25.7316 25.2784 25.8136C24.2192 26.09 23.4364 26.7748 22.7847 27.4265C22.3451 27.8991 22.1168 28.5187 21.7584 29.0403C21.1878 30.0513 19.8513 30.8822 18.3686 30.654C18.3365 30.7191 18.2545 30.7512 18.2875 30.8653C19.7381 32.2508 22.6223 32.414 24.5125 31.534C26.0282 30.7681 27.1204 29.6768 27.7552 28.2913C27.8372 28.2101 27.8212 28.0631 28.0004 28.096C28.8635 28.5686 29.9066 28.7148 30.9497 28.5846C33.2152 28.1772 34.6329 26.7105 35.3176 24.9345C35.3176 24.8364 35.3827 24.7553 35.4157 24.6572C35.3996 24.429 35.5788 24.3478 35.5458 24.0866H35.5627V23.8913C35.5458 23.8262 35.5137 23.6639 35.3996 23.7611C34.3074 24.7231 32.4494 25.2447 30.9506 24.5439C29.9404 24.2176 28.3267 24.0224 27.6098 24.8863Z" fill="#FEF8EA"/>
<path d="M27.3807 13.5436C27.3478 13.2993 27.1364 13.1851 26.9572 13.055L26.3883 12.7118C25.8659 12.6796 25.4914 13.0871 25.0189 13.2012C22.5902 14.1953 19.853 14.3906 17.4083 15.3196C14.442 16.1836 11.4597 17.6502 9.34128 19.4753C7.79347 20.7627 6.47305 22.2133 5.93541 24.2176C5.65814 25.6353 6.01657 27.0199 7.10874 27.6886C7.38516 27.8348 7.74443 28.1281 8.05382 27.9329C8.05382 27.8188 8.08594 27.6725 8.02085 27.6066L7.69456 27.134C7.04281 26.2532 7.20596 24.5262 7.71062 23.6462C9.07922 20.745 11.6871 18.7407 14.8977 17.1439C15.989 16.6874 17.0482 16.0677 18.3196 16.1007L27.3807 13.5436Z" fill="black"/>
<path d="M12.6644 13.7383C12.8596 14.0967 13.0718 14.439 13.2189 14.8304L13.1699 14.9446C11.1165 15.7595 9.35655 16.8998 7.77577 18.0901H7.74365C7.74365 17.9108 7.90595 17.8128 7.97188 17.6665C9.06406 15.9556 10.4977 14.505 12.1605 13.1846C12.4361 13.2818 12.502 13.5591 12.6644 13.7383Z" fill="black"/>
<path d="M21.1146 20.7099C21.1266 20.6231 20.9733 20.6283 20.986 20.542C20.8367 20.4743 20.7028 20.5102 20.5641 20.5239C20.4453 20.9257 20.2406 21.5406 19.789 21.6381C19.2298 21.8239 18.6579 21.8694 18.0708 21.6808C18.0463 21.7233 18.006 21.6629 17.9694 21.6603C17.7659 21.5243 17.5416 21.6203 17.3925 21.4219C17.3585 21.3828 17.2494 21.3774 17.2757 21.2979C17.2128 21.3748 17.1147 21.1864 17.0979 21.3456C17.1715 21.5765 17.3367 21.7469 17.5991 21.879C17.7013 21.9946 17.9315 22.0523 18.0183 22.1961C18.143 22.1745 18.2749 22.3062 18.3957 22.3574L18.4041 22.3428C19.0516 22.6229 19.6346 22.5261 20.235 22.3652C20.8029 22.1288 21.4372 21.2905 21.1146 20.7099Z" fill="black"/>
<path d="M29.8086 17.9103C29.9388 18.0244 29.8737 18.2687 29.8906 18.4648C29.7435 18.6601 29.5803 18.8393 29.32 18.9374C29.0748 18.9864 28.8145 18.9534 28.6513 18.8232C28.5042 18.628 28.325 18.4648 28.3419 18.1546H28.3588C28.3749 17.8773 28.538 17.7311 28.7333 17.5848C28.8965 17.5028 29.1247 17.4217 29.32 17.5028C29.5322 17.5848 29.6953 17.764 29.8086 17.9103Z" fill="black"/>
<path d="M12.5503 23.0277C12.1099 23.4022 11.5072 23.6465 11.0347 23.9888C10.7413 24.0539 10.7253 23.7775 10.5942 23.6634V23.5814C11.0507 23.239 11.5723 22.8806 12.159 22.6523C12.372 22.7014 12.4692 22.8975 12.5503 23.0277Z" fill="black"/>
<path d="M13.121 24.104C12.4362 24.4134 11.8335 24.8538 11.1978 25.1962C11.0347 25.0981 10.8884 24.968 10.8555 24.7727C11.328 24.2841 12.0449 23.9578 12.6805 23.6323C12.9418 23.6797 13.0719 23.8758 13.121 24.104Z" fill="black"/>
</svg>
