<svg width="86" height="41" viewBox="0 0 86 41" fill="none" xmlns="http://www.w3.org/2000/svg">
<g clip-path="url(#clip0_120_950)">
<path fill-rule="evenodd" clip-rule="evenodd" d="M0.61084 17.9843C2.74353 7.88935 20.7435 0 42.4116 0C65.4447 0 84.383 8.99216 84.383 20.0203C84.3743 21.3298 84.1137 22.6256 83.6153 23.8377L83.8712 21.8017C83.8712 10.7736 64.9329 1.78147 41.8145 1.78147C21.4259 1.69663 4.27907 8.73766 0.61084 17.9843Z" fill="#696969"/>
<path fill-rule="evenodd" clip-rule="evenodd" d="M84.8967 22.141C82.764 32.236 64.7641 40.1253 43.0959 40.1253C20.0628 40.1253 1.12451 31.218 1.12451 20.105C1.12451 18.8325 1.38043 17.5601 1.89228 16.2876L1.63636 18.3236C1.63636 29.3517 20.5747 38.3438 43.6931 38.3438C64.1669 38.3438 81.2285 31.3876 84.8967 22.0562V22.141Z" fill="#696969"/>
<path d="M6.58057 25.9586V25.4496H7.09241C7.43364 25.4496 7.86018 25.4496 8.20141 25.1103C8.45734 24.771 8.62795 24.262 8.71326 23.753L10.9313 13.7429L11.1019 13.2339V12.8097C11.1236 12.691 11.1196 12.5691 11.0902 12.4521C11.0608 12.335 11.0066 12.2256 10.9313 12.1311C10.7547 12.0144 10.546 11.9551 10.3341 11.9614H9.65164V11.5372H17.3293L17.244 11.9614H16.7322C16.3056 11.9614 15.8791 11.9614 15.6232 12.3007C15.3392 12.7024 15.163 13.1696 15.1113 13.658L12.8933 23.8378L12.808 24.3468V24.6861C12.7933 24.7915 12.8009 24.8987 12.8303 25.001C12.8596 25.1032 12.9102 25.1983 12.9786 25.28C13.2346 25.4496 13.4052 25.4496 13.6611 25.4496H14.2583V25.8738H6.58057V25.9586ZM26.2013 16.4575L24.0687 25.28L23.3862 27.8249C23.2259 28.3078 22.996 28.765 22.7037 29.1822C22.3005 29.7213 21.7742 30.1575 21.1682 30.4547C20.5265 30.7475 19.8267 30.8924 19.1208 30.8789C18.3618 30.936 17.6069 30.7258 16.9881 30.285C16.7436 30.0749 16.5481 29.8142 16.4155 29.5212C16.2829 29.2281 16.2163 28.9097 16.2203 28.5884C16.2203 28.0794 16.3056 27.7401 16.5616 27.4008C16.6733 27.2596 16.8159 27.1455 16.9784 27.067C17.1409 26.9885 17.3193 26.9478 17.5 26.9478C17.6806 26.9478 17.859 26.9885 18.0215 27.067C18.1841 27.1455 18.3266 27.2596 18.4383 27.4008C18.609 27.6553 18.7796 28.0794 18.6943 28.5036C18.6943 28.8429 18.6943 29.1822 18.4383 29.5215C18.3507 29.6392 18.2339 29.7323 18.0994 29.7917C17.9648 29.8512 17.8171 29.875 17.6706 29.8609H17.244C17.3293 30.1154 17.5 30.285 17.7559 30.4547L18.5236 30.6244C19.3767 30.6244 20.2298 29.0974 20.9976 25.9586L21.2535 24.6013L21.5947 23.4137C21.2668 24.1939 20.8049 24.9115 20.2298 25.5345C20.0334 25.7451 19.796 25.9139 19.5321 26.0305C19.2681 26.1472 18.9831 26.2093 18.6943 26.2131C18.3425 26.2195 17.996 26.1275 17.6944 25.9475C17.3927 25.7675 17.148 25.5068 16.9881 25.1951C16.5401 24.4243 16.3322 23.5386 16.391 22.6502C16.3855 21.7561 16.5296 20.8674 16.8175 20.0204C17.1587 19.1721 17.5853 18.3238 18.1824 17.7299C18.571 17.3105 19.0336 16.9655 19.5473 16.712C19.9637 16.4686 20.4306 16.3235 20.9123 16.2878C21.1458 16.2768 21.3783 16.3256 21.5874 16.4296C21.7966 16.5336 21.9753 16.6892 22.1066 16.8816C22.4478 17.3906 22.6184 17.9844 22.6184 18.5783L23.1303 16.5423H26.2013V16.4575ZM20.7416 18.4086L19.3767 24.0923V24.5165C19.366 24.601 19.366 24.6865 19.3767 24.771C19.3377 24.8808 19.3377 25.0005 19.3767 25.1103C19.4101 25.1692 19.4605 25.2168 19.5213 25.247C19.5821 25.2772 19.6506 25.2887 19.718 25.28C19.8886 25.28 20.0592 25.1951 20.3151 24.9406L20.9976 23.8378C21.8458 22.2352 22.3402 20.471 22.4478 18.6631C22.4662 18.2601 22.4083 17.8572 22.2772 17.4754C22.1066 17.1361 21.936 16.9665 21.7653 16.9665C21.6571 16.9715 21.5523 17.0058 21.4621 17.0655C21.3719 17.1253 21.2998 17.2084 21.2535 17.3058L20.7416 18.4086ZM26.7132 25.9586L28.59 18.2389V17.9844C28.5975 17.8998 28.5975 17.8146 28.59 17.7299C28.6027 17.6104 28.5725 17.4902 28.5047 17.3906C28.4742 17.3542 28.4341 17.3269 28.3888 17.3119C28.3436 17.297 28.2951 17.2948 28.2487 17.3058C28.0781 17.3058 27.9075 17.5603 27.5663 18.1541C27.212 18.89 26.9264 19.6567 26.7132 20.4446L26.5426 20.3597C26.8266 19.2479 27.2874 18.1883 27.9075 17.221C28.0916 16.9368 28.344 16.7027 28.6419 16.5398C28.9397 16.3769 29.2737 16.2903 29.6137 16.2878C29.8329 16.2909 30.0481 16.3465 30.2412 16.4499C30.4342 16.5533 30.5993 16.7014 30.7227 16.8816C31.0639 17.3906 31.2345 17.9844 31.1492 18.5783V19.4266L31.0639 20.6991C31.4067 19.4324 31.8932 18.2086 32.5141 17.0513C32.6582 16.8197 32.859 16.6283 33.0977 16.4947C33.3364 16.3612 33.6052 16.29 33.879 16.2878C34.3056 16.2878 34.7321 16.4575 34.9027 16.7968C35.1587 17.221 35.244 17.7299 35.244 18.2389C35.2159 18.7585 35.0382 19.2591 34.7321 19.6811C34.6421 19.8535 34.508 19.9992 34.3432 20.1034C34.1784 20.2077 33.9889 20.2669 33.7937 20.2749C33.6198 20.2692 33.4501 20.2194 33.3008 20.1304C33.1516 20.0413 33.0276 19.9159 32.9407 19.7659C32.5908 19.1467 32.4989 18.4158 32.6847 17.7299L32.9407 17.1361C32.6847 17.1361 32.1729 17.9844 31.5757 19.6811C30.8534 21.7293 30.2831 23.8274 29.8696 25.9586H26.7132ZM40.1918 16.2878C40.7393 16.2767 41.2827 16.3848 41.7838 16.6046C42.2848 16.8244 42.7314 17.1506 43.0923 17.5603C43.8828 18.414 44.3108 19.5387 44.2866 20.6991C44.3119 22.1091 43.7929 23.4753 42.8363 24.5165C42.404 25.0469 41.8579 25.4746 41.238 25.7681C40.6181 26.0617 39.94 26.2137 39.2534 26.2131C38.7059 26.2243 38.1625 26.1161 37.6615 25.8963C37.1604 25.6765 36.7138 25.3503 36.353 24.9406C35.5879 24.0435 35.1918 22.8922 35.244 21.717C35.2187 20.307 35.7376 18.9408 36.6942 17.8996C37.1255 17.3957 37.6615 16.9906 38.2653 16.7124C38.8691 16.4342 39.5263 16.2893 40.1918 16.2878ZM41.3008 18.4934L41.3861 17.8996C41.3947 17.815 41.3947 17.7297 41.3861 17.6451C41.4117 17.406 41.3512 17.1655 41.2155 16.9665C41.1407 16.8832 41.0485 16.8173 40.9453 16.7733C40.8422 16.7293 40.7305 16.7084 40.6184 16.712C40.4859 16.712 40.3553 16.7426 40.2368 16.8015C40.1184 16.8604 40.0154 16.9459 39.9359 17.0513L39.5093 18.1541L38.1444 24.0075C38.1435 24.0358 38.1435 24.0641 38.1444 24.0923C38.0877 24.3429 38.0591 24.599 38.0591 24.8558C38.0591 25.1103 38.0591 25.3648 38.2297 25.5345C38.4003 25.7041 38.571 25.789 38.8269 25.789C38.9593 25.789 39.0899 25.7583 39.2084 25.6994C39.3269 25.6405 39.4299 25.555 39.5093 25.4496C39.7653 25.1103 39.8506 24.6861 39.9359 24.3468L41.3008 18.4934ZM45.9927 24.771C46.1634 25.1103 46.5046 25.3648 46.8458 25.4496C47.3577 25.7041 47.8695 25.789 48.3814 25.789C48.8079 25.789 49.2344 25.7041 49.5757 25.4496C49.8316 25.1103 50.0022 24.6861 49.9169 24.3468C49.9169 23.753 49.4904 23.1592 48.552 22.6502L47.8695 22.1412C47.2849 21.8484 46.7633 21.445 46.334 20.9535C46.0081 20.5421 45.8282 20.0351 45.8221 19.5114C45.8121 19.0575 45.9068 18.6074 46.099 18.1956C46.2913 17.7838 46.576 17.4214 46.9311 17.1361C47.697 16.5059 48.6673 16.1742 49.661 16.203C50.5108 16.1597 51.351 16.3984 52.0496 16.8816C52.342 17.0782 52.5808 17.3438 52.7446 17.6547C52.9084 17.9656 52.992 18.3121 52.988 18.6631C52.988 19.0024 52.988 19.3417 52.732 19.5114C52.6263 19.6302 52.4941 19.7227 52.3459 19.7816C52.1978 19.8405 52.0379 19.8642 51.879 19.8507C51.5343 19.8595 51.1991 19.7383 50.9406 19.5114C50.8171 19.3737 50.7232 19.2124 50.6645 19.0374C50.6058 18.8623 50.5837 18.6773 50.5994 18.4934C50.5994 18.2389 50.5994 17.8996 50.8553 17.6451C50.9347 17.5398 51.0378 17.4542 51.1562 17.3953C51.2747 17.3364 51.4053 17.3058 51.5377 17.3058H51.9643C51.7371 17.0556 51.4401 16.8784 51.1112 16.7968C50.7607 16.644 50.3846 16.5577 50.0022 16.5423C49.7983 16.5362 49.5952 16.5706 49.4048 16.6434C49.2144 16.7162 49.0404 16.826 48.8932 16.9665C48.7544 17.097 48.6448 17.2551 48.5713 17.4304C48.4978 17.6058 48.4622 17.7945 48.4667 17.9844C48.4667 18.5783 48.9785 19.1721 49.9169 19.7659L50.3434 20.0204C50.937 20.3721 51.4581 20.8327 51.879 21.3777C52.1349 21.8019 52.3055 22.3109 52.3055 22.9047C52.3192 23.3384 52.2342 23.7697 52.0569 24.1663C51.8797 24.5628 51.6147 24.9145 51.2818 25.1951C50.5299 25.7723 49.6142 26.0994 48.6648 26.1298C47.7154 26.1603 46.7805 25.8926 45.9927 25.3648C45.6868 25.1416 45.4411 24.8467 45.2774 24.5063C45.1137 24.1659 45.0371 23.7906 45.0544 23.4137C45.0357 23.0833 45.1255 22.7558 45.3103 22.4805C45.5662 22.226 45.9074 22.0564 46.1634 22.0564C46.3526 22.0305 46.5452 22.0471 46.7271 22.1049C46.909 22.1626 47.0756 22.2602 47.2147 22.3904C47.3537 22.5205 47.4618 22.68 47.5308 22.857C47.5998 23.0341 47.6281 23.2243 47.6136 23.4137C47.6136 23.7808 47.4939 24.138 47.2724 24.4316C47.1847 24.5493 47.0679 24.6424 46.9334 24.7018C46.7989 24.7613 46.6511 24.7851 46.5046 24.771H45.9927ZM58.7036 16.2878C59.2511 16.2767 59.7945 16.3848 60.2955 16.6046C60.7966 16.8244 61.2432 17.1506 61.6041 17.5603C62.3637 18.427 62.7606 19.5503 62.7131 20.6991C62.7384 22.1091 62.2194 23.4753 61.2628 24.5165C60.8396 25.0359 60.3072 25.457 59.703 25.7501C59.0988 26.0432 58.4374 26.2012 57.7652 26.2131C57.2168 26.2302 56.6716 26.1248 56.1696 25.9045C55.6676 25.6843 55.2217 25.3549 54.8647 24.9406C54.0997 24.0435 53.7036 22.8922 53.7557 21.717C53.7276 21.0037 53.8412 20.2919 54.0901 19.6223C54.3389 18.9527 54.7181 18.3385 55.206 17.8148C55.6322 17.3328 56.1572 16.9472 56.7458 16.6838C57.3344 16.4204 57.9729 16.2854 58.6183 16.2878H58.7036ZM59.8126 18.4934L59.8979 17.8996V17.6451C59.8992 17.3953 59.8081 17.1538 59.642 16.9665C59.5107 16.8192 59.3273 16.728 59.1301 16.712C58.9977 16.712 58.8671 16.7426 58.7486 16.8015C58.6302 16.8604 58.5271 16.9459 58.4477 17.0513C58.1917 17.3906 58.1064 17.7299 58.0211 18.1541L56.6562 24.0075C56.6553 24.0358 56.6553 24.0641 56.6562 24.0923C56.5706 24.3396 56.5134 24.5957 56.4856 24.8558C56.4856 25.1103 56.4856 25.3648 56.7415 25.5345C56.8268 25.7041 57.0827 25.789 57.2534 25.789C57.3858 25.789 57.5164 25.7583 57.6349 25.6994C57.7533 25.6405 57.8564 25.555 57.9358 25.4496C58.1917 25.1103 58.3624 24.771 58.4477 24.3468L59.8126 18.4934ZM68.0874 17.0513C67.6609 19.9356 67.1491 22.4805 66.7225 24.6861L65.4429 30.8789H61.4334L61.5187 30.5395C61.6608 30.5386 61.7999 30.4984 61.9203 30.4235C62.0408 30.3486 62.1381 30.2419 62.2012 30.1154C62.4571 29.4367 62.7131 28.8429 62.7984 28.1642L65.6988 17.1361H63.9927L64.1633 16.4575H65.8694C66.1969 15.1698 66.7767 13.959 67.5756 12.8945C67.8581 12.5305 68.2197 12.2347 68.6333 12.029C69.0469 11.8234 69.5018 11.7133 69.9642 11.7069C70.2204 11.708 70.4737 11.7612 70.7085 11.8634C70.9432 11.9655 71.1544 12.1143 71.3291 12.3007C71.6704 12.64 71.9263 13.149 71.9263 13.658C71.9263 14.0251 71.8065 14.3823 71.5851 14.676C71.494 14.8161 71.3668 14.9293 71.2167 15.0039C71.0667 15.0785 70.8993 15.1117 70.732 15.1002C70.5871 15.1008 70.4438 15.0709 70.3115 15.0124C70.1791 14.9539 70.0608 14.8682 69.9642 14.7608C69.7369 14.4702 69.6165 14.111 69.623 13.7429C69.6105 13.3478 69.7306 12.9598 69.9642 12.64C70.0437 12.5347 70.1467 12.4492 70.2652 12.3903C70.3836 12.3314 70.5142 12.3007 70.6467 12.3007C70.564 12.265 70.4784 12.2366 70.3908 12.2159C70.278 12.1951 70.1623 12.1951 70.0495 12.2159C69.7083 12.2159 69.3671 12.4704 69.1964 12.9794C68.7887 14.1635 68.5029 15.3856 68.3434 16.6271H70.1348L69.9642 17.1361H68.2581L68.0874 17.0513Z" fill="#696969"/>
<path d="M71.844 17.0511H70.3938L70.4791 16.4573H71.9293L73.1236 11.8763H76.1094L75.0004 16.4573H76.536L76.4506 17.0511H74.8298L73.1236 23.8376V24.3466C73.1165 24.4313 73.1165 24.5164 73.1236 24.6011L73.209 25.0253L73.4649 25.1949C73.7208 25.1949 74.062 24.9404 74.318 24.3466C74.7369 23.5313 75.0796 22.6794 75.3416 21.8017L75.5976 21.9713C75.351 23.1218 74.8879 24.2155 74.2326 25.1949C74.0032 25.4938 73.7057 25.7342 73.3646 25.8965C73.0235 26.0587 72.6485 26.1381 72.2706 26.1281C72.0194 26.1488 71.7667 26.1138 71.5307 26.0258C71.2947 25.9378 71.0812 25.7989 70.9056 25.6191C70.5853 25.1768 70.434 24.6354 70.4791 24.0921V23.159C70.4791 22.7348 70.6497 22.3106 70.8203 21.8017L71.844 17.0511ZM80.2042 0.424072C80.8866 0.424072 81.4838 0.593736 82.081 0.933062C82.6235 1.26155 83.0659 1.73078 83.3606 2.29037C83.7018 2.88419 83.8724 3.56284 83.8724 4.15667C83.862 4.81163 83.686 5.45344 83.3606 6.02296C83.0464 6.5966 82.5725 7.0679 81.9956 7.38027C81.425 7.70787 80.7778 7.88034 80.1189 7.88034C79.46 7.88034 78.8127 7.70787 78.2421 7.38027C77.6652 7.0679 77.1913 6.5966 76.8772 6.02296C76.5446 5.4564 76.3681 4.81268 76.3653 4.15667C76.3653 3.56284 76.536 2.88419 76.8772 2.29037C77.1913 1.71673 77.6652 1.24543 78.2421 0.933062C78.8148 0.609448 79.4602 0.434406 80.1189 0.424072H80.2042ZM80.2042 1.10273C79.6648 1.11484 79.137 1.26064 78.6686 1.52688C78.1526 1.73685 77.7083 2.09028 77.389 2.54486C77.1034 3.03409 76.956 3.59099 76.9625 4.15667C76.9625 4.66566 77.1331 5.25948 77.389 5.68364C77.6677 6.18274 78.0814 6.59418 78.5833 6.87128C79.0517 7.13753 79.5795 7.28332 80.1189 7.29544C80.6582 7.28332 81.186 7.13753 81.6544 6.87128C82.1592 6.59796 82.5739 6.18557 82.8487 5.68364C83.1046 5.25948 83.2753 4.66566 83.2753 4.15667C83.2631 3.62031 83.1165 3.09546 82.8487 2.6297C82.5739 2.12776 82.1592 1.71538 81.6544 1.44205C81.186 1.17581 80.6582 1.03001 80.1189 1.01789L80.2042 1.10273ZM78.498 6.27746V2.20554H79.9483C80.2964 2.20706 80.6421 2.26434 80.972 2.3752C81.3985 2.54486 81.6544 2.88419 81.6544 3.30835C81.6544 3.64768 81.5691 3.90217 81.3132 4.15667C81.1426 4.32633 80.8013 4.49599 80.4601 4.49599L80.8013 4.66566L81.4838 5.51397L81.9103 6.36229H81.1426L80.8013 5.68364C80.6307 5.25948 80.3748 5.00498 80.1189 4.75049C79.9483 4.62133 79.7351 4.56076 79.5217 4.58082H79.1805V6.27746H78.5833H78.498ZM79.1805 4.07183H80.0336C80.3007 4.09142 80.5677 4.03241 80.8013 3.90217C80.861 3.84958 80.9076 3.78384 80.9372 3.7102C80.9668 3.63655 80.9787 3.55704 80.972 3.47801C81.011 3.36823 81.011 3.24847 80.972 3.13869C80.8799 3.04655 80.7601 2.98695 80.6307 2.96902C80.4114 2.89497 80.1792 2.86611 79.9483 2.88419H79.1805V4.07183Z" fill="#696969"/>
</g>
<defs>
<clipPath id="clip0_120_950">
<rect width="84.4547" height="40.7192" fill="white" transform="translate(0.615723)"/>
</clipPath>
</defs>
</svg>
