<svg width="97" height="37" viewBox="0 0 97 37" fill="none" xmlns="http://www.w3.org/2000/svg">
<g clip-path="url(#clip0_120_943)">
<path d="M82.1011 7.96573H95.7541V11.921H90.9915V28.6921H86.8637V11.921H82.1011V7.96573ZM64.4799 7.96573H68.1314L76.2288 20.6232V7.96573H80.3552V28.6906H76.7037L68.6078 16.0346V28.6921H64.4799V7.96716V7.96573ZM51.463 7.96573H62.2576V11.921H52.7353V16.3513H60.8313V20.3065H52.7353V24.7368H62.2591V28.6921H51.4644V35.6527H50.6714V0.530151H51.4644L51.463 7.96573ZM18.6355 7.95004H32.2186V11.9153H22.9003V16.3555H30.9549V20.3208H22.9003V24.7625H32.2186V28.7277H18.6355V7.95004ZM0.630615 7.95004H4.42186L12.3182 20.6389V7.95004H16.4246V28.7292H12.7917L4.73851 16.0389V28.7277H0.630615V7.95004ZM34.1143 7.95004H47.6974V11.9153H42.9591V28.7292H38.8512V11.9153H34.1143V7.95004Z" fill="#696969"/>
</g>
<defs>
<clipPath id="clip0_120_943">
<rect width="95.5657" height="35.6588" fill="white" transform="translate(0.630615 0.530151)"/>
</clipPath>
</defs>
</svg>
