<svg width="116" height="38" viewBox="0 0 116 38" fill="none" xmlns="http://www.w3.org/2000/svg">
<g clip-path="url(#clip0_238_4357)">
<path d="M50.2237 37.4518H40.835L46.7073 0.666748H56.0955L50.2237 37.4518Z" fill="#00579F"/>
<path d="M84.2583 1.56608C82.4064 0.821791 79.4692 0 75.8374 0C66.5657 0 60.0367 5.00876 59.9966 12.1698C59.9196 17.4532 64.6712 20.3877 68.225 22.1493C71.8574 23.9495 73.0922 25.1244 73.0922 26.729C73.0552 29.1933 70.157 30.3293 67.4539 30.3293C63.7055 30.3293 61.697 29.7436 58.6448 28.3726L57.4085 27.7848L56.0947 36.0423C58.2967 37.0586 62.3537 37.9605 66.5657 38C76.417 38 82.8305 33.0688 82.9065 25.4375C82.944 21.2501 80.4349 18.0414 75.0257 15.4195C71.7419 13.7364 69.7309 12.6015 69.7309 10.8794C69.7694 9.3138 71.4318 7.71027 75.1386 7.71027C78.1908 7.63173 80.4334 8.37498 82.1323 9.11875L82.9814 9.50937L84.2583 1.56608Z" fill="#00579F"/>
<path d="M96.7368 24.4201C97.51 22.3069 100.485 14.128 100.485 14.128C100.446 14.2065 101.257 11.9757 101.72 10.6063L102.377 13.7759C102.377 13.7759 104.155 22.581 104.541 24.4201C103.073 24.4201 98.5913 24.4201 96.7368 24.4201ZM108.326 0.666748H101.064C98.8243 0.666748 97.1229 1.33146 96.1567 3.71882L82.2109 37.4512H92.0622C92.0622 37.4512 93.6841 32.9111 94.0327 31.9333C95.1134 31.9333 104.697 31.9333 106.087 31.9333C106.357 33.2247 107.207 37.4512 107.207 37.4512H115.9L108.326 0.666748Z" fill="#00579F"/>
<path d="M32.9924 0.666748L23.7978 25.7506L22.793 20.6633C21.0931 14.7932 15.7619 8.41551 9.8125 5.24433L18.2345 37.4128H28.1628L42.9202 0.666748H32.9924Z" fill="#00579F"/>
<path d="M15.2601 0.666748H0.154535L0 1.41C11.7833 4.46259 19.5871 11.8207 22.7933 20.6649L19.5095 3.75886C18.9689 1.40948 17.3075 0.744246 15.2601 0.666748Z" fill="#FAA61A"/>
</g>
<defs>
<clipPath id="clip0_238_4357">
<rect width="115.9" height="38" fill="white"/>
</clipPath>
</defs>
</svg>
