<svg width="157" height="37" viewBox="0 0 157 37" fill="none" xmlns="http://www.w3.org/2000/svg">
<path d="M36.5662 13.4387C36.542 13.3802 36.5277 13.3232 36.5035 13.2619C35.0343 9.65889 29.4502 8.56773 23.013 10.2137L21.9575 9.55619C25.1255 8.18832 28.282 7.47371 30.9264 7.67055C34.8717 7.97008 36.8002 10.2137 36.5662 13.4387ZM30.8437 21.007C26.7158 26.2616 19.2574 29.8988 14.1825 29.5223C9.11465 29.14 8.34727 24.5728 12.4751 19.3182C12.5579 19.2097 12.6463 19.1042 12.7319 18.9958L12.7461 25.5841C12.7176 27.2587 14.3308 28.0446 15.4904 27.3799L30.6654 18.1257C31.8521 17.3555 31.7266 15.6367 30.6084 14.9749L24.4565 11.4333C26.1196 10.934 27.7157 10.6987 29.1349 10.8028C34.2056 11.1879 34.9687 15.7523 30.8437 21.007ZM11.5437 32.3522C6.88526 32.0013 5.02814 28.9318 6.24055 24.7497C6.23341 25.4486 6.34324 26.1161 6.60141 26.7366C8.42144 31.2111 16.593 31.8173 24.8502 28.1016C25.0199 28.026 25.1882 27.9433 25.3551 27.8677C20.7195 30.8602 15.5546 32.6488 11.5437 32.3522ZM16.9082 8.95712L27.0953 15.3771C27.8484 15.8279 27.9382 17.0032 27.138 17.5252L16.8469 23.7998C16.0624 24.2519 14.9598 23.7142 14.9812 22.5688L14.9313 10.1096C14.977 9.06838 16.0054 8.44078 16.9082 8.95712ZM40.4887 11.2664C38.3535 6.02169 29.4872 4.86634 19.8922 8.26106L15.6345 5.59378C14.308 4.83496 12.7946 5.75781 12.7205 7.29114L12.7233 11.6244C4.45475 16.5796 -0.340649 23.7127 1.70189 28.7335C4.06678 34.5331 14.6646 35.3275 25.3736 30.505C36.0841 25.684 42.8508 17.0674 40.4887 11.2664ZM48.9998 18.8289L48.0755 22.235C47.9371 22.7542 47.8302 23.2264 47.746 23.6329C47.6576 24.0608 47.6219 24.3674 47.6219 24.5571C47.6219 24.9209 47.7217 25.199 47.9243 25.4101C48.1368 25.6184 48.4178 25.7196 48.7644 25.7196C49.3064 25.7196 49.8713 25.4144 50.4561 24.8025C51.038 24.1891 51.5957 23.3119 52.1392 22.1637C52.7727 20.7483 53.3051 19.2898 53.7324 17.7991C54.1275 16.3685 54.3358 15.2416 54.3358 14.44C54.3358 13.8581 54.2145 13.3888 53.9792 13.0393C53.7452 12.6856 53.4429 12.5045 53.0891 12.5045C52.2832 12.5045 51.5487 13.0265 50.8754 14.0521C50.2022 15.089 49.5774 16.6765 48.9998 18.8289ZM43.1874 10.9141C44.56 10.8039 45.9297 10.6598 47.2953 10.4819C48.5566 10.3229 49.8124 10.1231 51.0608 9.88282L50.0424 13.5343C51.0594 12.1222 52.0293 11.0838 52.9593 10.4462C53.8722 9.78726 54.8193 9.47346 55.8163 9.47346C57.1713 9.47346 58.2254 9.90137 58.9571 10.7558C59.6988 11.6173 60.0626 12.8411 60.0626 14.4243C60.0626 15.7608 59.8144 17.1715 59.3066 18.6435C58.7965 20.1094 58.0825 21.4961 57.1856 22.7628C56.133 24.2419 55.0218 25.3502 53.8337 26.0862C52.6398 26.825 51.3832 27.1988 50.0424 27.1988C49.4919 27.1988 48.9798 27.1217 48.492 26.9563C48.0216 26.7921 47.582 26.5506 47.1911 26.2417L46.1485 30.2012C46.0772 30.438 46.0201 30.6919 45.993 30.9401C45.9531 31.1826 45.9431 31.4293 45.9431 31.6747C45.9431 32.1496 46.0786 32.4948 46.361 32.6874C46.6434 32.8785 47.2168 32.9969 48.0741 33.0511V33.9754H38.352V33.0111C38.3999 33.0101 38.4477 33.0048 38.4947 32.9955C38.5398 32.9829 38.5862 32.9753 38.633 32.9726C39.2378 32.9726 39.6885 32.8186 39.9895 32.5005C40.2947 32.1839 40.6028 31.3609 40.9295 30.0187L44.7992 14.256C44.8662 14.005 44.919 13.7468 44.9603 13.5029C44.9988 13.2676 45.0217 13.075 45.0217 12.9438C45.0217 12.5102 44.8919 12.2206 44.638 12.0609C44.377 11.8826 43.892 11.8027 43.1874 11.8027V10.9141Z" fill="#696969"/>
<path d="M61.0246 2.22012C62.4254 2.10688 63.8225 1.95086 65.2138 1.75228C66.491 1.57578 67.7606 1.34737 69.0193 1.06763L63.6804 22.2062C63.6368 22.3512 63.5963 22.4972 63.5592 22.6441C63.5075 22.8207 63.4754 23.0024 63.4636 23.1861C63.4636 23.4343 63.5093 23.6325 63.6063 23.7695C63.7104 23.9121 63.8559 23.9806 64.0442 23.9806C64.2353 23.9806 64.4535 23.8479 64.7031 23.5769C64.9499 23.3116 65.4306 22.6113 66.1437 21.4773L66.9953 22.1249C65.9241 23.9192 64.8914 25.2229 63.9201 26.0302C62.9501 26.8361 61.9403 27.2369 60.8862 27.2369C59.9562 27.2369 59.2302 26.9802 58.7281 26.4553C58.2218 25.9318 57.9722 25.1759 57.9722 24.2017C57.9722 23.721 58.2332 22.4472 58.7453 20.3847L58.7966 20.1765L62.3411 6.4193L62.4752 5.85875C62.7005 4.95301 62.7989 4.36963 62.7989 4.1186C62.7989 3.77199 62.6834 3.51953 62.4424 3.35264C62.2056 3.19004 61.839 3.10303 61.3284 3.10303H61.0246V2.22012Z" fill="#696969"/>
<path d="M77.7432 13.1673C77.7432 12.661 77.6362 12.2602 77.4152 11.9592C77.3196 11.8187 77.1905 11.7042 77.0396 11.626C76.8887 11.5478 76.7207 11.5084 76.5508 11.5113C76.0416 11.5113 75.5523 11.7595 75.0788 12.2616C74.6052 12.7708 74.0618 13.6095 73.4399 14.7848C72.7125 16.1855 72.1419 17.5491 71.734 18.8956C71.3132 20.2534 71.105 21.4017 71.105 22.3545C71.105 22.9321 71.2205 23.38 71.4502 23.7181C71.5538 23.8698 71.6937 23.9933 71.857 24.0774C72.0204 24.1616 72.2021 24.2038 72.3858 24.2002C72.9592 24.2002 73.544 23.8593 74.1502 23.1632C74.755 22.47 75.327 21.4944 75.8676 20.2363C76.4381 18.8356 76.8846 17.4692 77.2283 16.1684C77.5692 14.8561 77.7432 13.8577 77.7432 13.1673ZM84.1846 10.065L81.3362 20.5202V20.5587C80.9012 22.169 80.6829 23.1047 80.6829 23.3743C80.6829 23.6225 80.7257 23.8207 80.827 23.9762C80.9211 24.1331 81.0424 24.2002 81.2064 24.2002C81.6671 24.2002 82.269 23.6453 82.9922 22.5313C83.2104 22.2147 83.3773 21.9636 83.4928 21.7882L84.3201 22.44C83.3916 24.0718 82.4659 25.2785 81.5188 26.0473C80.5745 26.8175 79.5533 27.1998 78.4664 27.1998C77.5592 27.1998 76.866 26.9987 76.3996 26.6007C75.9189 26.1871 75.6836 25.6023 75.6836 24.8178C75.6836 24.5867 75.7007 24.2857 75.752 23.9334C75.7934 23.5768 75.8676 23.1133 75.966 22.5499C75.1073 24.1217 74.1688 25.2927 73.1561 26.0487C72.1912 26.8025 71 27.2082 69.7756 27.1998C68.4919 27.1998 67.4835 26.8004 66.7403 25.9988C65.9943 25.1886 65.6221 24.0889 65.6221 22.6897C65.6221 21.0793 65.9744 19.3848 66.6975 17.5919C67.4107 15.8218 68.3664 14.2371 69.5759 12.8763C70.5287 11.7838 71.5143 10.9436 72.5399 10.3545C73.5726 9.76546 74.5596 9.47449 75.5081 9.47449C76.4167 9.47449 77.1199 9.69557 77.6448 10.1349C78.1683 10.5799 78.512 11.256 78.6761 12.1575L79.201 10.065H84.1846Z" fill="#696969"/>
<path d="M82.5233 11.5127V10.5457C83.935 10.3851 85.3436 10.1977 86.7482 9.9837C88.1688 9.76546 88.9433 9.66134 89.0503 9.66134C89.6223 9.66134 90.3711 12.176 91.2783 17.2167C91.6449 19.2222 91.9472 20.8382 92.184 22.0478C93.2652 19.8569 94.0026 18.258 94.402 17.2581C94.8014 16.2639 94.9954 15.5237 94.9954 15.0515C94.9954 14.685 94.6616 14.2385 93.9983 13.7322C93.3365 13.2187 92.997 12.631 92.997 11.9792C92.997 11.226 93.2267 10.6184 93.696 10.1563C94.1524 9.7027 94.7657 9.47449 95.5331 9.47449C96.2891 9.47449 96.8881 9.7027 97.316 10.1563C97.7368 10.6184 97.955 11.2631 97.955 12.0833C97.955 13.1145 97.4587 14.7762 96.4788 17.0613C95.4946 19.3434 94.1495 21.9123 92.4465 24.785C90.5209 28.0613 88.7622 30.439 87.1847 31.9453C85.6057 33.4486 84.0866 34.196 82.6246 34.196C81.6547 34.196 80.8944 33.9821 80.3382 33.5485C79.7847 33.1134 79.5066 32.5187 79.5066 31.7598C79.5066 31.0709 79.7434 30.5118 80.2269 30.0582C80.7062 29.6075 81.3109 29.385 82.0512 29.385C82.6275 29.385 83.2493 29.616 83.9112 30.0725C84.5701 30.5346 85.0195 30.7528 85.2377 30.7528C85.6371 30.7528 86.0849 30.4205 86.5927 29.7544C87.1133 29.0811 87.3729 28.4493 87.3729 27.8359C87.3729 27.3881 87.3301 26.8189 87.2531 26.1343C87.1511 25.2863 87.0298 24.4407 86.8894 23.5982C86.5849 21.6365 86.2464 19.6802 85.8738 17.7302C85.5258 15.973 85.2177 14.5851 84.9396 13.571C84.6957 12.7009 84.4489 12.1346 84.2007 11.8679C83.9525 11.604 83.5503 11.4728 82.9755 11.4728H82.9313C82.7963 11.4945 82.66 11.5088 82.5233 11.5127Z" fill="#696969"/>
<path d="M104.74 22.4714C103.667 23.9848 102.613 25.1458 101.585 25.9474C100.568 26.7576 99.6394 27.1598 98.7935 27.1598C98.1132 27.1598 97.5811 26.9345 97.1889 26.498C96.7981 26.053 96.5984 25.4568 96.5984 24.7108C96.5984 24.4469 96.6255 24.1545 96.6768 23.8279C96.7239 23.4984 96.8009 23.1318 96.9022 22.7438L99.966 10.771H96.7424L97.042 9.7412C98.431 9.43664 99.7065 8.74821 100.723 7.75429C101.787 6.72732 102.755 5.30952 103.605 3.49377H104.704L103.264 9.50585H106.212L105.914 10.771H102.876L99.9375 22.3388C99.8749 22.5727 99.8226 22.8092 99.7806 23.0477C99.7563 23.2588 99.7335 23.4527 99.7335 23.6182C99.7335 24.0033 99.8177 24.2929 99.9903 24.4997C100.15 24.7051 100.392 24.8035 100.688 24.8035C101.073 24.8035 101.525 24.5796 102.061 24.1103C102.595 23.6496 103.272 22.895 104.084 21.8524L104.741 22.4728L104.74 22.4714Z" fill="#696969"/>
<path d="M107.749 18.5303C110.12 18.4162 112.118 17.7672 113.72 16.5961C115.334 15.4065 116.13 14.0715 116.13 12.5581C116.13 12.0503 116.002 11.6695 115.745 11.4142C115.497 11.1689 115.11 11.0433 114.591 11.0433C113.155 11.0433 111.82 11.6923 110.599 13.0203C109.376 14.3567 108.431 16.1896 107.749 18.5303ZM107.469 19.7983C107.366 20.2062 107.289 20.6202 107.238 21.0378C107.186 21.3919 107.161 21.7496 107.163 22.1076C107.163 23.1103 107.405 23.8762 107.904 24.404C108.397 24.9317 109.123 25.3226 110.068 25.3226C110.998 25.3226 112.069 24.8804 113.246 24.2414C114.44 23.6067 115.779 22.6439 117.257 21.3587L118.036 22.5397C116.274 24.1273 114.614 25.3026 113.055 26.0528C111.5 26.8188 109.977 27.1925 108.482 27.1925C107.019 27.1925 105.869 26.7475 105.063 25.876C104.25 24.9916 103.846 23.7564 103.846 22.1432C103.846 20.6013 104.162 19.0323 104.794 17.4434C105.404 15.8924 106.281 14.4598 107.384 13.21C108.444 12.0304 109.609 11.136 110.863 10.5099C112.135 9.88941 113.432 9.56848 114.768 9.56848C115.999 9.56848 116.965 9.85803 117.676 10.43C118.387 10.9977 118.746 11.7808 118.746 12.7778C118.746 14.5721 117.701 16.1297 115.628 17.442C113.553 18.7485 110.834 19.5287 107.469 19.7983Z" fill="#696969"/>
<path d="M130.628 20.0439L130.582 22.3118C129.466 23.9449 128.257 25.163 126.939 25.9761C125.643 26.7753 124.148 27.1935 122.626 27.1828C120.921 27.1828 119.528 26.6122 118.458 25.4569C117.391 24.3215 116.86 22.8067 116.86 20.9268C116.86 19.5432 117.161 18.1354 117.765 16.6976C118.356 15.2667 119.206 13.9565 120.271 12.8322C121.249 11.8024 122.346 10.9979 123.563 10.4474C124.721 9.89297 125.987 9.60216 127.271 9.59583C128.602 9.59583 129.659 9.90677 130.448 10.5144C131.235 11.1234 131.632 11.9322 131.632 12.952C131.632 13.5568 131.429 14.0817 131.015 14.5125C130.833 14.7182 130.609 14.8825 130.358 14.9942C130.107 15.1059 129.835 15.1625 129.561 15.16C129.1 15.16 128.728 15.0145 128.441 14.7093C128.156 14.4069 128.014 14.0161 128.014 13.5283C128.014 13.1874 128.126 12.798 128.36 12.3444C128.585 11.898 128.695 11.6184 128.695 11.5071C128.695 11.2975 128.584 11.1292 128.347 10.9979C128.111 10.8681 127.8 10.8025 127.397 10.8025C126.577 10.8025 125.747 11.0536 124.891 11.5699C124.011 12.1227 123.252 12.8476 122.66 13.7009C121.896 14.7651 121.291 15.9345 120.863 17.1726C120.459 18.3244 120.249 19.5351 120.241 20.7556C120.241 22.0821 120.575 23.1448 121.249 23.9193C121.93 24.6952 122.842 25.2201 123.999 25.2201C124.912 25.2201 125.808 24.7936 126.689 24.2245C127.575 23.6454 129.043 22.4943 130.628 20.0453" fill="#696969"/>
<path d="M128.62 27.2028L134.653 5.34825C134.688 5.21417 134.711 5.07867 134.725 4.93318C134.749 4.7991 134.755 4.65932 134.755 4.54806C134.755 4.15867 134.655 3.89194 134.468 3.74075C134.277 3.60667 133.729 3.53393 132.836 3.53393H131.463L131.675 2.53548C132.718 2.49407 133.756 2.37295 134.78 2.17319C135.735 1.97207 136.649 1.7139 137.495 1.37585H138.584L134.41 16.4709C136.548 14.2915 138.517 12.6055 140.309 11.3903C142.096 10.1964 143.524 9.59022 144.588 9.59022C145.15 9.59022 145.556 9.7243 145.826 9.9896C146.09 10.2663 146.231 10.6842 146.231 11.2462C146.231 11.4217 146.203 11.6313 146.151 11.8809C146.097 12.1668 146.034 12.4508 145.962 12.7325L142.915 23.0151C142.856 23.2317 142.809 23.4511 142.772 23.6726C142.729 23.9023 142.709 24.1405 142.709 24.3715C142.709 24.5027 142.772 24.6183 142.881 24.7238C142.99 24.8237 143.123 25.0048 143.267 25.0048C143.565 25.0048 143.983 24.6768 144.505 24.2717C145.03 23.8666 145.582 23.3117 146.166 22.6114L146.786 23.1434C145.738 24.4457 144.726 25.4484 143.756 26.1302C142.782 26.8206 141.884 27.1686 141.063 27.1686C140.529 27.1686 140.106 27.0359 139.797 26.7778C139.483 26.5125 139.333 26.163 139.333 25.7037C139.333 25.5426 139.346 25.37 139.382 25.1845C139.413 24.9991 139.473 24.7994 139.547 24.5812L142.677 13.9463C142.734 13.7124 142.772 13.5355 142.792 13.4143C142.811 13.2973 142.816 13.1818 142.816 13.0834C142.816 12.8124 142.744 12.6055 142.585 12.4586C142.436 12.3245 142.217 12.2532 141.929 12.2532C141.486 12.2532 140.827 12.5314 139.961 13.0948C139.088 13.6553 138.092 14.4584 136.946 15.4968C135.921 16.4167 135.164 17.1998 134.689 17.8474C134.233 18.4579 133.882 19.1406 133.651 19.8671L131.573 27.2028C131.336 27.1672 130.497 27.1386 130.253 27.123C130.011 27.1058 130.364 27.1058 130.113 27.1058C129.859 27.1058 129.604 27.1058 129.359 27.123C129.121 27.1401 128.874 27.1657 128.619 27.2028H128.62ZM92.7928 33.2135V33.4988C92.7895 33.6368 92.8083 33.7746 92.8485 33.9067C92.934 34.2519 93.215 34.4245 93.6929 34.4245C93.8712 34.4245 94.0323 34.3988 94.1778 34.3489C94.503 34.249 94.6685 34.0037 94.6785 33.6214C94.6821 33.5002 94.6545 33.3801 94.5983 33.2727C94.5421 33.1653 94.4592 33.0742 94.3575 33.0081C94.1835 32.8983 94.0025 32.8002 93.8155 32.7143L93.1865 32.429C92.9674 32.336 92.7581 32.2213 92.5618 32.0867C92.2152 31.8442 92.0397 31.4976 92.0397 31.044C92.044 30.5462 92.2394 30.1953 92.6245 29.9885C92.9112 29.8316 93.302 29.7503 93.8041 29.746C94.4132 29.746 94.8539 29.8601 95.1221 30.0926C95.336 30.278 95.4444 30.6432 95.4444 31.1852V31.2879H94.5786V31.1652L94.5615 30.9014C94.5073 30.5048 94.2506 30.3109 93.7913 30.3208C93.2065 30.3208 92.9127 30.5548 92.9069 31.0226C92.9069 31.3193 93.0895 31.5618 93.4532 31.75C93.6814 31.8684 93.9353 31.984 94.2206 32.1052C94.5073 32.2222 94.7412 32.3363 94.9195 32.4447C95.336 32.7 95.5471 33.0823 95.5471 33.5972C95.5371 34.5272 94.921 34.995 93.6943 34.995C93.1694 35.0036 92.7643 34.9137 92.4819 34.7354C92.3234 34.6407 92.1909 34.508 92.0963 34.3495C92.0017 34.1909 91.948 34.0113 91.9399 33.8268L91.9285 33.4174V33.2149H92.7943L92.7928 33.2135ZM96.1248 31.4676C96.1276 31.0469 96.1676 30.7402 96.2418 30.5462C96.3601 30.2381 96.6126 30.0185 97.0077 29.8901C97.293 29.7931 97.5982 29.746 97.9263 29.746C98.2501 29.746 98.5567 29.7931 98.8449 29.8887C99.2328 30.017 99.4867 30.2381 99.6051 30.5448C99.6778 30.7373 99.7192 31.0469 99.7249 31.4662V33.1778C99.7249 33.4859 99.7078 33.7541 99.6736 33.9766C99.578 34.6498 99.0032 34.9921 97.9505 34.995C97.1889 34.995 96.6768 34.8381 96.4172 34.5215C96.2175 34.2847 96.1205 33.8339 96.1248 33.1778V31.4662V31.4676ZM96.9934 33.1721C96.9963 33.6015 97.0277 33.8839 97.0862 34.008C97.1446 34.1349 97.2588 34.2376 97.4199 34.3132C97.5791 34.3852 97.7516 34.4226 97.9263 34.423C98.0832 34.423 98.2358 34.3945 98.3799 34.3303C98.505 34.289 98.615 34.2112 98.6958 34.1071C98.7766 34.0029 98.8245 33.877 98.8334 33.7455C98.8477 33.5858 98.8548 33.3961 98.8577 33.1721V31.4619C98.8634 31.0911 98.8206 30.83 98.7336 30.6817C98.5981 30.4392 98.3257 30.318 97.9263 30.3208C97.7769 30.3183 97.6283 30.3439 97.4884 30.3964C97.3579 30.4344 97.2424 30.5119 97.1576 30.6181C97.0728 30.7243 97.023 30.8541 97.0148 30.9898C96.9959 31.1464 96.9888 31.3042 96.9934 31.4619V33.1721ZM100.509 29.8188H101.375V33.2249L101.384 33.6756C101.412 34.1706 101.702 34.4202 102.248 34.423C102.796 34.423 103.095 34.1905 103.147 33.7227C103.167 33.5587 103.178 33.3946 103.181 33.2249V29.8188H104.047V33.2805C104.044 33.5629 104.033 33.7812 104.017 33.9366C103.996 34.1638 103.893 34.3756 103.727 34.5329C103.412 34.841 102.929 34.9921 102.275 34.995C101.599 34.9921 101.11 34.8424 100.813 34.5414C100.651 34.3797 100.551 34.1661 100.531 33.9381C100.513 33.7193 100.506 33.4999 100.509 33.2805V29.8188ZM106.305 29.8188H106.821C107.021 29.8188 107.206 29.8373 107.372 29.8658C108.011 29.9671 108.334 30.3736 108.344 31.0911C108.344 31.4676 108.259 31.7472 108.092 31.9469C107.928 32.1323 107.607 32.2578 107.138 32.3263V32.3234C107.43 32.352 107.643 32.3962 107.771 32.4575C107.859 32.499 107.937 32.5606 107.997 32.6374C108.058 32.7142 108.099 32.804 108.119 32.8997C108.149 33.0338 108.166 33.1935 108.176 33.3732L108.212 33.9737C108.224 34.299 108.291 34.6198 108.411 34.9223H107.51L107.422 34.5956C107.394 34.4801 107.378 34.3621 107.374 34.2433L107.34 33.7869L107.312 33.3076C107.27 32.9425 107.095 32.7214 106.784 32.6486C106.635 32.6197 106.483 32.6059 106.33 32.6073H105.731V34.9223H104.861V29.8188H106.305ZM105.731 30.3936V32.031H106.35C106.536 32.031 106.691 32.0196 106.83 31.9997C107.095 31.9569 107.279 31.8513 107.38 31.6802C107.447 31.566 107.479 31.3778 107.479 31.1139C107.479 30.83 107.382 30.6318 107.188 30.5234C107.046 30.4392 106.788 30.3964 106.399 30.395L105.731 30.3936ZM111.604 31.1652L111.599 30.9285C111.578 30.5205 111.337 30.318 110.872 30.3208C110.458 30.3208 110.189 30.4292 110.063 30.6418C109.998 30.7345 109.959 30.8428 109.95 30.9556L109.943 31.3749V33.3889C109.946 33.7541 109.982 33.9894 110.047 34.0935C110.191 34.3132 110.438 34.423 110.791 34.423C111.248 34.4202 111.511 34.2034 111.568 33.7712L111.604 33.4431V33.2663H112.469V33.4446L112.462 33.7641C112.434 34.1449 112.305 34.4359 112.07 34.6398C111.925 34.7657 111.753 34.8556 111.566 34.9023C111.322 34.9668 111.069 34.998 110.816 34.995C110.593 34.9996 110.37 34.9795 110.152 34.9351C109.438 34.801 109.079 34.326 109.075 33.5045V31.4719C109.071 31.2647 109.086 31.0576 109.117 30.8529C109.14 30.6416 109.22 30.4407 109.35 30.2723C109.625 29.9286 110.12 29.7517 110.835 29.7446C111.833 29.7517 112.372 30.0684 112.448 30.696C112.462 30.8158 112.469 30.9499 112.469 31.0982V31.2965H111.604V31.1652ZM113.225 29.8188H116.061V30.3936H114.093V32.0111H115.938V32.5859H114.093V34.346H116.115V34.9223H113.225V29.8188ZM118.362 31.4676C118.362 31.0469 118.4 30.7402 118.476 30.5462C118.591 30.2381 118.847 30.0185 119.24 29.8901C119.526 29.7931 119.831 29.746 120.16 29.746C120.483 29.746 120.791 29.7931 121.08 29.8887C121.465 30.017 121.721 30.2381 121.841 30.5448C121.915 30.7373 121.955 31.0469 121.96 31.4662V33.1778C121.96 33.4859 121.943 33.7541 121.912 33.9766C121.809 34.6498 121.239 34.9921 120.185 34.995C119.42 34.995 118.909 34.8381 118.651 34.5215C118.453 34.2847 118.357 33.8339 118.362 33.1778V31.4662V31.4676ZM119.226 33.1721C119.23 33.6015 119.262 33.8839 119.323 34.008C119.393 34.1462 119.51 34.2546 119.654 34.3132C119.813 34.3854 119.986 34.4228 120.16 34.423C120.32 34.423 120.468 34.3945 120.617 34.3303C120.741 34.2879 120.849 34.2097 120.929 34.1056C121.009 34.0016 121.056 33.8763 121.065 33.7455C121.08 33.5858 121.089 33.3961 121.092 33.1721V31.4619C121.097 31.0911 121.056 30.83 120.969 30.6817C120.831 30.4392 120.56 30.318 120.16 30.3208C120.003 30.3208 119.861 30.3437 119.724 30.3964C119.593 30.4341 119.477 30.5114 119.393 30.6177C119.308 30.724 119.258 30.854 119.25 30.9898C119.232 31.1253 119.223 31.2836 119.226 31.4619V33.1721ZM125.512 29.8188V30.3936H123.616V32.0068H125.441V32.5802H123.616V34.9223H122.749V29.8188H125.512ZM128.395 33.2135V33.4988C128.388 33.6367 128.406 33.7746 128.446 33.9067C128.532 34.2519 128.815 34.4245 129.289 34.4245C129.467 34.4245 129.63 34.3988 129.777 34.3489C130.099 34.249 130.266 34.0037 130.277 33.6214C130.281 33.5001 130.254 33.3798 130.197 33.2723C130.141 33.1648 130.057 33.0738 129.955 33.0081C129.781 32.8984 129.6 32.8003 129.413 32.7143L128.783 32.429C128.564 32.3346 128.354 32.22 128.156 32.0867C127.814 31.8442 127.639 31.4976 127.639 31.044C127.646 30.5462 127.838 30.1953 128.223 29.9885C128.509 29.8316 128.902 29.7503 129.402 29.746C130.011 29.746 130.45 29.8601 130.722 30.0926C130.936 30.278 131.042 30.6432 131.042 31.1852V31.2879H130.178V31.1652L130.159 30.9014C130.105 30.5048 129.849 30.3109 129.389 30.3208C128.803 30.3208 128.512 30.5548 128.504 31.0226C128.504 31.3193 128.69 31.5618 129.052 31.75C129.278 31.8684 129.534 31.984 129.82 32.1052C130.105 32.2222 130.339 32.3363 130.518 32.4447C130.934 32.7 131.146 33.0823 131.146 33.5972C131.135 34.5272 130.518 34.995 129.293 34.995C128.765 35.0036 128.362 34.9137 128.081 34.7354C127.922 34.6413 127.789 34.5088 127.695 34.35C127.6 34.1913 127.547 34.0114 127.54 33.8268L127.526 33.4174V33.2149H128.395V33.2135ZM131.755 29.8188H132.621V33.2249L132.628 33.6756C132.657 34.1706 132.949 34.4202 133.492 34.423C134.04 34.423 134.34 34.1905 134.394 33.7227C134.411 33.5587 134.421 33.3946 134.422 33.2249V29.8188H135.292V33.2805C135.288 33.5629 135.278 33.7812 135.258 33.9366C135.24 34.1637 135.138 34.3761 134.973 34.5329C134.655 34.841 134.17 34.9921 133.52 34.995C132.843 34.9921 132.353 34.8424 132.055 34.5414C131.895 34.3786 131.797 34.1653 131.776 33.9381C131.76 33.7193 131.754 33.4999 131.757 33.2805L131.755 29.8188ZM138.664 31.1652L138.661 30.9285C138.642 30.5205 138.396 30.318 137.93 30.3208C137.518 30.3208 137.251 30.4292 137.124 30.6418C137.06 30.735 137.021 30.843 137.01 30.9556L137.003 31.3749V33.3889C137.008 33.7541 137.043 33.9894 137.112 34.0935C137.252 34.3132 137.5 34.423 137.851 34.423C138.311 34.4202 138.57 34.2034 138.632 33.7712L138.666 33.4431V33.2663H139.532V33.4446L139.523 33.7641C139.499 34.1449 139.366 34.4359 139.131 34.6398C138.986 34.7654 138.813 34.8553 138.627 34.9023C138.383 34.9665 138.131 34.9977 137.878 34.995C137.655 34.9999 137.432 34.9798 137.214 34.9351C136.501 34.801 136.141 34.326 136.14 33.5045V31.4719C136.134 31.2648 136.147 31.0577 136.178 30.8529C136.207 30.6204 136.284 30.425 136.411 30.2723C136.687 29.9286 137.181 29.7517 137.897 29.7446C138.895 29.7517 139.436 30.0684 139.51 30.696C139.524 30.8158 139.532 30.9499 139.532 31.0982V31.2965H138.666L138.664 31.1652ZM142.849 31.1652L142.845 30.9285C142.824 30.5205 142.583 30.318 142.115 30.3208C141.701 30.3208 141.434 30.4292 141.307 30.6418C141.242 30.7339 141.203 30.8426 141.196 30.9556L141.186 31.3749V33.3889C141.189 33.7541 141.228 33.9894 141.293 34.0935C141.436 34.3132 141.684 34.423 142.035 34.423C142.496 34.4202 142.754 34.2034 142.812 33.7712L142.849 33.4431V33.2663H143.715V33.4446L143.708 33.7641C143.679 34.1449 143.548 34.4359 143.316 34.6398C143.17 34.7662 142.997 34.8562 142.809 34.9023C142.583 34.965 142.33 34.995 142.061 34.995C141.837 34.9999 141.614 34.9798 141.396 34.9351C140.683 34.801 140.325 34.326 140.32 33.5045V31.4719C140.316 31.248 140.332 31.044 140.363 30.8529C140.383 30.6417 140.462 30.4404 140.591 30.2723C140.869 29.9286 141.366 29.7517 142.08 29.7446C143.079 29.7517 143.617 30.0684 143.694 30.696C143.708 30.8158 143.715 30.9499 143.715 31.0982V31.2965H142.848L142.849 31.1652ZM144.47 29.8188H147.304V30.3936H145.337V32.0111H147.181V32.5859H145.337V34.346H147.359V34.9223H144.47V29.8188ZM148.632 33.2135V33.4988C148.627 33.6368 148.646 33.7746 148.686 33.9067C148.773 34.2519 149.052 34.4245 149.527 34.4245C149.706 34.4245 149.87 34.3988 150.015 34.3489C150.338 34.249 150.506 34.0037 150.519 33.6214C150.521 33.5001 150.493 33.3801 150.436 33.2728C150.38 33.1655 150.297 33.0744 150.195 33.0081C150.021 32.8985 149.84 32.8003 149.653 32.7143L149.024 32.429C148.805 32.3355 148.596 32.2208 148.399 32.0867C148.054 31.8442 147.879 31.4976 147.879 31.044C147.884 30.5462 148.077 30.1953 148.463 29.9885C148.747 29.8316 149.139 29.7503 149.642 29.746C150.251 29.746 150.69 29.8601 150.962 30.0926C151.176 30.278 151.282 30.6432 151.282 31.1852V31.2879H150.416V31.1652L150.399 30.9014C150.346 30.5048 150.087 30.3109 149.627 30.3208C149.045 30.3208 148.75 30.5548 148.744 31.0226C148.744 31.3193 148.927 31.5618 149.289 31.75C149.516 31.8684 149.774 31.984 150.059 32.1052C150.346 32.2222 150.577 32.3363 150.758 32.4447C151.173 32.7 151.386 33.0823 151.386 33.5972C151.376 34.5272 150.761 34.995 149.532 34.995C149.004 35.0036 148.602 34.9137 148.319 34.7354C148.161 34.6413 148.028 34.5088 147.934 34.35C147.84 34.1912 147.788 34.0112 147.782 33.8268L147.766 33.4174V33.2149H148.632V33.2135ZM152.648 33.2135V33.4988C152.643 33.6366 152.66 33.7744 152.7 33.9067C152.787 34.2519 153.069 34.4245 153.543 34.4245C153.722 34.4245 153.884 34.3988 154.028 34.3489C154.353 34.249 154.52 34.0037 154.533 33.6214C154.535 33.5001 154.507 33.38 154.45 33.2726C154.394 33.1653 154.311 33.0742 154.209 33.0081C154.035 32.8982 153.854 32.8 153.667 32.7143L153.039 32.429C152.82 32.3355 152.611 32.2208 152.414 32.0867C152.066 31.8442 151.892 31.4976 151.892 31.044C151.898 30.5462 152.093 30.1953 152.477 29.9885C152.764 29.8316 153.153 29.7503 153.657 29.746C154.267 29.746 154.704 29.8601 154.976 30.0926C155.19 30.278 155.298 30.6432 155.298 31.1852V31.2879H154.433V31.1652L154.413 30.9014C154.361 30.5048 154.102 30.3109 153.641 30.3208C153.061 30.3208 152.765 30.5548 152.76 31.0226C152.76 31.3193 152.941 31.5618 153.307 31.75C153.531 31.8684 153.789 31.984 154.073 32.1052C154.361 32.2222 154.592 32.3363 154.771 32.4447C155.189 32.7 155.4 33.0823 155.4 33.5972C155.39 34.5272 154.774 34.995 153.548 34.995C153.022 35.0036 152.618 34.9137 152.336 34.7354C152.177 34.6417 152.044 34.5093 151.949 34.3504C151.855 34.1916 151.802 34.0115 151.795 33.8268L151.78 33.4174V33.2149H152.648V33.2135Z" fill="#696969"/>
</svg>
