<svg width="152" height="37" viewBox="0 0 152 37" fill="none" xmlns="http://www.w3.org/2000/svg">
<g clip-path="url(#clip0_120_948)">
<path d="M150.232 34.4117V35.4415H0.422363V34.4117H150.232ZM148.311 8.18673L148.733 15.7735H148.101V15.7493C147.937 13.7823 147.305 12.1905 146.227 11.0423C145.15 9.87268 143.745 9.28788 142.059 9.28788C139.834 9.28788 138.197 10.2721 137.143 12.2148C136.089 14.1574 135.551 17.0615 135.551 20.877C135.551 22.6571 135.715 24.179 136.019 25.467C136.347 26.755 136.792 27.7848 137.401 28.6278C138.008 29.448 138.734 30.057 139.602 30.4307C140.467 30.8058 141.427 30.9927 142.481 30.9927C143.886 30.9927 145.08 30.6418 146.064 29.9158C147.024 29.1898 147.937 28.0658 148.756 26.5211L149.318 26.8021C147.656 30.3836 145.033 32.1866 141.497 32.1866C140.256 32.1866 139.04 31.9526 137.846 31.462C136.657 30.966 135.581 30.2332 134.684 29.3082C133.748 28.3468 132.998 27.1758 132.436 25.748C131.874 24.343 131.594 22.7042 131.594 20.8314C131.594 19.0056 131.851 17.3425 132.343 15.7963C132.856 14.2516 133.56 12.9165 134.474 11.7926C135.349 10.699 136.442 9.79814 137.682 9.14667C138.923 8.51479 140.281 8.20955 141.733 8.20955C142.879 8.19779 144.014 8.43783 145.057 8.91275L146.11 9.40484C146.415 9.54462 146.672 9.61451 146.883 9.61451C146.995 9.61575 147.104 9.58567 147.2 9.52767C147.295 9.46968 147.372 9.3861 147.422 9.28645C147.539 9.07678 147.632 8.70165 147.703 8.18673H148.311ZM15.7357 0.716919L25.007 26.8948L25.4021 27.9374C25.6075 28.4652 25.7929 28.9088 25.9683 29.2597C26.2493 29.8217 26.5532 30.2439 26.8812 30.5006C27.2093 30.7588 27.5844 30.9228 27.9824 30.9927C28.3803 31.064 28.871 31.0868 29.4572 31.0868V31.8357H17.9366V31.0868C18.9906 31.0868 19.7395 30.9456 20.1617 30.6875C20.5824 30.4307 20.7935 29.9857 20.7935 29.3538C20.7935 29.1199 20.7693 28.8617 20.6994 28.6278L20.5796 28.207C20.5125 27.9788 20.4227 27.6978 20.3014 27.3641L18.4286 22.1422H9.92758L8.00914 28.0187C7.82086 28.6521 7.75239 29.0971 7.75239 29.331C7.75239 29.9158 7.98489 30.3608 8.45416 30.6646C8.922 30.9699 9.76498 31.0868 11.0287 31.064V31.8128H1.85014V31.064C2.43495 31.064 2.97411 30.9927 3.41913 30.8757C3.86415 30.7588 4.26211 30.5477 4.59017 30.2196C4.91823 29.9158 5.22204 29.4708 5.48021 28.933C5.73696 28.3939 6.01795 27.6921 6.27612 26.8491L14.9398 0.718345H15.7357V0.716919ZM123.257 8.70307V9.24223C122.672 9.24223 122.18 9.26505 121.782 9.33495C121.384 9.40626 121.08 9.54605 120.869 9.77997C120.636 10.0472 120.475 10.3699 120.401 10.7171C120.307 11.115 120.285 11.6299 120.285 12.2861V28.0202C120.285 28.7234 120.33 29.2611 120.447 29.6605C120.566 30.0584 120.728 30.3622 120.939 30.5962C121.192 30.8249 121.512 30.9651 121.852 30.9955L122.347 31.0483C122.618 31.0711 122.92 31.0883 123.257 31.0883V31.6502H113.986V31.0883C114.487 31.0939 114.989 31.0548 115.483 30.9713C115.883 30.9 116.162 30.7374 116.396 30.502C116.607 30.2681 116.749 29.9643 116.841 29.5663C116.935 29.167 116.958 28.6535 116.958 28.0444V12.3075C116.958 11.6513 116.913 11.1379 116.841 10.7385C116.749 10.3405 116.607 10.0367 116.373 9.80279C116.14 9.56887 115.836 9.42766 115.461 9.35777C114.972 9.2852 114.479 9.25371 113.986 9.26363V8.70307H123.257ZM40.4615 8.63175L46.6662 25.6082H46.7375L52.9421 8.656H58.5848V9.21799C58.0941 9.21799 57.6719 9.26506 57.3681 9.35919C57.0773 9.4377 56.8163 9.60048 56.6178 9.82704C56.4324 10.0381 56.314 10.3662 56.2441 10.7642C56.1728 11.1621 56.15 11.6542 56.15 12.2618V27.9974C56.15 28.6292 56.1971 29.1441 56.2669 29.5421C56.3383 29.9415 56.478 30.2695 56.6663 30.4792C56.8529 30.7137 57.1187 30.8719 57.4137 30.9242C57.7418 30.9956 58.1412 31.0412 58.609 31.0412V31.6032H50.0623V31.0412C50.6243 31.0412 51.0921 31.0184 51.4673 30.9471C51.8424 30.8772 52.1462 30.7374 52.3573 30.5263C52.567 30.3152 52.731 30.0114 52.8252 29.5892C52.9193 29.1912 52.9664 28.6535 52.9664 27.9745V12.5186H52.895L45.9416 31.626H45.5422L38.6144 12.9393H38.5431V27.9945C38.5431 28.6734 38.5901 29.2126 38.66 29.6106C38.7314 30.0085 38.8954 30.3123 39.1051 30.5462C39.3162 30.7573 39.62 30.8986 39.9723 30.9684C40.346 31.0398 40.791 31.0626 41.3772 31.0626V31.6231H34.5393V31.0626C35.0785 31.0626 35.5235 31.0155 35.8744 30.9442C36.193 30.8831 36.4861 30.7281 36.7159 30.4992C36.9284 30.2895 37.0682 29.9857 37.1381 29.5635C37.2094 29.1641 37.2551 28.6264 37.2551 27.9717V12.2376C37.2551 11.6285 37.2323 11.1364 37.1624 10.7399C37.1111 10.3986 36.9737 10.0761 36.763 9.80279C36.5776 9.56887 36.2723 9.42766 35.9214 9.33352C35.5691 9.24081 35.1013 9.19374 34.5393 9.19374V8.63175H40.463H40.4615ZM75.3972 8.14109H75.9592L82.6088 27.8804C82.8656 28.6535 83.1009 29.2383 83.2878 29.6605C83.4989 30.0813 83.71 30.4093 83.9439 30.5962C84.1778 30.8073 84.436 30.9242 84.717 30.9713C84.998 31.0184 85.3489 31.0426 85.7696 31.0426V31.6032H77.5282V31.0412C78.277 31.0412 78.8162 30.9471 79.12 30.7374C79.4252 30.5263 79.5878 30.1982 79.5878 29.7304C79.5878 29.5421 79.565 29.3552 79.5179 29.1684L79.4124 28.7847C79.356 28.592 79.2975 28.3999 79.2369 28.2085L77.9033 24.2746H71.8142L70.4335 28.7234L70.3051 29.4323C70.2823 29.5678 70.2695 29.6733 70.2695 29.7532C70.2695 30.1982 70.4335 30.5491 70.7615 30.7602C71.0896 30.9941 71.6972 31.0883 72.6115 31.064V31.6274H66.0788V31.0654C66.4996 31.0654 66.8747 31.0184 67.2014 30.9242C67.5294 30.8301 67.7862 30.6675 68.0215 30.4321C68.2554 30.1982 68.4665 29.8702 68.6534 29.448C68.8032 29.1113 68.9529 28.7148 69.1027 28.2455L75.3972 8.14109ZM106.773 8.68025V13.8779H106.211C106.165 12.4501 105.837 11.4188 105.228 10.834C104.619 10.2492 103.612 9.944 102.161 9.944H99.6081V27.9974C99.6081 28.6763 99.6552 29.2155 99.7493 29.6134C99.842 30.0114 100.006 30.3152 100.217 30.5491C100.451 30.7602 100.755 30.9014 101.177 30.9713C101.598 31.0426 102.114 31.0654 102.746 31.0654V31.626H93.1467V31.0654C93.6731 31.0654 94.1352 31.0483 94.5046 31.0027L94.7143 30.9713C95.1365 30.9242 95.4417 30.783 95.6742 30.5719C95.9081 30.3622 96.0494 30.0342 96.1435 29.6362C96.2362 29.2155 96.2833 28.6763 96.2833 27.9974V9.94257H93.7786C93.0512 9.94257 92.4207 10.0139 91.9286 10.1537C91.4137 10.2935 91.0158 10.5046 90.6877 10.8326C90.3596 11.1364 90.1257 11.5586 89.9845 12.0507C89.8205 12.5414 89.7506 13.1504 89.7278 13.9007H89.1658V8.67882H106.771L106.773 8.68025ZM74.7653 14.8378H74.694L72.2122 23.0336H77.4811L74.7653 14.8378ZM14.0269 9.56887H13.9328L10.4667 20.4092H17.8424L14.0269 9.56887Z" fill="#696969"/>
</g>
<defs>
<clipPath id="clip0_120_948">
<rect width="151.193" height="35.6588" fill="white" transform="translate(0.422363 0.530151)"/>
</clipPath>
</defs>
</svg>
