<svg width="70" height="14" viewBox="0 0 70 14" fill="none" xmlns="http://www.w3.org/2000/svg">
<path d="M0.320195 13.2192V0.619237H2.3722L8.5102 9.49324V0.619237H10.7602V13.2192H8.6362L2.4982 4.34524V13.2192H0.320195ZM16.966 13.4172C15.826 13.4172 14.968 13.0932 14.392 12.4452C13.828 11.7972 13.546 10.8012 13.546 9.45724V3.67924H15.526V9.25924C15.526 10.0632 15.688 10.6692 16.012 11.0772C16.348 11.4852 16.888 11.6892 17.632 11.6892C18.04 11.6892 18.388 11.6232 18.676 11.4912C18.976 11.3472 19.216 11.1672 19.396 10.9512C19.588 10.7232 19.732 10.4652 19.828 10.1772C19.924 9.87724 19.972 9.57124 19.972 9.25924V3.67924H21.952V13.2192H20.116V11.5812C19.996 11.8332 19.84 12.0732 19.648 12.3012C19.456 12.5172 19.228 12.7092 18.964 12.8772C18.712 13.0452 18.418 13.1772 18.082 13.2732C17.746 13.3692 17.374 13.4172 16.966 13.4172ZM28.4241 13.4172C27.7761 13.4172 27.1761 13.3212 26.6241 13.1292C26.0841 12.9252 25.6101 12.6192 25.2021 12.2112C24.8061 11.8032 24.4941 11.2932 24.2661 10.6812C24.0381 10.0692 23.9241 9.35524 23.9241 8.53924V8.17924C23.9241 7.41124 24.0441 6.73324 24.2841 6.14524C24.5361 5.55724 24.8661 5.07124 25.2741 4.68724C25.6821 4.29124 26.1561 3.99124 26.6961 3.78724C27.2481 3.58324 27.8241 3.48124 28.4241 3.48124C29.0361 3.48124 29.5821 3.56524 30.0621 3.73324C30.5541 3.90124 30.9681 4.13524 31.3041 4.43524C31.6521 4.72324 31.9281 5.06524 32.1321 5.46124C32.3481 5.85724 32.4921 6.28324 32.5641 6.73924H30.5301C30.4581 6.51124 30.3621 6.30724 30.2421 6.12724C30.1341 5.93524 29.9961 5.77324 29.8281 5.64124C29.6601 5.50924 29.4621 5.40724 29.2341 5.33524C29.0061 5.25124 28.7361 5.20924 28.4241 5.20924C28.1001 5.20924 27.7881 5.26924 27.4881 5.38924C27.1881 5.50924 26.9241 5.68924 26.6961 5.92924C26.4681 6.15724 26.2881 6.46324 26.1561 6.84724C26.0241 7.21924 25.9581 7.66324 25.9581 8.17924V8.53924C25.9581 9.09124 26.0241 9.57124 26.1561 9.97924C26.2881 10.3752 26.4621 10.6992 26.6781 10.9512C26.9061 11.2032 27.1701 11.3892 27.4701 11.5092C27.7701 11.6292 28.0881 11.6892 28.4241 11.6892C28.9521 11.6892 29.3961 11.5572 29.7561 11.2932C30.1281 11.0172 30.3861 10.6392 30.5301 10.1592H32.5641C32.4801 10.6632 32.3181 11.1192 32.0781 11.5272C31.8501 11.9232 31.5561 12.2652 31.1961 12.5532C30.8361 12.8292 30.4221 13.0452 29.9541 13.2012C29.4861 13.3452 28.9761 13.4172 28.4241 13.4172ZM37.5085 13.3092C36.9805 13.3092 36.5305 13.2552 36.1585 13.1472C35.7865 13.0392 35.4805 12.8592 35.2405 12.6072C35.0005 12.3552 34.8205 12.0252 34.7005 11.6172C34.5925 11.2092 34.5385 10.7112 34.5385 10.1232V0.619237H36.5185V9.97924C36.5185 10.2912 36.5365 10.5492 36.5725 10.7532C36.6205 10.9572 36.6925 11.1192 36.7885 11.2392C36.8965 11.3592 37.0405 11.4492 37.2205 11.5092C37.4005 11.5572 37.6165 11.5812 37.8685 11.5812C38.0005 11.5812 38.1145 11.5812 38.2105 11.5812C38.3065 11.5692 38.4025 11.5572 38.4985 11.5452V13.2552C38.4385 13.2672 38.3665 13.2732 38.2825 13.2732C38.1985 13.2852 38.1085 13.2912 38.0125 13.2912C37.9285 13.3032 37.8385 13.3092 37.7425 13.3092C37.6585 13.3092 37.5805 13.3092 37.5085 13.3092ZM44.3374 13.4172C43.6894 13.4172 43.0774 13.3212 42.5014 13.1292C41.9374 12.9372 41.4394 12.6372 41.0074 12.2292C40.5874 11.8212 40.2514 11.3112 39.9994 10.6992C39.7474 10.0872 39.6214 9.36724 39.6214 8.53924V8.17924C39.6214 7.38724 39.7414 6.70324 39.9814 6.12724C40.2214 5.53924 40.5454 5.04724 40.9534 4.65124C41.3734 4.25524 41.8534 3.96124 42.3934 3.76924C42.9454 3.57724 43.5334 3.48124 44.1574 3.48124C45.6094 3.48124 46.7254 3.87124 47.5054 4.65124C48.2854 5.43124 48.6754 6.54724 48.6754 7.99924V9.00724H41.6194C41.6314 9.49924 41.7154 9.91924 41.8714 10.2672C42.0274 10.6032 42.2314 10.8792 42.4834 11.0952C42.7474 11.3112 43.0354 11.4732 43.3474 11.5812C43.6714 11.6772 44.0014 11.7252 44.3374 11.7252C44.9974 11.7252 45.5074 11.6172 45.8674 11.4012C46.2274 11.1852 46.4794 10.8912 46.6234 10.5192H48.4954C48.3994 10.9992 48.2314 11.4192 47.9914 11.7792C47.7514 12.1392 47.4514 12.4452 47.0914 12.6972C46.7314 12.9372 46.3174 13.1172 45.8494 13.2372C45.3814 13.3572 44.8774 13.4172 44.3374 13.4172ZM41.6374 7.53124H46.7854C46.7734 7.08724 46.7014 6.71524 46.5694 6.41524C46.4374 6.11524 46.2574 5.87524 46.0294 5.69524C45.8014 5.51524 45.5314 5.38324 45.2194 5.29924C44.9074 5.21524 44.5834 5.17324 44.2474 5.17324C43.9114 5.17324 43.5874 5.22124 43.2754 5.31724C42.9634 5.40124 42.6874 5.53924 42.4474 5.73124C42.2074 5.92324 42.0094 6.16924 41.8534 6.46924C41.7094 6.75724 41.6374 7.11124 41.6374 7.53124ZM53.9855 13.4172C52.8455 13.4172 51.9875 13.0932 51.4115 12.4452C50.8475 11.7972 50.5655 10.8012 50.5655 9.45724V3.67924H52.5455V9.25924C52.5455 10.0632 52.7075 10.6692 53.0315 11.0772C53.3675 11.4852 53.9075 11.6892 54.6515 11.6892C55.0595 11.6892 55.4075 11.6232 55.6955 11.4912C55.9955 11.3472 56.2355 11.1672 56.4155 10.9512C56.6075 10.7232 56.7515 10.4652 56.8475 10.1772C56.9435 9.87724 56.9915 9.57124 56.9915 9.25924V3.67924H58.9715V13.2192H57.1355V11.5812C57.0155 11.8332 56.8595 12.0732 56.6675 12.3012C56.4755 12.5172 56.2475 12.7092 55.9835 12.8772C55.7315 13.0452 55.4375 13.1772 55.1015 13.2732C54.7655 13.3692 54.3935 13.4172 53.9855 13.4172ZM65.0836 13.4172C64.3996 13.4172 63.8116 13.3392 63.3196 13.1832C62.8276 13.0272 62.4136 12.8232 62.0776 12.5712C61.7416 12.3072 61.4836 12.0012 61.3036 11.6532C61.1236 11.2932 61.0036 10.9152 60.9436 10.5192H62.9236C62.9596 10.6992 63.0256 10.8672 63.1216 11.0232C63.2296 11.1792 63.3676 11.3172 63.5356 11.4372C63.7036 11.5452 63.9136 11.6352 64.1656 11.7072C64.4176 11.7672 64.7236 11.7972 65.0836 11.7972C65.4796 11.7972 65.8156 11.7672 66.0916 11.7072C66.3676 11.6352 66.5896 11.5452 66.7576 11.4372C66.9256 11.3172 67.0456 11.1852 67.1176 11.0412C67.2016 10.8852 67.2436 10.7172 67.2436 10.5372C67.2436 10.3692 67.2076 10.2192 67.1356 10.0872C67.0636 9.95524 66.9316 9.83524 66.7396 9.72724C66.5596 9.60724 66.3076 9.50524 65.9836 9.42124C65.6716 9.32524 65.2696 9.24124 64.7776 9.16924C64.2496 9.09724 63.7636 8.99524 63.3196 8.86324C62.8876 8.71924 62.5156 8.53324 62.2036 8.30524C61.8916 8.07724 61.6456 7.80124 61.4656 7.47724C61.2976 7.14124 61.2136 6.73924 61.2136 6.27124C61.2136 5.88724 61.2976 5.52724 61.4656 5.19124C61.6336 4.85524 61.8796 4.56124 62.2036 4.30924C62.5396 4.04524 62.9476 3.84124 63.4276 3.69724C63.9076 3.55324 64.4596 3.48124 65.0836 3.48124C65.7076 3.48124 66.2416 3.56524 66.6856 3.73324C67.1416 3.88924 67.5196 4.09924 67.8196 4.36324C68.1196 4.62724 68.3536 4.93324 68.5216 5.28124C68.6896 5.62924 68.8036 5.99524 68.8636 6.37924H66.8836C66.7996 5.99524 66.6136 5.68924 66.3256 5.46124C66.0376 5.22124 65.6236 5.10124 65.0836 5.10124C64.7236 5.10124 64.4236 5.13724 64.1836 5.20924C63.9556 5.26924 63.7636 5.35324 63.6076 5.46124C63.4636 5.55724 63.3556 5.67724 63.2836 5.82124C63.2236 5.96524 63.1936 6.11524 63.1936 6.27124C63.1936 6.45124 63.2296 6.61324 63.3016 6.75724C63.3856 6.88924 63.5176 7.00924 63.6976 7.11724C63.8776 7.21324 64.1116 7.29724 64.3996 7.36924C64.6996 7.44124 65.0656 7.50724 65.4976 7.56724C66.0616 7.63924 66.5716 7.74724 67.0276 7.89124C67.4836 8.02324 67.8736 8.20924 68.1976 8.44924C68.5336 8.67724 68.7856 8.96524 68.9536 9.31324C69.1336 9.64924 69.2236 10.0572 69.2236 10.5372C69.2236 10.9332 69.1336 11.3112 68.9536 11.6712C68.7856 12.0192 68.5276 12.3252 68.1796 12.5892C67.8436 12.8412 67.4176 13.0452 66.9016 13.2012C66.3856 13.3452 65.7796 13.4172 65.0836 13.4172Z" fill="#696969"/>
</svg>
