<svg width="115" height="14" viewBox="0 0 115 14" fill="none" xmlns="http://www.w3.org/2000/svg">
<path d="M6.3602 13.4172C5.5802 13.4172 4.8422 13.2972 4.1462 13.0572C3.4622 12.8052 2.8622 12.4212 2.3462 11.9052C1.8422 11.3772 1.4402 10.7112 1.1402 9.90724C0.840195 9.10324 0.690195 8.13724 0.690195 7.00924V6.64924C0.690195 5.56924 0.840195 4.63924 1.1402 3.85924C1.4402 3.06724 1.8422 2.41924 2.3462 1.91524C2.8622 1.41124 3.4622 1.03924 4.1462 0.799237C4.8302 0.547238 5.5562 0.421238 6.3242 0.421238C6.9722 0.421238 7.5782 0.511238 8.1422 0.691238C8.7062 0.859238 9.2042 1.11124 9.6362 1.44724C10.0802 1.77124 10.4522 2.18524 10.7522 2.68924C11.0522 3.18124 11.2682 3.75124 11.4002 4.39924H9.0782C8.9702 4.02724 8.8202 3.70924 8.6282 3.44524C8.4362 3.18124 8.2142 2.97124 7.9622 2.81524C7.7222 2.64724 7.4582 2.52724 7.1702 2.45524C6.8942 2.37124 6.6122 2.32924 6.3242 2.32924C5.8682 2.32924 5.4362 2.40724 5.0282 2.56324C4.6322 2.70724 4.2842 2.94724 3.9842 3.28324C3.6842 3.61924 3.4442 4.06324 3.2642 4.61524C3.0962 5.16724 3.0122 5.84524 3.0122 6.64924V7.00924C3.0122 7.83724 3.1022 8.53924 3.2822 9.11524C3.4742 9.67924 3.7262 10.1412 4.0382 10.5012C4.3502 10.8612 4.7042 11.1192 5.1002 11.2752C5.5082 11.4312 5.9282 11.5092 6.3602 11.5092C6.8042 11.5092 7.2122 11.4492 7.5842 11.3292C7.9682 11.2092 8.2982 11.0232 8.5742 10.7712C8.8622 10.5192 9.0902 10.1952 9.2582 9.79924C9.4382 9.40324 9.5462 8.92924 9.5822 8.37724H6.7202V6.72124H11.6702V7.36924C11.6702 8.37724 11.5442 9.25924 11.2922 10.0152C11.0402 10.7712 10.6802 11.4012 10.2122 11.9052C9.7562 12.4092 9.1982 12.7872 8.5382 13.0392C7.8902 13.2912 7.1642 13.4172 6.3602 13.4172ZM13.8274 13.2192V3.67924H15.6634V5.31724C15.7594 5.06524 15.8854 4.83124 16.0414 4.61524C16.2094 4.39924 16.4014 4.20724 16.6174 4.03924C16.8454 3.87124 17.0974 3.73924 17.3734 3.64324C17.6614 3.53524 17.9674 3.48124 18.2914 3.48124C18.5194 3.48124 18.7054 3.49324 18.8494 3.51724C18.9934 3.54124 19.1194 3.57124 19.2274 3.60724V5.38924C19.1074 5.32924 18.9574 5.28724 18.7774 5.26324C18.6094 5.22724 18.3874 5.20924 18.1114 5.20924C17.7634 5.20924 17.4454 5.26924 17.1574 5.38924C16.8814 5.50924 16.6414 5.67724 16.4374 5.89324C16.2454 6.10924 16.0894 6.36724 15.9694 6.66724C15.8614 6.96724 15.8074 7.29124 15.8074 7.63924V13.2192H13.8274ZM23.4381 13.4172C22.9221 13.4172 22.4601 13.3452 22.0521 13.2012C21.6441 13.0452 21.3021 12.8352 21.0261 12.5712C20.7501 12.2952 20.5401 11.9772 20.3961 11.6172C20.2521 11.2572 20.1801 10.8612 20.1801 10.4292C20.1801 9.96124 20.2521 9.55324 20.3961 9.20524C20.5401 8.85724 20.7501 8.56924 21.0261 8.34124C21.3021 8.11324 21.6501 7.94524 22.0701 7.83724C22.4901 7.71724 22.9701 7.65724 23.5101 7.65724H26.4801V7.09924C26.4801 6.72724 26.4381 6.42124 26.3541 6.18124C26.2701 5.92924 26.1441 5.73124 25.9761 5.58724C25.8081 5.43124 25.5981 5.32324 25.3461 5.26324C25.1061 5.19124 24.8241 5.15524 24.5001 5.15524C24.2001 5.15524 23.9361 5.18524 23.7081 5.24524C23.4921 5.30524 23.3121 5.38324 23.1681 5.47924C23.0241 5.57524 22.9161 5.69524 22.8441 5.83924C22.7721 5.97124 22.7241 6.12124 22.7001 6.28924H20.7201C20.7441 5.89324 20.8461 5.52724 21.0261 5.19124C21.2181 4.84324 21.4761 4.54324 21.8001 4.29124C22.1361 4.03924 22.5381 3.84124 23.0061 3.69724C23.4741 3.55324 24.0021 3.48124 24.5901 3.48124C25.1781 3.48124 25.7061 3.54724 26.1741 3.67924C26.6541 3.81124 27.0621 4.02124 27.3981 4.30924C27.7341 4.58524 27.9921 4.95124 28.1721 5.40724C28.3641 5.85124 28.4601 6.39724 28.4601 7.04524V10.7892C28.4601 11.2932 28.4661 11.7372 28.4781 12.1212C28.4901 12.4932 28.5201 12.8592 28.5681 13.2192H26.7681C26.7321 12.9672 26.7081 12.7332 26.6961 12.5172C26.6841 12.3012 26.6781 12.0492 26.6781 11.7612C26.5461 12.0012 26.3781 12.2232 26.1741 12.4272C25.9701 12.6192 25.7301 12.7932 25.4541 12.9492C25.1901 13.0932 24.8841 13.2072 24.5361 13.2912C24.2001 13.3752 23.8341 13.4172 23.4381 13.4172ZM23.9601 11.8152C24.3081 11.8152 24.6321 11.7672 24.9321 11.6712C25.2441 11.5632 25.5141 11.4192 25.7421 11.2392C25.9701 11.0472 26.1501 10.8192 26.2821 10.5552C26.4141 10.2792 26.4801 9.96724 26.4801 9.61924V9.06124H23.8701C23.3421 9.06124 22.9341 9.17524 22.6461 9.40324C22.3581 9.63124 22.2141 9.96124 22.2141 10.3932C22.2141 10.8012 22.3521 11.1432 22.6281 11.4192C22.9041 11.6832 23.3481 11.8152 23.9601 11.8152ZM30.8957 13.2192V3.67924H32.7317V5.31724C32.8397 5.06524 32.9897 4.83124 33.1817 4.61524C33.3737 4.38724 33.6017 4.18924 33.8657 4.02124C34.1297 3.85324 34.4357 3.72124 34.7837 3.62524C35.1317 3.52924 35.5217 3.48124 35.9537 3.48124C37.1417 3.48124 38.0237 3.79924 38.5997 4.43524C39.1877 5.05924 39.4817 5.97724 39.4817 7.18924V13.2192H37.5017V7.63924C37.5017 6.83524 37.3277 6.22924 36.9797 5.82124C36.6437 5.41324 36.0857 5.20924 35.3057 5.20924C34.8737 5.20924 34.5017 5.28124 34.1897 5.42524C33.8897 5.55724 33.6377 5.73724 33.4337 5.96524C33.2417 6.18124 33.0977 6.43924 33.0017 6.73924C32.9177 7.02724 32.8757 7.32724 32.8757 7.63924V13.2192H30.8957ZM45.3912 13.4172C44.7912 13.4172 44.2452 13.3152 43.7532 13.1112C43.2612 12.9072 42.8352 12.6012 42.4752 12.1932C42.1272 11.7852 41.8572 11.2752 41.6652 10.6632C41.4732 10.0512 41.3772 9.34324 41.3772 8.53924V8.17924C41.3772 7.42324 41.4732 6.75124 41.6652 6.16324C41.8572 5.57524 42.1272 5.08324 42.4752 4.68724C42.8232 4.29124 43.2432 3.99124 43.7352 3.78724C44.2392 3.58324 44.7912 3.48124 45.3912 3.48124C46.0752 3.48124 46.6872 3.63724 47.2272 3.94924C47.7792 4.24924 48.1992 4.67524 48.4872 5.22724V0.619237H50.4672V13.2192H48.6312V11.5812C48.5112 11.8452 48.3492 12.0912 48.1452 12.3192C47.9412 12.5352 47.7012 12.7272 47.4252 12.8952C47.1492 13.0632 46.8372 13.1892 46.4892 13.2732C46.1412 13.3692 45.7752 13.4172 45.3912 13.4172ZM45.8412 11.7252C46.2252 11.7252 46.5792 11.6592 46.9032 11.5272C47.2392 11.3952 47.5212 11.2152 47.7492 10.9872C47.9772 10.7472 48.1572 10.4592 48.2892 10.1232C48.4212 9.77524 48.4872 9.39724 48.4872 8.98924V7.72924C48.4872 7.35724 48.4212 7.01524 48.2892 6.70324C48.1572 6.37924 47.9772 6.10924 47.7492 5.89324C47.5212 5.66524 47.2392 5.49124 46.9032 5.37124C46.5792 5.23924 46.2252 5.17324 45.8412 5.17324C45.4932 5.17324 45.1692 5.23924 44.8692 5.37124C44.5692 5.50324 44.3052 5.69524 44.0772 5.94724C43.8612 6.19924 43.6872 6.51124 43.5552 6.88324C43.4352 7.25524 43.3752 7.68724 43.3752 8.17924V8.53924C43.3752 9.05524 43.4352 9.51724 43.5552 9.92524C43.6872 10.3212 43.8612 10.6512 44.0772 10.9152C44.3052 11.1792 44.5692 11.3832 44.8692 11.5272C45.1692 11.6592 45.4932 11.7252 45.8412 11.7252ZM62.7157 13.4172C61.9357 13.4172 61.1977 13.2972 60.5017 13.0572C59.8177 12.8052 59.2177 12.4212 58.7017 11.9052C58.1977 11.3772 57.7957 10.7112 57.4957 9.90724C57.1957 9.10324 57.0457 8.13724 57.0457 7.00924V6.64924C57.0457 5.56924 57.1957 4.63924 57.4957 3.85924C57.7957 3.06724 58.1977 2.41924 58.7017 1.91524C59.2177 1.41124 59.8177 1.03924 60.5017 0.799237C61.1857 0.547238 61.9117 0.421238 62.6797 0.421238C63.3277 0.421238 63.9337 0.511238 64.4977 0.691238C65.0617 0.859238 65.5597 1.11124 65.9917 1.44724C66.4357 1.77124 66.8077 2.18524 67.1077 2.68924C67.4077 3.18124 67.6237 3.75124 67.7557 4.39924H65.4337C65.3257 4.02724 65.1757 3.70924 64.9837 3.44524C64.7917 3.18124 64.5697 2.97124 64.3177 2.81524C64.0777 2.64724 63.8137 2.52724 63.5257 2.45524C63.2497 2.37124 62.9677 2.32924 62.6797 2.32924C62.2237 2.32924 61.7917 2.40724 61.3837 2.56324C60.9877 2.70724 60.6397 2.94724 60.3397 3.28324C60.0397 3.61924 59.7997 4.06324 59.6197 4.61524C59.4517 5.16724 59.3677 5.84524 59.3677 6.64924V7.00924C59.3677 7.83724 59.4577 8.53924 59.6377 9.11524C59.8297 9.67924 60.0817 10.1412 60.3937 10.5012C60.7057 10.8612 61.0597 11.1192 61.4557 11.2752C61.8637 11.4312 62.2837 11.5092 62.7157 11.5092C63.1597 11.5092 63.5677 11.4492 63.9397 11.3292C64.3237 11.2092 64.6537 11.0232 64.9297 10.7712C65.2177 10.5192 65.4457 10.1952 65.6137 9.79924C65.7937 9.40324 65.9017 8.92924 65.9377 8.37724H63.0757V6.72124H68.0257V7.36924C68.0257 8.37724 67.8997 9.25924 67.6477 10.0152C67.3957 10.7712 67.0357 11.4012 66.5677 11.9052C66.1117 12.4092 65.5537 12.7872 64.8937 13.0392C64.2457 13.2912 63.5197 13.4172 62.7157 13.4172ZM72.9909 13.4172C72.4749 13.4172 72.0129 13.3452 71.6049 13.2012C71.1969 13.0452 70.8549 12.8352 70.5789 12.5712C70.3029 12.2952 70.0929 11.9772 69.9489 11.6172C69.8049 11.2572 69.7329 10.8612 69.7329 10.4292C69.7329 9.96124 69.8049 9.55324 69.9489 9.20524C70.0929 8.85724 70.3029 8.56924 70.5789 8.34124C70.8549 8.11324 71.2029 7.94524 71.6229 7.83724C72.0429 7.71724 72.5229 7.65724 73.0629 7.65724H76.0329V7.09924C76.0329 6.72724 75.9909 6.42124 75.9069 6.18124C75.8229 5.92924 75.6969 5.73124 75.5289 5.58724C75.3609 5.43124 75.1509 5.32324 74.8989 5.26324C74.6589 5.19124 74.3769 5.15524 74.0529 5.15524C73.7529 5.15524 73.4889 5.18524 73.2609 5.24524C73.0449 5.30524 72.8649 5.38324 72.7209 5.47924C72.5769 5.57524 72.4689 5.69524 72.3969 5.83924C72.3249 5.97124 72.2769 6.12124 72.2529 6.28924H70.2729C70.2969 5.89324 70.3989 5.52724 70.5789 5.19124C70.7709 4.84324 71.0289 4.54324 71.3529 4.29124C71.6889 4.03924 72.0909 3.84124 72.5589 3.69724C73.0269 3.55324 73.5549 3.48124 74.1429 3.48124C74.7309 3.48124 75.2589 3.54724 75.7269 3.67924C76.2069 3.81124 76.6149 4.02124 76.9509 4.30924C77.2869 4.58524 77.5449 4.95124 77.7249 5.40724C77.9169 5.85124 78.0129 6.39724 78.0129 7.04524V10.7892C78.0129 11.2932 78.0189 11.7372 78.0309 12.1212C78.0429 12.4932 78.0729 12.8592 78.1209 13.2192H76.3209C76.2849 12.9672 76.2609 12.7332 76.2489 12.5172C76.2369 12.3012 76.2309 12.0492 76.2309 11.7612C76.0989 12.0012 75.9309 12.2232 75.7269 12.4272C75.5229 12.6192 75.2829 12.7932 75.0069 12.9492C74.7429 13.0932 74.4369 13.2072 74.0889 13.2912C73.7529 13.3752 73.3869 13.4172 72.9909 13.4172ZM73.5129 11.8152C73.8609 11.8152 74.1849 11.7672 74.4849 11.6712C74.7969 11.5632 75.0669 11.4192 75.2949 11.2392C75.5229 11.0472 75.7029 10.8192 75.8349 10.5552C75.9669 10.2792 76.0329 9.96724 76.0329 9.61924V9.06124H73.4229C72.8949 9.06124 72.4869 9.17524 72.1989 9.40324C71.9109 9.63124 71.7669 9.96124 71.7669 10.3932C71.7669 10.8012 71.9049 11.1432 72.1809 11.4192C72.4569 11.6832 72.9009 11.8152 73.5129 11.8152ZM80.4485 13.2192V3.67924H82.3025V5.33524C82.4105 5.07124 82.5485 4.82524 82.7165 4.59724C82.8965 4.36924 83.1005 4.17724 83.3285 4.02124C83.5685 3.85324 83.8325 3.72124 84.1205 3.62524C84.4085 3.52924 84.7145 3.48124 85.0385 3.48124C85.4465 3.48124 85.8005 3.52924 86.1005 3.62524C86.4125 3.70924 86.6765 3.82924 86.8925 3.98524C87.1205 4.14124 87.3065 4.32724 87.4505 4.54324C87.6065 4.75924 87.7265 5.00524 87.8105 5.28124C88.0985 4.72924 88.4885 4.29124 88.9805 3.96724C89.4725 3.64324 90.0605 3.48124 90.7445 3.48124C91.7405 3.48124 92.5145 3.77524 93.0665 4.36324C93.6185 4.95124 93.8945 5.86324 93.8945 7.09924V13.2192H91.9145V7.56724C91.9145 6.71524 91.7645 6.10924 91.4645 5.74924C91.1765 5.38924 90.7325 5.20924 90.1325 5.20924C89.8685 5.20924 89.6165 5.26324 89.3765 5.37124C89.1365 5.47924 88.9265 5.63524 88.7465 5.83924C88.5665 6.04324 88.4225 6.29524 88.3145 6.59524C88.2065 6.88324 88.1525 7.20724 88.1525 7.56724V13.2192H86.1725V7.56724C86.1725 6.71524 86.0225 6.10924 85.7225 5.74924C85.4345 5.38924 84.9965 5.20924 84.4085 5.20924C84.1445 5.20924 83.8925 5.26324 83.6525 5.37124C83.4125 5.47924 83.2025 5.63524 83.0225 5.83924C82.8425 6.04324 82.6985 6.29524 82.5905 6.59524C82.4825 6.88324 82.4285 7.20724 82.4285 7.56724V13.2192H80.4485ZM100.498 13.4172C99.8495 13.4172 99.2375 13.3212 98.6615 13.1292C98.0975 12.9372 97.5995 12.6372 97.1675 12.2292C96.7475 11.8212 96.4115 11.3112 96.1595 10.6992C95.9075 10.0872 95.7815 9.36724 95.7815 8.53924V8.17924C95.7815 7.38724 95.9015 6.70324 96.1415 6.12724C96.3815 5.53924 96.7055 5.04724 97.1135 4.65124C97.5335 4.25524 98.0135 3.96124 98.5535 3.76924C99.1055 3.57724 99.6935 3.48124 100.318 3.48124C101.77 3.48124 102.886 3.87124 103.666 4.65124C104.446 5.43124 104.836 6.54724 104.836 7.99924V9.00724H97.7795C97.7915 9.49924 97.8755 9.91924 98.0315 10.2672C98.1875 10.6032 98.3915 10.8792 98.6435 11.0952C98.9075 11.3112 99.1955 11.4732 99.5075 11.5812C99.8315 11.6772 100.162 11.7252 100.498 11.7252C101.158 11.7252 101.668 11.6172 102.028 11.4012C102.388 11.1852 102.64 10.8912 102.784 10.5192H104.656C104.56 10.9992 104.392 11.4192 104.152 11.7792C103.912 12.1392 103.612 12.4452 103.252 12.6972C102.892 12.9372 102.478 13.1172 102.01 13.2372C101.542 13.3572 101.038 13.4172 100.498 13.4172ZM97.7975 7.53124H102.946C102.934 7.08724 102.862 6.71524 102.73 6.41524C102.598 6.11524 102.418 5.87524 102.19 5.69524C101.962 5.51524 101.692 5.38324 101.38 5.29924C101.068 5.21524 100.744 5.17324 100.408 5.17324C100.072 5.17324 99.7475 5.22124 99.4355 5.31724C99.1235 5.40124 98.8475 5.53924 98.6075 5.73124C98.3675 5.92324 98.1695 6.16924 98.0135 6.46924C97.8695 6.75724 97.7975 7.11124 97.7975 7.53124ZM110.416 13.4172C109.732 13.4172 109.144 13.3392 108.652 13.1832C108.16 13.0272 107.746 12.8232 107.41 12.5712C107.074 12.3072 106.816 12.0012 106.636 11.6532C106.456 11.2932 106.336 10.9152 106.276 10.5192H108.256C108.292 10.6992 108.358 10.8672 108.454 11.0232C108.562 11.1792 108.7 11.3172 108.868 11.4372C109.036 11.5452 109.246 11.6352 109.498 11.7072C109.75 11.7672 110.056 11.7972 110.416 11.7972C110.812 11.7972 111.148 11.7672 111.424 11.7072C111.7 11.6352 111.922 11.5452 112.09 11.4372C112.258 11.3172 112.378 11.1852 112.45 11.0412C112.534 10.8852 112.576 10.7172 112.576 10.5372C112.576 10.3692 112.54 10.2192 112.468 10.0872C112.396 9.95524 112.264 9.83524 112.072 9.72724C111.892 9.60724 111.64 9.50524 111.316 9.42124C111.004 9.32524 110.602 9.24124 110.11 9.16924C109.582 9.09724 109.096 8.99524 108.652 8.86324C108.22 8.71924 107.848 8.53324 107.536 8.30524C107.224 8.07724 106.978 7.80124 106.798 7.47724C106.63 7.14124 106.546 6.73924 106.546 6.27124C106.546 5.88724 106.63 5.52724 106.798 5.19124C106.966 4.85524 107.212 4.56124 107.536 4.30924C107.872 4.04524 108.28 3.84124 108.76 3.69724C109.24 3.55324 109.792 3.48124 110.416 3.48124C111.04 3.48124 111.574 3.56524 112.018 3.73324C112.474 3.88924 112.852 4.09924 113.152 4.36324C113.452 4.62724 113.686 4.93324 113.854 5.28124C114.022 5.62924 114.136 5.99524 114.196 6.37924H112.216C112.132 5.99524 111.946 5.68924 111.658 5.46124C111.37 5.22124 110.956 5.10124 110.416 5.10124C110.056 5.10124 109.756 5.13724 109.516 5.20924C109.288 5.26924 109.096 5.35324 108.94 5.46124C108.796 5.55724 108.688 5.67724 108.616 5.82124C108.556 5.96524 108.526 6.11524 108.526 6.27124C108.526 6.45124 108.562 6.61324 108.634 6.75724C108.718 6.88924 108.85 7.00924 109.03 7.11724C109.21 7.21324 109.444 7.29724 109.732 7.36924C110.032 7.44124 110.398 7.50724 110.83 7.56724C111.394 7.63924 111.904 7.74724 112.36 7.89124C112.816 8.02324 113.206 8.20924 113.53 8.44924C113.866 8.67724 114.118 8.96524 114.286 9.31324C114.466 9.64924 114.556 10.0572 114.556 10.5372C114.556 10.9332 114.466 11.3112 114.286 11.6712C114.118 12.0192 113.86 12.3252 113.512 12.5892C113.176 12.8412 112.75 13.0452 112.234 13.2012C111.718 13.3452 111.112 13.4172 110.416 13.4172Z" fill="#696969"/>
</svg>
