<svg width="76" height="14" viewBox="0 0 76 14" fill="none" xmlns="http://www.w3.org/2000/svg">
<path d="M4.2722 13.2192V2.49124H0.0601953V0.619237H10.6802V2.49124H6.4682V13.2192H4.2722ZM14.9096 13.4172C14.2616 13.4172 13.6496 13.3212 13.0736 13.1292C12.5096 12.9372 12.0116 12.6372 11.5796 12.2292C11.1596 11.8212 10.8236 11.3112 10.5716 10.6992C10.3196 10.0872 10.1936 9.36724 10.1936 8.53924V8.17924C10.1936 7.38724 10.3136 6.70324 10.5536 6.12724C10.7936 5.53924 11.1176 5.04724 11.5256 4.65124C11.9456 4.25524 12.4256 3.96124 12.9656 3.76924C13.5176 3.57724 14.1056 3.48124 14.7296 3.48124C16.1816 3.48124 17.2976 3.87124 18.0776 4.65124C18.8576 5.43124 19.2476 6.54724 19.2476 7.99924V9.00724H12.1916C12.2036 9.49924 12.2876 9.91924 12.4436 10.2672C12.5996 10.6032 12.8036 10.8792 13.0556 11.0952C13.3196 11.3112 13.6076 11.4732 13.9196 11.5812C14.2436 11.6772 14.5736 11.7252 14.9096 11.7252C15.5696 11.7252 16.0796 11.6172 16.4396 11.4012C16.7996 11.1852 17.0516 10.8912 17.1956 10.5192H19.0676C18.9716 10.9992 18.8036 11.4192 18.5636 11.7792C18.3236 12.1392 18.0236 12.4452 17.6636 12.6972C17.3036 12.9372 16.8896 13.1172 16.4216 13.2372C15.9536 13.3572 15.4496 13.4172 14.9096 13.4172ZM12.2096 7.53124H17.3576C17.3456 7.08724 17.2736 6.71524 17.1416 6.41524C17.0096 6.11524 16.8296 5.87524 16.6016 5.69524C16.3736 5.51524 16.1036 5.38324 15.7916 5.29924C15.4796 5.21524 15.1556 5.17324 14.8196 5.17324C14.4836 5.17324 14.1596 5.22124 13.8476 5.31724C13.5356 5.40124 13.2596 5.53924 13.0196 5.73124C12.7796 5.92324 12.5816 6.16924 12.4256 6.46924C12.2816 6.75724 12.2096 7.11124 12.2096 7.53124ZM21.2278 13.2192V3.67924H23.0638V5.31724C23.1718 5.06524 23.3218 4.83124 23.5138 4.61524C23.7058 4.38724 23.9338 4.18924 24.1978 4.02124C24.4618 3.85324 24.7678 3.72124 25.1158 3.62524C25.4638 3.52924 25.8538 3.48124 26.2858 3.48124C27.4738 3.48124 28.3558 3.79924 28.9318 4.43524C29.5198 5.05924 29.8138 5.97724 29.8138 7.18924V13.2192H27.8338V7.63924C27.8338 6.83524 27.6598 6.22924 27.3118 5.82124C26.9758 5.41324 26.4178 5.20924 25.6378 5.20924C25.2058 5.20924 24.8338 5.28124 24.5218 5.42524C24.2218 5.55724 23.9698 5.73724 23.7658 5.96524C23.5738 6.18124 23.4298 6.43924 23.3338 6.73924C23.2498 7.02724 23.2078 7.32724 23.2078 7.63924V13.2192H21.2278ZM35.7986 13.3092C35.2586 13.3092 34.7966 13.2552 34.4126 13.1472C34.0286 13.0272 33.7106 12.8472 33.4586 12.6072C33.2066 12.3672 33.0206 12.0612 32.9006 11.6892C32.7926 11.3052 32.7386 10.8552 32.7386 10.3392V5.37124H31.3886V3.67924H32.7386V1.51924H34.7186V3.67924H37.1486V5.37124H34.7186V10.0692C34.7186 10.3332 34.7426 10.5672 34.7906 10.7712C34.8386 10.9632 34.9226 11.1192 35.0426 11.2392C35.1626 11.3592 35.3186 11.4492 35.5106 11.5092C35.7026 11.5572 35.9486 11.5812 36.2486 11.5812C36.4286 11.5812 36.6086 11.5812 36.7886 11.5812C36.9686 11.5692 37.1486 11.5512 37.3286 11.5272V13.2192C37.1006 13.2432 36.8666 13.2612 36.6266 13.2732C36.3986 13.2972 36.1226 13.3092 35.7986 13.3092ZM43.4557 13.4172C42.8197 13.4172 42.2197 13.3212 41.6557 13.1292C41.0917 12.9252 40.5937 12.6252 40.1617 12.2292C39.7417 11.8212 39.4057 11.3112 39.1537 10.6992C38.9017 10.0752 38.7757 9.35524 38.7757 8.53924V8.17924C38.7757 7.39924 38.9017 6.72124 39.1537 6.14524C39.4057 5.55724 39.7417 5.06524 40.1617 4.66924C40.5937 4.27324 41.0917 3.97924 41.6557 3.78724C42.2197 3.58324 42.8197 3.48124 43.4557 3.48124C44.0917 3.48124 44.6917 3.58324 45.2557 3.78724C45.8197 3.97924 46.3117 4.27324 46.7317 4.66924C47.1637 5.06524 47.5057 5.55724 47.7577 6.14524C48.0097 6.72124 48.1357 7.39924 48.1357 8.17924V8.53924C48.1357 9.35524 48.0097 10.0692 47.7577 10.6812C47.5057 11.2932 47.1637 11.8032 46.7317 12.2112C46.3117 12.6192 45.8197 12.9252 45.2557 13.1292C44.6917 13.3212 44.0917 13.4172 43.4557 13.4172ZM43.4557 11.6892C43.8037 11.6892 44.1397 11.6292 44.4637 11.5092C44.7877 11.3772 45.0697 11.1852 45.3097 10.9332C45.5497 10.6812 45.7417 10.3572 45.8857 9.96124C46.0297 9.56524 46.1017 9.09124 46.1017 8.53924V8.17924C46.1017 7.67524 46.0297 7.23724 45.8857 6.86524C45.7417 6.49324 45.5497 6.18724 45.3097 5.94724C45.0697 5.69524 44.7877 5.50924 44.4637 5.38924C44.1397 5.26924 43.8037 5.20924 43.4557 5.20924C43.1077 5.20924 42.7717 5.26924 42.4477 5.38924C42.1237 5.50924 41.8417 5.69524 41.6017 5.94724C41.3617 6.18724 41.1697 6.49324 41.0257 6.86524C40.8817 7.23724 40.8097 7.67524 40.8097 8.17924V8.53924C40.8097 9.09124 40.8817 9.56524 41.0257 9.96124C41.1697 10.3572 41.3617 10.6872 41.6017 10.9512C41.8417 11.2032 42.1237 11.3892 42.4477 11.5092C42.7717 11.6292 43.1077 11.6892 43.4557 11.6892ZM54.2486 13.4172C53.6126 13.4172 53.0126 13.3212 52.4486 13.1292C51.8846 12.9252 51.3866 12.6252 50.9546 12.2292C50.5346 11.8212 50.1986 11.3112 49.9466 10.6992C49.6946 10.0752 49.5686 9.35524 49.5686 8.53924V8.17924C49.5686 7.39924 49.6946 6.72124 49.9466 6.14524C50.1986 5.55724 50.5346 5.06524 50.9546 4.66924C51.3866 4.27324 51.8846 3.97924 52.4486 3.78724C53.0126 3.58324 53.6126 3.48124 54.2486 3.48124C54.8846 3.48124 55.4846 3.58324 56.0486 3.78724C56.6126 3.97924 57.1046 4.27324 57.5246 4.66924C57.9566 5.06524 58.2986 5.55724 58.5506 6.14524C58.8026 6.72124 58.9286 7.39924 58.9286 8.17924V8.53924C58.9286 9.35524 58.8026 10.0692 58.5506 10.6812C58.2986 11.2932 57.9566 11.8032 57.5246 12.2112C57.1046 12.6192 56.6126 12.9252 56.0486 13.1292C55.4846 13.3212 54.8846 13.4172 54.2486 13.4172ZM54.2486 11.6892C54.5966 11.6892 54.9326 11.6292 55.2566 11.5092C55.5806 11.3772 55.8626 11.1852 56.1026 10.9332C56.3426 10.6812 56.5346 10.3572 56.6786 9.96124C56.8226 9.56524 56.8946 9.09124 56.8946 8.53924V8.17924C56.8946 7.67524 56.8226 7.23724 56.6786 6.86524C56.5346 6.49324 56.3426 6.18724 56.1026 5.94724C55.8626 5.69524 55.5806 5.50924 55.2566 5.38924C54.9326 5.26924 54.5966 5.20924 54.2486 5.20924C53.9006 5.20924 53.5646 5.26924 53.2406 5.38924C52.9166 5.50924 52.6346 5.69524 52.3946 5.94724C52.1546 6.18724 51.9626 6.49324 51.8186 6.86524C51.6746 7.23724 51.6026 7.67524 51.6026 8.17924V8.53924C51.6026 9.09124 51.6746 9.56524 51.8186 9.96124C51.9626 10.3572 52.1546 10.6872 52.3946 10.9512C52.6346 11.2032 52.9166 11.3892 53.2406 11.5092C53.5646 11.6292 53.9006 11.6892 54.2486 11.6892ZM60.9016 13.2192V3.67924H62.7376V5.31724C62.8336 5.06524 62.9596 4.83124 63.1156 4.61524C63.2836 4.39924 63.4756 4.20724 63.6916 4.03924C63.9196 3.87124 64.1716 3.73924 64.4476 3.64324C64.7356 3.53524 65.0416 3.48124 65.3656 3.48124C65.5936 3.48124 65.7796 3.49324 65.9236 3.51724C66.0676 3.54124 66.1936 3.57124 66.3016 3.60724V5.38924C66.1816 5.32924 66.0316 5.28724 65.8516 5.26324C65.6836 5.22724 65.4616 5.20924 65.1856 5.20924C64.8376 5.20924 64.5196 5.26924 64.2316 5.38924C63.9556 5.50924 63.7156 5.67724 63.5116 5.89324C63.3196 6.10924 63.1636 6.36724 63.0436 6.66724C62.9356 6.96724 62.8816 7.29124 62.8816 7.63924V13.2192H60.9016ZM70.5123 13.4172C69.9963 13.4172 69.5343 13.3452 69.1263 13.2012C68.7183 13.0452 68.3763 12.8352 68.1003 12.5712C67.8243 12.2952 67.6143 11.9772 67.4703 11.6172C67.3263 11.2572 67.2543 10.8612 67.2543 10.4292C67.2543 9.96124 67.3263 9.55324 67.4703 9.20524C67.6143 8.85724 67.8243 8.56924 68.1003 8.34124C68.3763 8.11324 68.7243 7.94524 69.1443 7.83724C69.5643 7.71724 70.0443 7.65724 70.5843 7.65724H73.5543V7.09924C73.5543 6.72724 73.5123 6.42124 73.4283 6.18124C73.3443 5.92924 73.2183 5.73124 73.0503 5.58724C72.8823 5.43124 72.6723 5.32324 72.4203 5.26324C72.1803 5.19124 71.8983 5.15524 71.5743 5.15524C71.2743 5.15524 71.0103 5.18524 70.7823 5.24524C70.5663 5.30524 70.3863 5.38324 70.2423 5.47924C70.0983 5.57524 69.9903 5.69524 69.9183 5.83924C69.8463 5.97124 69.7983 6.12124 69.7743 6.28924H67.7943C67.8183 5.89324 67.9203 5.52724 68.1003 5.19124C68.2923 4.84324 68.5503 4.54324 68.8743 4.29124C69.2103 4.03924 69.6123 3.84124 70.0803 3.69724C70.5483 3.55324 71.0763 3.48124 71.6643 3.48124C72.2523 3.48124 72.7803 3.54724 73.2483 3.67924C73.7283 3.81124 74.1363 4.02124 74.4723 4.30924C74.8083 4.58524 75.0663 4.95124 75.2463 5.40724C75.4383 5.85124 75.5343 6.39724 75.5343 7.04524V10.7892C75.5343 11.2932 75.5403 11.7372 75.5523 12.1212C75.5643 12.4932 75.5943 12.8592 75.6423 13.2192H73.8423C73.8063 12.9672 73.7823 12.7332 73.7703 12.5172C73.7583 12.3012 73.7523 12.0492 73.7523 11.7612C73.6203 12.0012 73.4523 12.2232 73.2483 12.4272C73.0443 12.6192 72.8043 12.7932 72.5283 12.9492C72.2643 13.0932 71.9583 13.2072 71.6103 13.2912C71.2743 13.3752 70.9083 13.4172 70.5123 13.4172ZM71.0343 11.8152C71.3823 11.8152 71.7063 11.7672 72.0063 11.6712C72.3183 11.5632 72.5883 11.4192 72.8163 11.2392C73.0443 11.0472 73.2243 10.8192 73.3563 10.5552C73.4883 10.2792 73.5543 9.96724 73.5543 9.61924V9.06124H70.9443C70.4163 9.06124 70.0083 9.17524 69.7203 9.40324C69.4323 9.63124 69.2883 9.96124 69.2883 10.3932C69.2883 10.8012 69.4263 11.1432 69.7023 11.4192C69.9783 11.6832 70.4223 11.8152 71.0343 11.8152Z" fill="#696969"/>
</svg>
