<svg width="73" height="37" viewBox="0 0 73 37" fill="none" xmlns="http://www.w3.org/2000/svg">
<g clip-path="url(#clip0_120_956)">
<path fill-rule="evenodd" clip-rule="evenodd" d="M42.7746 1.77073L42.6362 1.7365C41.5907 1.33855 40.4967 1.09464 39.4412 0.729492H40.3284C40.3569 0.894949 40.4953 0.876407 40.6108 0.893523C44.0983 1.43126 47.56 2.09737 50.9804 2.96174C55.3137 4.0586 59.5571 5.41221 63.5694 7.40768C65.8944 8.56303 68.0995 9.9038 69.9495 11.7581C70.9051 12.7166 71.7182 13.7749 72.2117 15.0529C73.0532 17.231 72.6995 19.2607 71.4614 21.1791C70.9608 21.9579 70.3232 22.6112 69.6642 23.2616C67.5347 25.3726 64.9444 26.7448 62.2714 27.9914C59.4044 29.3307 56.412 30.332 53.3724 31.195C50.535 31.9891 47.6632 32.6549 44.7658 33.1904C42.0265 33.7033 39.2712 34.1267 36.5043 34.4599C33.9326 34.7723 31.3524 35.0048 28.7678 35.1816C23.8754 35.5168 18.9787 35.6181 14.0764 35.5111C9.88252 35.4138 5.694 35.1545 1.52018 34.7338C0.989578 34.681 0.454695 34.6482 0.0695801 34.5383C2.87236 34.5883 5.81493 34.6639 8.7575 34.5883C12.5088 34.4913 16.253 34.2973 19.9886 33.935C22.8127 33.6674 25.6274 33.3087 28.4283 32.8595C33.4634 32.0422 38.4299 30.9439 43.2767 29.3364C46.8055 28.164 50.2373 26.7633 53.4038 24.7835C55.4649 23.4941 57.3648 22.0135 58.764 19.9838C59.8409 18.422 60.42 16.7146 60.179 14.7919C59.9921 13.2942 59.3445 11.9963 58.4417 10.811C57.6915 9.83066 56.8208 8.94887 55.85 8.18647C53.8431 6.59894 51.6394 5.33376 49.313 4.27826C48.4829 3.90313 47.6399 3.55795 46.8026 3.19566C46.6785 3.14288 46.5573 3.08012 46.4146 3.08725V3.09011C45.2707 2.55665 44.0783 2.16155 42.8673 1.81495V1.82351C42.853 1.77644 42.8202 1.76075 42.7746 1.77073Z" fill="#696969"/>
<path fill-rule="evenodd" clip-rule="evenodd" d="M47.6026 11.4092C48.0947 10.987 48.5483 10.522 49.1145 10.184C52.7603 7.99736 57.4487 9.89869 58.5199 14.0066C59.4941 17.7322 56.8425 21.4921 52.9899 21.8515C50.1229 22.1168 47.41 20.4309 46.4672 17.7279C45.7112 15.5599 46.045 13.5302 47.4286 11.6845C47.4942 11.5975 47.5897 11.5276 47.604 11.4078L47.6026 11.4092ZM25.0705 9.02576H26.4055C26.5139 9.04858 26.6209 9.07568 26.7293 9.0928C28.2741 9.35524 29.5721 10.0199 30.4906 11.3379C30.6589 11.5804 30.6618 11.6945 30.3951 11.8371C29.8858 12.1081 29.3795 12.3934 28.8917 12.7043C28.625 12.8755 28.4923 12.8327 28.304 12.5845C27.8932 12.0382 27.3926 11.5861 26.7037 11.4078L26.6708 11.3892L26.6352 11.3935C25.2944 10.8643 23.1021 11.4363 22.1051 12.5774L22.1079 12.576C21.8569 12.7214 21.68 12.9397 21.5217 13.175L21.5203 13.1764C21.3237 13.3317 21.1693 13.5337 21.071 13.7641C20.5718 14.4117 20.3008 15.1562 20.1767 15.9564C20.0811 16.5697 20.0412 17.1831 20.3336 17.765C20.5247 18.4211 20.9226 18.9147 21.5103 19.2584L21.5089 19.2541C21.8583 19.5351 22.252 19.692 22.7027 19.6992L22.7198 19.7106L22.737 19.6977C22.8682 19.789 23.0208 19.7691 23.1649 19.7733C24.7267 19.8118 25.9805 19.17 26.9961 18.0203C27.1244 17.8749 27.3027 17.7451 27.3341 17.4897H26.7165C25.7894 17.4897 24.8651 17.4855 23.9394 17.494C23.6969 17.4969 23.5999 17.4484 23.6855 17.1802C23.8438 16.6753 23.9922 16.1661 24.1105 15.6512C24.1762 15.3659 24.3088 15.2903 24.5912 15.2932C26.4055 15.306 28.2199 15.2989 30.0342 15.2989C30.4535 15.2989 30.4649 15.3217 30.3622 15.7482C30.2239 16.3358 29.9914 16.8921 29.8088 17.4655H29.8103C29.7646 17.5368 29.7104 17.6053 29.6733 17.6794C28.3297 20.4323 25.5569 22.2709 22.1308 21.92C20.984 21.803 19.9599 21.4065 19.1326 20.565C18.5934 20.0187 18.2511 19.3583 17.9587 18.6636V18.6565C17.9573 18.6208 17.9644 18.5809 17.9558 18.5467C17.5022 16.8465 17.8046 15.239 18.5506 13.6857C18.9714 12.8127 19.6018 12.0953 20.2508 11.3935L20.2594 11.3892C20.3036 11.3907 20.3279 11.3693 20.3279 11.3222L20.3321 11.3136C20.5504 11.1696 20.7501 11.0013 20.9226 10.8016L20.9241 10.8001C21.148 10.6875 21.3363 10.5291 21.5146 10.358L21.5174 10.3551C22.61 9.66762 23.7853 9.19692 25.0705 9.02576ZM9.6516 14.9508L9.67442 14.8225C9.72006 14.7083 9.77427 14.5985 9.8085 14.4816C10.2792 12.8869 10.7456 11.2922 11.2106 9.69614C11.2719 9.48504 11.3276 9.32672 11.6171 9.32814C13.6397 9.34241 15.6637 9.33385 17.6862 9.3367C17.7989 9.3367 17.9458 9.28821 17.9815 9.46935L17.963 9.61769C17.7519 10.1183 17.6349 10.6475 17.4923 11.1696C17.4181 11.4363 17.3097 11.5675 16.9902 11.5604C15.7821 11.5361 14.5725 11.5604 13.363 11.5433C13.0863 11.539 12.9779 11.636 12.9094 11.8956C12.7553 12.4904 12.5856 13.0837 12.3859 13.6671C12.2661 14.0194 12.3788 14.0779 12.7097 14.0736C13.8807 14.0565 15.0532 14.0708 16.2242 14.0608C16.5038 14.0594 16.6436 14.0922 16.5309 14.4274C16.3697 14.9052 16.2356 15.393 16.1173 15.8822C16.0516 16.1532 15.9318 16.2602 15.6423 16.2559C14.4342 16.2417 13.2246 16.2588 12.0165 16.2417C11.7498 16.2388 11.6257 16.3016 11.5529 16.574C11.3265 17.4315 11.0772 18.2829 10.8055 19.1272C10.7 19.451 10.7941 19.4952 11.0879 19.4923C12.2975 19.4809 13.5056 19.4923 14.7152 19.4809C14.9919 19.4781 15.066 19.5694 14.9862 19.8247C14.8179 20.3524 14.6524 20.8816 14.4983 21.4151C14.4484 21.5905 14.3557 21.6419 14.1803 21.6404C12.0336 21.6333 9.88695 21.6333 7.74029 21.6304L7.73315 21.6162C8.00987 20.6463 8.28373 19.6763 8.56329 18.7064C8.92416 17.4541 9.28931 16.2032 9.6516 14.9508ZM33.1208 9.47506L33.2249 9.331L40.0344 9.3367C40.6862 9.3367 40.6848 9.3367 40.5122 9.95431C40.4894 10.0356 40.4879 10.124 40.4765 10.2082C40.3153 10.4892 40.254 10.8087 40.1984 11.1168C40.1356 11.4748 39.9716 11.5732 39.6264 11.559C39.0487 11.5304 38.4668 11.5689 37.8877 11.5447C37.5739 11.5304 37.4313 11.6246 37.3557 11.9427C37.2102 12.5517 37.0105 13.1479 36.835 13.7513L35.7553 17.4698L35.7339 17.6038C35.6911 17.7037 35.6369 17.8035 35.6055 17.9077C35.2632 19.0659 34.9152 20.2212 34.5857 21.3837C34.5329 21.5705 34.4673 21.6461 34.2705 21.6419C33.6904 21.6329 33.1103 21.6329 32.5303 21.6419C32.3021 21.6447 32.2308 21.5919 32.3049 21.3423C32.7043 20.0087 33.0837 18.6693 33.4703 17.3328L34.5415 13.6086L34.5514 13.4902C34.8196 12.934 34.8981 12.3149 35.1077 11.7401C35.1805 11.5404 35.0293 11.5504 34.9052 11.5504H32.9853C32.5403 11.5504 32.546 11.5518 32.6715 11.1068C32.8241 10.5648 33.0224 10.0328 33.1208 9.47506Z" fill="#696969"/>
</g>
<defs>
<clipPath id="clip0_120_956">
<rect width="72.744" height="35.6588" fill="white" transform="translate(0.0705566 0.530151)"/>
</clipPath>
</defs>
</svg>
