<svg width="43" height="43" viewBox="0 0 43 43" fill="none" xmlns="http://www.w3.org/2000/svg">
<path d="M20.9128 8.29175L24.8351 12.8478H16.9905L20.9128 8.29175Z" fill="url(#paint0_linear_284_2218)"/>
<path d="M20.9129 34.2917L16.9906 29.7357L24.8352 29.7357L20.9129 34.2917Z" fill="url(#paint1_linear_284_2218)"/>
<g filter="url(#filter0_f_284_2218)">
<path d="M20.9129 9.50659L21.3673 10.878L22.749 11.329L21.3673 11.7801L20.9129 13.1515L20.4585 11.7801L19.0768 11.329L20.4585 10.878L20.9129 9.50659Z" fill="white"/>
<path d="M20.9129 9.54782L21.355 10.8821L21.3466 10.8849L21.3633 10.8903L22.7072 11.329L21.3633 11.7677L21.3605 11.7593L21.355 11.776L20.9129 13.1102L20.4708 11.776L20.4792 11.7732L20.4625 11.7677L19.1186 11.329L20.4625 10.8903L20.4653 10.8988L20.4708 10.8821L20.9129 9.54782Z" stroke="#FAFF00" stroke-width="0.0259354"/>
</g>
<path d="M32.2558 27.792L26.3194 28.8855L30.2417 22.1425L32.2558 27.792Z" fill="url(#paint2_linear_284_2218)"/>
<path d="M9.56984 14.7917L15.5063 13.6983L11.584 20.4413L9.56984 14.7917Z" fill="url(#paint3_linear_284_2218)"/>
<path d="M32.2556 14.7917L30.2415 20.4413L26.3192 13.6983L32.2556 14.7917Z" fill="url(#paint4_linear_284_2218)"/>
<path d="M9.56993 27.7917L11.5841 22.1422L15.5064 28.8852L9.56993 27.7917Z" fill="url(#paint5_linear_284_2218)"/>
<path d="M31.008 21.1704C31.008 26.6363 26.5435 31.0682 21.0354 31.0682C15.5272 31.0682 11.0628 26.6363 11.0628 21.1704C11.0628 15.7044 15.5272 11.2726 21.0354 11.2726C26.5435 11.2726 31.008 15.7044 31.008 21.1704Z" fill="url(#paint6_linear_284_2218)" stroke="url(#paint7_linear_284_2218)" stroke-width="0.129677"/>
<g filter="url(#filter1_i_284_2218)">
<ellipse cx="21.0353" cy="21.1703" rx="8.81337" ry="8.74766" fill="url(#paint8_linear_284_2218)"/>
</g>
<g filter="url(#filter2_ii_284_2218)">
<ellipse cx="21.0354" cy="21.1703" rx="7.34447" ry="7.28972" fill="url(#paint9_linear_284_2218)"/>
</g>
<g filter="url(#filter3_d_284_2218)">
<path d="M16.6986 19.9259C16.5678 19.5747 16.9606 19.2598 17.2749 19.4639L23.1506 23.277C23.4756 23.4879 23.3263 23.9924 22.9389 23.9924H18.4826C18.3201 23.9924 18.1747 23.8914 18.118 23.7391L16.6986 19.9259Z" fill="url(#paint10_linear_284_2218)"/>
<path d="M25.3708 19.9212C25.5029 19.5708 25.1122 19.2544 24.7969 19.4564L18.8362 23.2758C18.509 23.4854 18.6575 23.9924 19.046 23.9924H23.5668C23.7287 23.9924 23.8737 23.8921 23.9308 23.7406L25.3708 19.9212Z" fill="url(#paint11_linear_284_2218)"/>
<path d="M20.6868 18.5237C20.829 18.233 21.2433 18.233 21.3856 18.5237L23.8129 23.4828C23.9394 23.7413 23.7513 24.0429 23.4635 24.0429H18.6088C18.3211 24.0429 18.1329 23.7413 18.2594 23.4828L20.6868 18.5237Z" fill="url(#paint12_linear_284_2218)"/>
<mask id="mask0_284_2218" style="mask-type:alpha" maskUnits="userSpaceOnUse" x="18" y="18" width="6" height="7">
<path d="M20.6868 18.5237C20.829 18.233 21.2433 18.233 21.3856 18.5237L23.8129 23.4828C23.9394 23.7413 23.7513 24.0429 23.4635 24.0429H18.6088C18.3211 24.0429 18.1329 23.7413 18.2594 23.4828L20.6868 18.5237Z" fill="url(#paint13_linear_284_2218)"/>
</mask>
<g mask="url(#mask0_284_2218)">
<g filter="url(#filter4_f_284_2218)">
<ellipse cx="3.19541" cy="0.867189" rx="3.19541" ry="0.867189" transform="matrix(0.204188 0.978932 -0.979534 0.201279 23.015 18.592)" fill="#FFF5D2" fill-opacity="0.8"/>
</g>
</g>
<ellipse cx="21.0368" cy="17.3539" rx="0.561971" ry="0.557781" fill="url(#paint14_linear_284_2218)"/>
<ellipse cx="16.5986" cy="18.9759" rx="0.459794" ry="0.456367" fill="url(#paint15_linear_284_2218)"/>
<ellipse cx="25.4511" cy="18.9759" rx="0.459794" ry="0.456367" fill="url(#paint16_linear_284_2218)"/>
<rect x="18.1896" y="24.4827" width="5.5858" height="0.756022" rx="0.378011" fill="url(#paint17_linear_284_2218)"/>
</g>
<path d="M17.1186 14.8523L17.3005 15.4012L17.8535 15.5817L17.3005 15.7623L17.1186 16.3112L16.9367 15.7623L16.3837 15.5817L16.9367 15.4012L17.1186 14.8523Z" fill="white"/>
<path d="M14.9149 12.4226L15.339 13.7026L16.6286 14.1235L15.339 14.5445L14.9149 15.8245L14.4908 14.5445L13.2012 14.1235L14.4908 13.7026L14.9149 12.4226Z" fill="white"/>
<defs>
<filter id="filter0_f_284_2218" x="18.6878" y="9.11756" width="4.4503" height="4.42284" filterUnits="userSpaceOnUse" color-interpolation-filters="sRGB">
<feFlood flood-opacity="0" result="BackgroundImageFix"/>
<feBlend mode="normal" in="SourceGraphic" in2="BackgroundImageFix" result="shape"/>
<feGaussianBlur stdDeviation="0.194515" result="effect1_foregroundBlur_284_2218"/>
</filter>
<filter id="filter1_i_284_2218" x="12.2219" y="12.1633" width="17.6267" height="17.7547" filterUnits="userSpaceOnUse" color-interpolation-filters="sRGB">
<feFlood flood-opacity="0" result="BackgroundImageFix"/>
<feBlend mode="normal" in="SourceGraphic" in2="BackgroundImageFix" result="shape"/>
<feColorMatrix in="SourceAlpha" type="matrix" values="0 0 0 0 0 0 0 0 0 0 0 0 0 0 0 0 0 0 127 0" result="hardAlpha"/>
<feOffset dy="-0.259354"/>
<feGaussianBlur stdDeviation="0.129677"/>
<feComposite in2="hardAlpha" operator="arithmetic" k2="-1" k3="1"/>
<feColorMatrix type="matrix" values="0 0 0 0 0.616667 0 0 0 0 0.407 0 0 0 0 0 0 0 0 0.25 0"/>
<feBlend mode="normal" in2="shape" result="effect1_innerShadow_284_2218"/>
</filter>
<filter id="filter2_ii_284_2218" x="13.6909" y="13.6213" width="14.689" height="15.0981" filterUnits="userSpaceOnUse" color-interpolation-filters="sRGB">
<feFlood flood-opacity="0" result="BackgroundImageFix"/>
<feBlend mode="normal" in="SourceGraphic" in2="BackgroundImageFix" result="shape"/>
<feColorMatrix in="SourceAlpha" type="matrix" values="0 0 0 0 0 0 0 0 0 0 0 0 0 0 0 0 0 0 127 0" result="hardAlpha"/>
<feOffset dy="0.259354"/>
<feGaussianBlur stdDeviation="0.259354"/>
<feComposite in2="hardAlpha" operator="arithmetic" k2="-1" k3="1"/>
<feColorMatrix type="matrix" values="0 0 0 0 0.7 0 0 0 0 0.465967 0 0 0 0 0.0116667 0 0 0 1 0"/>
<feBlend mode="normal" in2="shape" result="effect1_innerShadow_284_2218"/>
<feColorMatrix in="SourceAlpha" type="matrix" values="0 0 0 0 0 0 0 0 0 0 0 0 0 0 0 0 0 0 127 0" result="hardAlpha"/>
<feOffset dy="-0.259354"/>
<feGaussianBlur stdDeviation="0.129677"/>
<feComposite in2="hardAlpha" operator="arithmetic" k2="-1" k3="1"/>
<feColorMatrix type="matrix" values="0 0 0 0 1 0 0 0 0 0.72 0 0 0 0 0 0 0 0 1 0"/>
<feBlend mode="normal" in2="effect1_innerShadow_284_2218" result="effect2_innerShadow_284_2218"/>
</filter>
<filter id="filter3_d_284_2218" x="15.8794" y="16.7961" width="10.2908" height="8.96133" filterUnits="userSpaceOnUse" color-interpolation-filters="sRGB">
<feFlood flood-opacity="0" result="BackgroundImageFix"/>
<feColorMatrix in="SourceAlpha" type="matrix" values="0 0 0 0 0 0 0 0 0 0 0 0 0 0 0 0 0 0 127 0" result="hardAlpha"/>
<feOffset dy="0.259354"/>
<feGaussianBlur stdDeviation="0.129677"/>
<feComposite in2="hardAlpha" operator="out"/>
<feColorMatrix type="matrix" values="0 0 0 0 0.358333 0 0 0 0 0.1935 0 0 0 0 0 0 0 0 1 0"/>
<feBlend mode="normal" in2="BackgroundImageFix" result="effect1_dropShadow_284_2218"/>
<feBlend mode="normal" in="SourceGraphic" in2="effect1_dropShadow_284_2218" result="shape"/>
</filter>
<filter id="filter4_f_284_2218" x="20.9688" y="17.9837" width="3.69846" height="7.82224" filterUnits="userSpaceOnUse" color-interpolation-filters="sRGB">
<feFlood flood-opacity="0" result="BackgroundImageFix"/>
<feBlend mode="normal" in="SourceGraphic" in2="BackgroundImageFix" result="shape"/>
<feGaussianBlur stdDeviation="0.389031" result="effect1_foregroundBlur_284_2218"/>
</filter>
<linearGradient id="paint0_linear_284_2218" x1="19.2823" y1="10.1142" x2="22.5432" y2="10.1142" gradientUnits="userSpaceOnUse">
<stop offset="0.484631" stop-color="#FFE590"/>
<stop offset="0.488859" stop-color="#FFC700"/>
</linearGradient>
<linearGradient id="paint1_linear_284_2218" x1="22.5434" y1="32.4693" x2="19.2825" y2="32.4693" gradientUnits="userSpaceOnUse">
<stop offset="0.484631" stop-color="#FFE590"/>
<stop offset="0.488859" stop-color="#FFC700"/>
</linearGradient>
<linearGradient id="paint2_linear_284_2218" x1="31.481" y1="25.4793" x2="29.8687" y2="28.2927" gradientUnits="userSpaceOnUse">
<stop offset="0.484631" stop-color="#FFE590"/>
<stop offset="0.488859" stop-color="#FFC700"/>
</linearGradient>
<linearGradient id="paint3_linear_284_2218" x1="10.3447" y1="17.1045" x2="11.957" y2="14.291" gradientUnits="userSpaceOnUse">
<stop offset="0.484631" stop-color="#FFE590"/>
<stop offset="0.488859" stop-color="#FFC700"/>
</linearGradient>
<linearGradient id="paint4_linear_284_2218" x1="29.8503" y1="14.3015" x2="31.4625" y2="17.1149" gradientUnits="userSpaceOnUse">
<stop offset="0.484631" stop-color="#FFE590"/>
<stop offset="0.488859" stop-color="#FFC700"/>
</linearGradient>
<linearGradient id="paint5_linear_284_2218" x1="11.9753" y1="28.282" x2="10.363" y2="25.4686" gradientUnits="userSpaceOnUse">
<stop offset="0.484631" stop-color="#FFE590"/>
<stop offset="0.488859" stop-color="#FFC700"/>
</linearGradient>
<linearGradient id="paint6_linear_284_2218" x1="14.6011" y1="13.7623" x2="27.8734" y2="28.6772" gradientUnits="userSpaceOnUse">
<stop stop-color="#FFECA9"/>
<stop offset="0.237301" stop-color="#FFD600"/>
<stop offset="1" stop-color="#FF9900"/>
</linearGradient>
<linearGradient id="paint7_linear_284_2218" x1="21.0354" y1="11.2078" x2="21.0354" y2="31.133" gradientUnits="userSpaceOnUse">
<stop stop-color="white" stop-opacity="0.5"/>
<stop offset="1" stop-color="white" stop-opacity="0"/>
</linearGradient>
<linearGradient id="paint8_linear_284_2218" x1="15.4045" y1="14.488" x2="26.5663" y2="28.0561" gradientUnits="userSpaceOnUse">
<stop stop-color="#FFC700"/>
<stop offset="1" stop-color="#D58500"/>
</linearGradient>
<linearGradient id="paint9_linear_284_2218" x1="16.1751" y1="15.167" x2="22.1487" y2="28.4936" gradientUnits="userSpaceOnUse">
<stop stop-color="#FFB13C"/>
<stop offset="0.484375" stop-color="#B45F1D"/>
<stop offset="1" stop-color="#743110"/>
</linearGradient>
<linearGradient id="paint10_linear_284_2218" x1="16.7713" y1="20.2931" x2="19.7367" y2="22.4659" gradientUnits="userSpaceOnUse">
<stop stop-color="#FFE176"/>
<stop offset="1" stop-color="#FFA800"/>
</linearGradient>
<linearGradient id="paint11_linear_284_2218" x1="24.9913" y1="19.6655" x2="23.2053" y2="22.9045" gradientUnits="userSpaceOnUse">
<stop stop-color="#FFE483"/>
<stop offset="1" stop-color="#F29100"/>
</linearGradient>
<linearGradient id="paint12_linear_284_2218" x1="19.4754" y1="21.0184" x2="22.6415" y2="21.0184" gradientUnits="userSpaceOnUse">
<stop offset="0.49738" stop-color="#FCE77B"/>
<stop offset="0.49738" stop-color="#FFCC1D"/>
</linearGradient>
<linearGradient id="paint13_linear_284_2218" x1="19.4754" y1="21.0184" x2="22.6415" y2="21.0184" gradientUnits="userSpaceOnUse">
<stop offset="0.49738" stop-color="#FCE77B"/>
<stop offset="0.49738" stop-color="#FFCC1D"/>
</linearGradient>
<linearGradient id="paint14_linear_284_2218" x1="21.0368" y1="16.7961" x2="21.0368" y2="17.9117" gradientUnits="userSpaceOnUse">
<stop stop-color="#FFCD1D"/>
<stop offset="1" stop-color="#FF971D"/>
</linearGradient>
<linearGradient id="paint15_linear_284_2218" x1="16.5986" y1="18.5195" x2="16.5986" y2="19.4323" gradientUnits="userSpaceOnUse">
<stop stop-color="#FFCD1D"/>
<stop offset="1" stop-color="#FF971D"/>
</linearGradient>
<linearGradient id="paint16_linear_284_2218" x1="25.4511" y1="18.5195" x2="25.4511" y2="19.4323" gradientUnits="userSpaceOnUse">
<stop stop-color="#FFCD1D"/>
<stop offset="1" stop-color="#FF971D"/>
</linearGradient>
<linearGradient id="paint17_linear_284_2218" x1="18.2531" y1="24.8607" x2="23.8389" y2="24.8607" gradientUnits="userSpaceOnUse">
<stop stop-color="#FDE07C"/>
<stop offset="1" stop-color="#FDE07C" stop-opacity="0"/>
</linearGradient>
</defs>
</svg>
