<svg width="43" height="43" viewBox="0 0 43 43" fill="none" xmlns="http://www.w3.org/2000/svg">
<path d="M21.319 8.29175L25.3526 12.9771H17.2854L21.319 8.29175Z" fill="url(#paint0_linear_284_2264)"/>
<path d="M21.3192 35.0295L17.2856 30.3442L25.3528 30.3442L21.3192 35.0295Z" fill="url(#paint1_linear_284_2264)"/>
<g filter="url(#filter0_f_284_2264)">
<path d="M21.2083 9.49121L21.6756 10.9015L23.0965 11.3654L21.6756 11.8292L21.2083 13.2395L20.741 11.8292L19.3201 11.3654L20.741 10.9015L21.2083 9.49121Z" fill="white"/>
<path d="M21.2083 9.53358L21.6629 10.9057L21.6543 10.9086L21.6715 10.9142L23.0536 11.3654L21.6715 11.8165L21.6686 11.8078L21.6629 11.825L21.2083 13.1971L20.7536 11.825L20.7623 11.8221L20.7451 11.8165L19.363 11.3654L20.7451 10.9142L20.7479 10.9229L20.7536 10.9057L21.2083 9.53358Z" stroke="#3E74FF" stroke-width="0.0266544"/>
</g>
<path d="M32.9838 28.3451L26.8789 29.4696L30.9125 22.5352L32.9838 28.3451Z" fill="url(#paint2_linear_284_2264)"/>
<path d="M9.65436 14.9762L15.7593 13.8517L11.7257 20.786L9.65436 14.9762Z" fill="url(#paint3_linear_284_2264)"/>
<path d="M32.9837 14.9762L30.9124 20.786L26.8788 13.8517L32.9837 14.9762Z" fill="url(#paint4_linear_284_2264)"/>
<path d="M9.65448 28.3451L11.7258 22.5353L15.7594 29.4696L9.65448 28.3451Z" fill="url(#paint5_linear_284_2264)"/>
<path d="M31.7007 21.5356C31.7007 27.1566 27.1095 31.7142 21.4451 31.7142C15.7806 31.7142 11.1894 27.1566 11.1894 21.5356C11.1894 15.9145 15.7806 11.3569 21.4451 11.3569C27.1095 11.3569 31.7007 15.9145 31.7007 21.5356Z" fill="url(#paint6_linear_284_2264)" stroke="url(#paint7_linear_284_2264)" stroke-width="0.133272"/>
<g filter="url(#filter1_i_284_2264)">
<ellipse cx="21.445" cy="21.5357" rx="9.06344" ry="8.99587" fill="url(#paint8_linear_284_2264)"/>
</g>
<g filter="url(#filter2_ii_284_2264)">
<ellipse cx="21.445" cy="21.5356" rx="7.55287" ry="7.49656" fill="url(#paint9_linear_284_2264)"/>
</g>
<g filter="url(#filter3_d_284_2264)">
<path d="M16.9849 20.255C16.8505 19.8941 17.2541 19.5705 17.5772 19.7802L23.621 23.7024C23.9549 23.9192 23.8015 24.4376 23.4033 24.4376H18.8196C18.6526 24.4376 18.5031 24.3338 18.4449 24.1773L16.9849 20.255Z" fill="url(#paint10_linear_284_2264)"/>
<path d="M25.9038 20.2502C26.0395 19.8901 25.638 19.5649 25.314 19.7725L19.1827 23.7012C18.8465 23.9166 18.9991 24.4376 19.3984 24.4376H24.0485C24.2149 24.4376 24.3639 24.3346 24.4226 24.1789L25.9038 20.2502Z" fill="url(#paint11_linear_284_2264)"/>
<path d="M21.087 18.8137C21.2332 18.515 21.659 18.515 21.8052 18.8137L24.3018 23.9144C24.4318 24.1801 24.2384 24.49 23.9427 24.49H18.9494C18.6537 24.49 18.4603 24.1801 18.5903 23.9144L21.087 18.8137Z" fill="url(#paint12_linear_284_2264)"/>
<mask id="mask0_284_2264" style="mask-type:alpha" maskUnits="userSpaceOnUse" x="18" y="18" width="7" height="7">
<path d="M21.087 18.8137C21.2332 18.515 21.659 18.515 21.8052 18.8137L24.3018 23.9144C24.4318 24.1801 24.2384 24.49 23.9427 24.49H18.9494C18.6537 24.49 18.4603 24.1801 18.5903 23.9144L21.087 18.8137Z" fill="url(#paint13_linear_284_2264)"/>
</mask>
<g mask="url(#mask0_284_2264)">
<g filter="url(#filter4_f_284_2264)">
<ellipse cx="3.28607" cy="0.891795" rx="3.28607" ry="0.891795" transform="matrix(0.204188 0.978932 -0.979534 0.201279 23.4808 18.8843)" fill="#7BB0FF"/>
</g>
</g>
<ellipse cx="21.4461" cy="17.6108" rx="0.577552" ry="0.573246" fill="url(#paint14_linear_284_2264)"/>
<ellipse cx="16.8822" cy="19.2786" rx="0.472542" ry="0.469019" fill="url(#paint15_linear_284_2264)"/>
<ellipse cx="25.9857" cy="19.2786" rx="0.472542" ry="0.469019" fill="url(#paint16_linear_284_2264)"/>
<rect x="18.5186" y="24.9421" width="5.7443" height="0.777474" rx="0.388737" fill="url(#paint17_linear_284_2264)"/>
</g>
<path d="M17.4167 15.0386L17.6036 15.6027L18.172 15.7882L17.6036 15.9738L17.4167 16.5379L17.2297 15.9738L16.6614 15.7882L17.2297 15.6027L17.4167 15.0386Z" fill="white"/>
<path d="M15.1509 12.5398L15.587 13.8561L16.9132 14.289L15.587 14.7219L15.1509 16.0382L14.7147 14.7219L13.3885 14.289L14.7147 13.8561L15.1509 12.5398Z" fill="white"/>
<defs>
<filter id="filter0_f_284_2264" x="18.6537" y="8.82485" width="5.10921" height="5.08101" filterUnits="userSpaceOnUse" color-interpolation-filters="sRGB">
<feFlood flood-opacity="0" result="BackgroundImageFix"/>
<feBlend mode="normal" in="SourceGraphic" in2="BackgroundImageFix" result="shape"/>
<feGaussianBlur stdDeviation="0.333181" result="effect1_foregroundBlur_284_2264"/>
</filter>
<filter id="filter1_i_284_2264" x="12.3816" y="12.2733" width="18.1268" height="18.2582" filterUnits="userSpaceOnUse" color-interpolation-filters="sRGB">
<feFlood flood-opacity="0" result="BackgroundImageFix"/>
<feBlend mode="normal" in="SourceGraphic" in2="BackgroundImageFix" result="shape"/>
<feColorMatrix in="SourceAlpha" type="matrix" values="0 0 0 0 0 0 0 0 0 0 0 0 0 0 0 0 0 0 127 0" result="hardAlpha"/>
<feOffset dy="-0.266544"/>
<feGaussianBlur stdDeviation="0.266544"/>
<feComposite in2="hardAlpha" operator="arithmetic" k2="-1" k3="1"/>
<feColorMatrix type="matrix" values="0 0 0 0 0 0 0 0 0 0.172667 0 0 0 0 0.616667 0 0 0 0.15 0"/>
<feBlend mode="normal" in2="shape" result="effect1_innerShadow_284_2264"/>
</filter>
<filter id="filter2_ii_284_2264" x="13.8921" y="13.7725" width="15.1057" height="15.5263" filterUnits="userSpaceOnUse" color-interpolation-filters="sRGB">
<feFlood flood-opacity="0" result="BackgroundImageFix"/>
<feBlend mode="normal" in="SourceGraphic" in2="BackgroundImageFix" result="shape"/>
<feColorMatrix in="SourceAlpha" type="matrix" values="0 0 0 0 0 0 0 0 0 0 0 0 0 0 0 0 0 0 127 0" result="hardAlpha"/>
<feOffset dy="0.266544"/>
<feGaussianBlur stdDeviation="0.666361"/>
<feComposite in2="hardAlpha" operator="arithmetic" k2="-1" k3="1"/>
<feColorMatrix type="matrix" values="0 0 0 0 0 0 0 0 0 0.193203 0 0 0 0 0.4875 0 0 0 1 0"/>
<feBlend mode="normal" in2="shape" result="effect1_innerShadow_284_2264"/>
<feColorMatrix in="SourceAlpha" type="matrix" values="0 0 0 0 0 0 0 0 0 0 0 0 0 0 0 0 0 0 127 0" result="hardAlpha"/>
<feOffset dy="-0.266544"/>
<feGaussianBlur stdDeviation="0.666361"/>
<feComposite in2="hardAlpha" operator="arithmetic" k2="-1" k3="1"/>
<feColorMatrix type="matrix" values="0 0 0 0 0.4375 0 0 0 0 0.62875 0 0 0 0 1 0 0 0 1 0"/>
<feBlend mode="normal" in2="effect1_innerShadow_284_2264" result="effect2_innerShadow_284_2264"/>
</filter>
<filter id="filter3_d_284_2264" x="15.8766" y="16.7711" width="11.1148" height="9.74831" filterUnits="userSpaceOnUse" color-interpolation-filters="sRGB">
<feFlood flood-opacity="0" result="BackgroundImageFix"/>
<feColorMatrix in="SourceAlpha" type="matrix" values="0 0 0 0 0 0 0 0 0 0 0 0 0 0 0 0 0 0 127 0" result="hardAlpha"/>
<feOffset dy="0.266544"/>
<feGaussianBlur stdDeviation="0.266544"/>
<feComposite in2="hardAlpha" operator="out"/>
<feColorMatrix type="matrix" values="0 0 0 0 0.111875 0 0 0 0 0.364131 0 0 0 0 0.745833 0 0 0 0.68 0"/>
<feBlend mode="normal" in2="BackgroundImageFix" result="effect1_dropShadow_284_2264"/>
<feBlend mode="normal" in="SourceGraphic" in2="effect1_dropShadow_284_2264" result="shape"/>
</filter>
<filter id="filter4_f_284_2264" x="21.3771" y="18.259" width="3.80227" height="8.04311" filterUnits="userSpaceOnUse" color-interpolation-filters="sRGB">
<feFlood flood-opacity="0" result="BackgroundImageFix"/>
<feBlend mode="normal" in="SourceGraphic" in2="BackgroundImageFix" result="shape"/>
<feGaussianBlur stdDeviation="0.399817" result="effect1_foregroundBlur_284_2264"/>
</filter>
<linearGradient id="paint0_linear_284_2264" x1="19.6422" y1="10.1659" x2="22.9957" y2="10.1659" gradientUnits="userSpaceOnUse">
<stop offset="0.488759" stop-color="#E3EBFF"/>
<stop offset="0.488859" stop-color="#D1E5EE"/>
<stop offset="0.488959" stop-color="#B3C2D9"/>
</linearGradient>
<linearGradient id="paint1_linear_284_2264" x1="22.9959" y1="33.1554" x2="19.6425" y2="33.1554" gradientUnits="userSpaceOnUse">
<stop offset="0.488759" stop-color="#E3EBFF"/>
<stop offset="0.488859" stop-color="#D1E5EE"/>
<stop offset="0.488959" stop-color="#B3C2D9"/>
</linearGradient>
<linearGradient id="paint2_linear_284_2264" x1="32.1869" y1="25.9667" x2="30.529" y2="28.86" gradientUnits="userSpaceOnUse">
<stop offset="0.488759" stop-color="#E3EBFF"/>
<stop offset="0.488859" stop-color="#D1E5EE"/>
<stop offset="0.488959" stop-color="#B3C2D9"/>
</linearGradient>
<linearGradient id="paint3_linear_284_2264" x1="10.4512" y1="17.3545" x2="12.1092" y2="14.4613" gradientUnits="userSpaceOnUse">
<stop offset="0.488759" stop-color="#E3EBFF"/>
<stop offset="0.488859" stop-color="#D1E5EE"/>
<stop offset="0.488959" stop-color="#B3C2D9"/>
</linearGradient>
<linearGradient id="paint4_linear_284_2264" x1="30.5101" y1="14.472" x2="32.1681" y2="17.3653" gradientUnits="userSpaceOnUse">
<stop offset="0.488759" stop-color="#E3EBFF"/>
<stop offset="0.488859" stop-color="#D1E5EE"/>
<stop offset="0.488959" stop-color="#B3C2D9"/>
</linearGradient>
<linearGradient id="paint5_linear_284_2264" x1="12.1281" y1="28.8493" x2="10.4701" y2="25.956" gradientUnits="userSpaceOnUse">
<stop offset="0.488759" stop-color="#E3EBFF"/>
<stop offset="0.488859" stop-color="#D1E5EE"/>
<stop offset="0.488959" stop-color="#B3C2D9"/>
</linearGradient>
<linearGradient id="paint6_linear_284_2264" x1="14.8282" y1="13.9173" x2="28.4771" y2="29.2554" gradientUnits="userSpaceOnUse">
<stop stop-color="#D5E3FF"/>
<stop offset="0.520833" stop-color="#F0F5FF"/>
<stop offset="1" stop-color="#D0DFFE"/>
</linearGradient>
<linearGradient id="paint7_linear_284_2264" x1="21.4451" y1="11.2903" x2="21.4451" y2="31.7809" gradientUnits="userSpaceOnUse">
<stop stop-color="white" stop-opacity="0.5"/>
<stop offset="1" stop-color="white" stop-opacity="0"/>
</linearGradient>
<linearGradient id="paint8_linear_284_2264" x1="15.6545" y1="14.6638" x2="27.133" y2="28.6169" gradientUnits="userSpaceOnUse">
<stop stop-color="#B1CCFF"/>
<stop offset="1" stop-color="#D5E3FF"/>
</linearGradient>
<linearGradient id="paint9_linear_284_2264" x1="16.4467" y1="15.362" x2="22.5898" y2="29.0667" gradientUnits="userSpaceOnUse">
<stop stop-color="#78A6FF"/>
<stop offset="0.484375" stop-color="#376EC1"/>
<stop offset="1" stop-color="#1352B0"/>
</linearGradient>
<linearGradient id="paint10_linear_284_2264" x1="17.0599" y1="20.6333" x2="20.1094" y2="22.8679" gradientUnits="userSpaceOnUse">
<stop stop-color="#90BDFF"/>
<stop offset="1" stop-color="#408CFF"/>
</linearGradient>
<linearGradient id="paint11_linear_284_2264" x1="25.5132" y1="19.9879" x2="23.6765" y2="23.3188" gradientUnits="userSpaceOnUse">
<stop stop-color="#90BDFF"/>
<stop offset="1" stop-color="#408CFF"/>
</linearGradient>
<linearGradient id="paint12_linear_284_2264" x1="19.841" y1="21.3797" x2="23.097" y2="21.3797" gradientUnits="userSpaceOnUse">
<stop offset="0.49728" stop-color="#90BDFF"/>
<stop offset="0.49738" stop-color="#408CFF"/>
</linearGradient>
<linearGradient id="paint13_linear_284_2264" x1="19.841" y1="21.3797" x2="23.097" y2="21.3797" gradientUnits="userSpaceOnUse">
<stop offset="0.416667" stop-color="#B1B0D8"/>
<stop offset="0.49738" stop-color="#FFCC1D"/>
</linearGradient>
<linearGradient id="paint14_linear_284_2264" x1="21.4461" y1="17.0376" x2="21.4461" y2="18.1841" gradientUnits="userSpaceOnUse">
<stop stop-color="#B0C6FF"/>
<stop offset="1" stop-color="#408CFF"/>
</linearGradient>
<linearGradient id="paint15_linear_284_2264" x1="16.8822" y1="18.8096" x2="16.8822" y2="19.7476" gradientUnits="userSpaceOnUse">
<stop stop-color="#B0C6FF"/>
<stop offset="1" stop-color="#408CFF"/>
</linearGradient>
<linearGradient id="paint16_linear_284_2264" x1="25.9857" y1="18.8096" x2="25.9857" y2="19.7476" gradientUnits="userSpaceOnUse">
<stop stop-color="#B0C6FF"/>
<stop offset="1" stop-color="#408CFF"/>
</linearGradient>
<linearGradient id="paint17_linear_284_2264" x1="18.5838" y1="25.3309" x2="24.3281" y2="25.3309" gradientUnits="userSpaceOnUse">
<stop stop-color="#90BDFF"/>
<stop offset="1" stop-color="#458FFF"/>
</linearGradient>
</defs>
</svg>
