<svg width="43" height="43" viewBox="0 0 43 43" fill="none" xmlns="http://www.w3.org/2000/svg">
<path d="M20.8227 8.29175L24.745 12.8478H16.9004L20.8227 8.29175Z" fill="url(#paint0_linear_284_2313)"/>
<path d="M20.823 34.2917L16.9007 29.7357L24.7453 29.7357L20.823 34.2917Z" fill="url(#paint1_linear_284_2313)"/>
<g filter="url(#filter0_f_284_2313)">
<path d="M20.715 9.45801L21.1694 10.8294L22.5511 11.2804L21.1694 11.7315L20.715 13.1029L20.2606 11.7315L18.8789 11.2804L20.2606 10.8294L20.715 9.45801Z" fill="white" fill-opacity="0.62"/>
<path d="M20.715 9.55426L21.1407 10.8389L21.1455 10.8534L21.16 10.8582L22.4536 11.2804L21.16 11.7027L21.1455 11.7074L21.1407 11.7219L20.715 13.0066L20.2893 11.7219L20.2845 11.7074L20.27 11.7027L18.9765 11.2804L20.27 10.8582L20.2845 10.8534L20.2893 10.8389L20.715 9.55426Z" stroke="#FFC886" stroke-width="0.0605485"/>
</g>
<path d="M32.1658 27.7917L26.2293 28.8852L30.1516 22.1422L32.1658 27.7917Z" fill="url(#paint2_linear_284_2313)"/>
<path d="M9.47988 14.7917L15.4163 13.6983L11.494 20.4413L9.47988 14.7917Z" fill="url(#paint3_linear_284_2313)"/>
<path d="M32.1655 14.7917L30.1514 20.4413L26.2291 13.6983L32.1655 14.7917Z" fill="url(#paint4_linear_284_2313)"/>
<path d="M9.47996 27.7917L11.4941 22.1422L15.4164 28.8852L9.47996 27.7917Z" fill="url(#paint5_linear_284_2313)"/>
<path d="M30.8312 21.1704C30.8312 26.5879 26.4062 30.9816 20.9452 30.9816C15.4842 30.9816 11.0591 26.5879 11.0591 21.1704C11.0591 15.7528 15.4842 11.3591 20.9452 11.3591C26.4062 11.3591 30.8312 15.7528 30.8312 21.1704Z" fill="url(#paint6_linear_284_2313)" stroke="url(#paint7_linear_284_2313)" stroke-width="0.302743"/>
<g filter="url(#filter1_i_284_2313)">
<ellipse cx="20.9452" cy="21.1703" rx="8.81337" ry="8.74766" fill="url(#paint8_linear_284_2313)"/>
</g>
<g filter="url(#filter2_ii_284_2313)">
<ellipse cx="20.9452" cy="21.1703" rx="7.34447" ry="7.28972" fill="url(#paint9_linear_284_2313)"/>
</g>
<g filter="url(#filter3_d_284_2313)">
<path d="M16.6201 19.9567C16.4856 19.5956 16.8894 19.2719 17.2127 19.4817L23.0295 23.2566C23.3636 23.4734 23.21 23.9921 22.8117 23.9921H18.4001C18.233 23.9921 18.0835 23.8883 18.0252 23.7317L16.6201 19.9567Z" fill="url(#paint10_linear_284_2313)"/>
<path d="M25.2691 19.9519C25.4049 19.5916 25.0032 19.2663 24.679 19.474L18.7776 23.2553C18.4412 23.4709 18.5939 23.9921 18.9934 23.9921H23.4692C23.6356 23.9921 23.7847 23.889 23.8434 23.7332L25.2691 19.9519Z" fill="url(#paint11_linear_284_2313)"/>
<path d="M20.1305 19.4764C20.4626 18.7978 21.4298 18.7978 21.762 19.4764L23.3571 22.7354C23.6525 23.3388 23.2132 24.0429 22.5414 24.0429H19.3511C18.6792 24.0429 18.24 23.3388 18.5353 22.7354L20.1305 19.4764Z" fill="url(#paint12_linear_284_2313)"/>
<mask id="mask0_284_2313" style="mask-type:alpha" maskUnits="userSpaceOnUse" x="18" y="18" width="6" height="7">
<path d="M20.5869 18.5438C20.7332 18.245 21.1592 18.245 21.3055 18.5438L23.7152 23.467C23.8453 23.7328 23.6518 24.0429 23.356 24.0429H18.5364C18.2406 24.0429 18.0471 23.7328 18.1772 23.467L20.5869 18.5438Z" fill="url(#paint13_linear_284_2313)"/>
</mask>
<g mask="url(#mask0_284_2313)">
<g filter="url(#filter4_f_284_2313)">
<ellipse cx="3.19541" cy="0.867189" rx="3.19541" ry="0.867189" transform="matrix(0.204188 0.978932 -0.979534 0.201279 22.9248 18.592)" fill="#ECA26C"/>
</g>
</g>
<ellipse cx="20.9463" cy="17.3538" rx="0.561616" ry="0.557429" fill="url(#paint14_linear_284_2313)"/>
<ellipse cx="16.5083" cy="18.9754" rx="0.459504" ry="0.456079" fill="url(#paint15_linear_284_2313)"/>
<ellipse cx="25.3608" cy="18.9754" rx="0.459504" ry="0.456079" fill="url(#paint16_linear_284_2313)"/>
<rect x="18.0995" y="24.4827" width="5.5858" height="0.756022" rx="0.378011" fill="url(#paint17_linear_284_2313)"/>
</g>
<path d="M17.028 14.8525L17.2098 15.4011L17.7625 15.5815L17.2098 15.7619L17.028 16.3105L16.8463 15.7619L16.2936 15.5815L16.8463 15.4011L17.028 14.8525Z" fill="white"/>
<path d="M14.8247 12.4226L15.2488 13.7026L16.5384 14.1235L15.2488 14.5445L14.8247 15.8245L14.4006 14.5445L13.111 14.1235L14.4006 13.7026L14.8247 12.4226Z" fill="white"/>
<defs>
<filter id="filter0_f_284_2313" x="17.3652" y="7.94429" width="6.69967" height="6.6722" filterUnits="userSpaceOnUse" color-interpolation-filters="sRGB">
<feFlood flood-opacity="0" result="BackgroundImageFix"/>
<feBlend mode="normal" in="SourceGraphic" in2="BackgroundImageFix" result="shape"/>
<feGaussianBlur stdDeviation="0.756857" result="effect1_foregroundBlur_284_2313"/>
</filter>
<filter id="filter1_i_284_2313" x="12.1318" y="11.8171" width="17.6267" height="18.1008" filterUnits="userSpaceOnUse" color-interpolation-filters="sRGB">
<feFlood flood-opacity="0" result="BackgroundImageFix"/>
<feBlend mode="normal" in="SourceGraphic" in2="BackgroundImageFix" result="shape"/>
<feColorMatrix in="SourceAlpha" type="matrix" values="0 0 0 0 0 0 0 0 0 0 0 0 0 0 0 0 0 0 127 0" result="hardAlpha"/>
<feOffset dy="-0.605485"/>
<feGaussianBlur stdDeviation="0.605485"/>
<feComposite in2="hardAlpha" operator="arithmetic" k2="-1" k3="1"/>
<feColorMatrix type="matrix" values="0 0 0 0 0 0 0 0 0 0.172667 0 0 0 0 0.616667 0 0 0 0.15 0"/>
<feBlend mode="normal" in2="shape" result="effect1_innerShadow_284_2313"/>
</filter>
<filter id="filter2_ii_284_2313" x="13.6007" y="13.2751" width="14.689" height="15.7903" filterUnits="userSpaceOnUse" color-interpolation-filters="sRGB">
<feFlood flood-opacity="0" result="BackgroundImageFix"/>
<feBlend mode="normal" in="SourceGraphic" in2="BackgroundImageFix" result="shape"/>
<feColorMatrix in="SourceAlpha" type="matrix" values="0 0 0 0 0 0 0 0 0 0 0 0 0 0 0 0 0 0 127 0" result="hardAlpha"/>
<feOffset dy="0.605485"/>
<feGaussianBlur stdDeviation="1.51371"/>
<feComposite in2="hardAlpha" operator="arithmetic" k2="-1" k3="1"/>
<feColorMatrix type="matrix" values="0 0 0 0 0.4875 0 0 0 0 0.1755 0 0 0 0 0 0 0 0 1 0"/>
<feBlend mode="normal" in2="shape" result="effect1_innerShadow_284_2313"/>
<feColorMatrix in="SourceAlpha" type="matrix" values="0 0 0 0 0 0 0 0 0 0 0 0 0 0 0 0 0 0 127 0" result="hardAlpha"/>
<feOffset dy="-0.605485"/>
<feGaussianBlur stdDeviation="1.51371"/>
<feComposite in2="hardAlpha" operator="arithmetic" k2="-1" k3="1"/>
<feColorMatrix type="matrix" values="0 0 0 0 1 0 0 0 0 0.716167 0 0 0 0 0.454167 0 0 0 1 0"/>
<feBlend mode="normal" in2="effect1_innerShadow_284_2313" result="effect2_innerShadow_284_2313"/>
</filter>
<filter id="filter3_d_284_2313" x="14.8379" y="16.1909" width="12.1934" height="10.8643" filterUnits="userSpaceOnUse" color-interpolation-filters="sRGB">
<feFlood flood-opacity="0" result="BackgroundImageFix"/>
<feColorMatrix in="SourceAlpha" type="matrix" values="0 0 0 0 0 0 0 0 0 0 0 0 0 0 0 0 0 0 127 0" result="hardAlpha"/>
<feOffset dy="0.605485"/>
<feGaussianBlur stdDeviation="0.605485"/>
<feComposite in2="hardAlpha" operator="out"/>
<feColorMatrix type="matrix" values="0 0 0 0 0.6 0 0 0 0 0.361709 0 0 0 0 0.19 0 0 0 1 0"/>
<feBlend mode="normal" in2="BackgroundImageFix" result="effect1_dropShadow_284_2313"/>
<feBlend mode="normal" in="SourceGraphic" in2="effect1_dropShadow_284_2313" result="shape"/>
</filter>
<filter id="filter4_f_284_2313" x="19.8402" y="16.9453" width="5.77525" height="9.89902" filterUnits="userSpaceOnUse" color-interpolation-filters="sRGB">
<feFlood flood-opacity="0" result="BackgroundImageFix"/>
<feBlend mode="normal" in="SourceGraphic" in2="BackgroundImageFix" result="shape"/>
<feGaussianBlur stdDeviation="0.908228" result="effect1_foregroundBlur_284_2313"/>
</filter>
<linearGradient id="paint0_linear_284_2313" x1="19.1922" y1="10.1142" x2="22.4531" y2="10.1142" gradientUnits="userSpaceOnUse">
<stop offset="0.488759" stop-color="#FFC786"/>
<stop offset="0.488859" stop-color="#D1E5EE"/>
<stop offset="0.488959" stop-color="#D18E5C"/>
</linearGradient>
<linearGradient id="paint1_linear_284_2313" x1="22.4534" y1="32.4693" x2="19.1925" y2="32.4693" gradientUnits="userSpaceOnUse">
<stop offset="0.488759" stop-color="#FFC786"/>
<stop offset="0.488859" stop-color="#D1E5EE"/>
<stop offset="0.488959" stop-color="#D18E5C"/>
</linearGradient>
<linearGradient id="paint2_linear_284_2313" x1="31.3909" y1="25.479" x2="29.7786" y2="28.2925" gradientUnits="userSpaceOnUse">
<stop offset="0.488759" stop-color="#FFC786"/>
<stop offset="0.488859" stop-color="#D1E5EE"/>
<stop offset="0.488959" stop-color="#D18E5C"/>
</linearGradient>
<linearGradient id="paint3_linear_284_2313" x1="10.2548" y1="17.1045" x2="11.867" y2="14.291" gradientUnits="userSpaceOnUse">
<stop offset="0.488759" stop-color="#FFC786"/>
<stop offset="0.488859" stop-color="#D1E5EE"/>
<stop offset="0.488959" stop-color="#D18E5C"/>
</linearGradient>
<linearGradient id="paint4_linear_284_2313" x1="29.7602" y1="14.3015" x2="31.3724" y2="17.1149" gradientUnits="userSpaceOnUse">
<stop offset="0.488759" stop-color="#FFC786"/>
<stop offset="0.488859" stop-color="#D1E5EE"/>
<stop offset="0.488959" stop-color="#D18E5C"/>
</linearGradient>
<linearGradient id="paint5_linear_284_2313" x1="11.8853" y1="28.282" x2="10.2731" y2="25.4686" gradientUnits="userSpaceOnUse">
<stop offset="0.488759" stop-color="#FFC786"/>
<stop offset="0.488859" stop-color="#D1E5EE"/>
<stop offset="0.488959" stop-color="#D18E5C"/>
</linearGradient>
<linearGradient id="paint6_linear_284_2313" x1="14.5109" y1="13.7623" x2="27.7832" y2="28.6772" gradientUnits="userSpaceOnUse">
<stop stop-color="#FFC887"/>
<stop offset="0.520833" stop-color="#FFE7CB"/>
<stop offset="1" stop-color="#B45612"/>
</linearGradient>
<linearGradient id="paint7_linear_284_2313" x1="20.9452" y1="11.2078" x2="20.9452" y2="31.133" gradientUnits="userSpaceOnUse">
<stop stop-color="white" stop-opacity="0.5"/>
<stop offset="1" stop-color="white" stop-opacity="0"/>
</linearGradient>
<linearGradient id="paint8_linear_284_2313" x1="15.3144" y1="14.488" x2="26.4762" y2="28.0561" gradientUnits="userSpaceOnUse">
<stop stop-color="#D28E5D"/>
<stop offset="1" stop-color="#FFC887"/>
</linearGradient>
<linearGradient id="paint9_linear_284_2313" x1="16.0849" y1="15.167" x2="22.0584" y2="28.4936" gradientUnits="userSpaceOnUse">
<stop stop-color="#FFCD92"/>
<stop offset="0.484375" stop-color="#D88335"/>
<stop offset="1" stop-color="#9C5A2A"/>
</linearGradient>
<linearGradient id="paint10_linear_284_2313" x1="16.6812" y1="20.2928" x2="19.6466" y2="22.4657" gradientUnits="userSpaceOnUse">
<stop stop-color="#FFDBB0"/>
<stop offset="1" stop-color="#D4905F"/>
</linearGradient>
<linearGradient id="paint11_linear_284_2313" x1="24.9012" y1="19.6652" x2="23.1152" y2="22.9042" gradientUnits="userSpaceOnUse">
<stop stop-color="#FFDBAF"/>
<stop offset="1" stop-color="#D28E5D"/>
</linearGradient>
<linearGradient id="paint12_linear_284_2313" x1="19.3854" y1="21.0184" x2="22.5516" y2="21.0184" gradientUnits="userSpaceOnUse">
<stop offset="0.49728" stop-color="#FFC886"/>
<stop offset="0.49738" stop-color="#D28E5D"/>
</linearGradient>
<linearGradient id="paint13_linear_284_2313" x1="19.3854" y1="21.0184" x2="22.5516" y2="21.0184" gradientUnits="userSpaceOnUse">
<stop offset="0.416667" stop-color="#B1B0D8"/>
<stop offset="0.49738" stop-color="#FFCC1D"/>
</linearGradient>
<linearGradient id="paint14_linear_284_2313" x1="20.9463" y1="16.7964" x2="20.9463" y2="17.9112" gradientUnits="userSpaceOnUse">
<stop stop-color="#FFE5C7"/>
<stop offset="1" stop-color="#D28E5D"/>
</linearGradient>
<linearGradient id="paint15_linear_284_2313" x1="16.5083" y1="18.5193" x2="16.5083" y2="19.4314" gradientUnits="userSpaceOnUse">
<stop stop-color="#FFE5C7"/>
<stop offset="1" stop-color="#D28E5D"/>
</linearGradient>
<linearGradient id="paint16_linear_284_2313" x1="25.3607" y1="18.5193" x2="25.3607" y2="19.4314" gradientUnits="userSpaceOnUse">
<stop stop-color="#FFE5C7"/>
<stop offset="1" stop-color="#D28E5D"/>
</linearGradient>
<linearGradient id="paint17_linear_284_2313" x1="18.163" y1="24.8607" x2="23.7488" y2="24.8607" gradientUnits="userSpaceOnUse">
<stop stop-color="#FFC886"/>
<stop offset="1" stop-color="#D28E5D"/>
</linearGradient>
</defs>
</svg>
