<svg width="43" height="43" viewBox="0 0 43 43" fill="none" xmlns="http://www.w3.org/2000/svg">
<g clip-path="url(#clip0_284_2195)">
<path d="M21.3355 8.29175L25.3691 12.9771H17.3019L21.3355 8.29175Z" fill="url(#paint0_linear_284_2195)"/>
<path d="M21.3354 35.0295L17.3018 30.3442L25.369 30.3442L21.3354 35.0295Z" fill="url(#paint1_linear_284_2195)"/>
<g filter="url(#filter0_f_284_2195)">
<path d="M21.2244 9.49121L21.6917 10.9015L23.1126 11.3654L21.6917 11.8292L21.2244 13.2395L20.7571 11.8292L19.3362 11.3654L20.7571 10.9015L21.2244 9.49121Z" fill="white"/>
<path d="M21.2244 9.53358L21.6791 10.9057L21.6704 10.9086L21.6876 10.9142L23.0697 11.3654L21.6876 11.8165L21.6847 11.8078L21.6791 11.825L21.2244 13.1971L20.7697 11.825L20.7784 11.8221L20.7612 11.8165L19.3791 11.3654L20.7612 10.9142L20.7641 10.9229L20.7697 10.9057L21.2244 9.53358Z" stroke="#3E74FF" stroke-width="0.0266544"/>
</g>
<path d="M33.0003 28.3451L26.8954 29.4696L30.929 22.5352L33.0003 28.3451Z" fill="url(#paint2_linear_284_2195)"/>
<path d="M9.6706 14.9762L15.7755 13.8517L11.7419 20.786L9.6706 14.9762Z" fill="url(#paint3_linear_284_2195)"/>
<path d="M32.9999 14.9762L30.9286 20.786L26.895 13.8517L32.9999 14.9762Z" fill="url(#paint4_linear_284_2195)"/>
<path d="M9.67096 28.3451L11.7423 22.5353L15.7759 29.4696L9.67096 28.3451Z" fill="url(#paint5_linear_284_2195)"/>
<path d="M31.7163 21.5356C31.7163 27.1566 27.1252 31.7142 21.4607 31.7142C15.7962 31.7142 11.2051 27.1566 11.2051 21.5356C11.2051 15.9145 15.7962 11.3569 21.4607 11.3569C27.1252 11.3569 31.7163 15.9145 31.7163 21.5356Z" fill="url(#paint6_linear_284_2195)" stroke="url(#paint7_linear_284_2195)" stroke-width="0.133272"/>
<g filter="url(#filter1_i_284_2195)">
<ellipse cx="21.461" cy="21.5357" rx="9.06344" ry="8.99587" fill="url(#paint8_linear_284_2195)"/>
</g>
<g filter="url(#filter2_ii_284_2195)">
<ellipse cx="21.4611" cy="21.5356" rx="7.55287" ry="7.49656" fill="url(#paint9_linear_284_2195)"/>
</g>
<g filter="url(#filter3_d_284_2195)">
<path d="M19.6967 18.0687C20.4169 16.791 22.2567 16.791 22.9768 18.0687C23.2455 18.5453 23.7082 18.8815 24.2445 18.9897C25.6822 19.2798 26.2507 21.0296 25.2581 22.1093C24.8878 22.5121 24.7111 23.056 24.7739 23.5995C24.9423 25.0564 23.4538 26.1379 22.1203 25.5275C21.6228 25.2998 21.0508 25.2998 20.5533 25.5275C19.2197 26.1379 17.7313 25.0564 17.8997 23.5995C17.9625 23.056 17.7857 22.5121 17.4154 22.1093C16.4229 21.0296 16.9914 19.2798 18.429 18.9897C18.9654 18.8815 19.4281 18.5453 19.6967 18.0687Z" fill="url(#paint10_angular_284_2195)"/>
</g>
<g filter="url(#filter4_f_284_2195)">
<g filter="url(#filter5_f_284_2195)">
<path d="M27.8141 27.0245C27.7959 27.0145 27.7809 26.9996 27.7709 26.9814L27.1423 25.832L26.5138 26.9814C26.5038 26.9996 26.4888 27.0145 26.4706 27.0245L25.3213 27.6531L26.4706 28.2817C26.4888 28.2916 26.5038 28.3066 26.5137 28.3248L27.1423 29.4741L27.7709 28.3248C27.7809 28.3066 27.7958 28.2916 27.814 28.2817L28.9634 27.6531L27.8141 27.0245Z" fill="white"/>
</g>
<path d="M27.8141 27.0245C27.7959 27.0145 27.7809 26.9996 27.7709 26.9814L27.1423 25.832L26.5138 26.9814C26.5038 26.9996 26.4888 27.0145 26.4706 27.0245L25.3213 27.6531L26.4706 28.2817C26.4888 28.2916 26.5038 28.3066 26.5137 28.3248L27.1423 29.4741L27.7709 28.3248C27.7809 28.3066 27.7958 28.2916 27.814 28.2817L28.9634 27.6531L27.8141 27.0245Z" fill="white"/>
</g>
<g filter="url(#filter6_f_284_2195)">
<path d="M24.3285 15.7875C24.3215 15.7837 24.3158 15.778 24.312 15.771L24.0723 15.3328L23.8326 15.771C23.8288 15.778 23.8231 15.7837 23.8162 15.7875L23.3779 16.0272L23.8162 16.2669C23.8231 16.2707 23.8288 16.2764 23.8326 16.2833L24.0723 16.7216L24.312 16.2833C24.3158 16.2764 24.3215 16.2707 24.3285 16.2669L24.7667 16.0272L24.3285 15.7875Z" fill="#0080F5"/>
</g>
<path d="M24.3285 15.7875C24.3215 15.7837 24.3158 15.778 24.312 15.771L24.0723 15.3328L23.8326 15.771C23.8288 15.778 23.8231 15.7837 23.8162 15.7875L23.3779 16.0272L23.8162 16.2669C23.8231 16.2707 23.8288 16.2764 23.8326 16.2833L24.0723 16.7216L24.312 16.2833C24.3158 16.2764 24.3215 16.2707 24.3285 16.2669L24.7667 16.0272L24.3285 15.7875Z" fill="white"/>
<g filter="url(#filter7_f_284_2195)">
<path d="M16.1058 20.3983C16.0989 20.3945 16.0932 20.3888 16.0894 20.3819L15.8497 19.9436L15.61 20.3819C15.6062 20.3888 15.6005 20.3945 15.5935 20.3983L15.1553 20.638L15.5935 20.8777C15.6005 20.8815 15.6062 20.8872 15.61 20.8941L15.8497 21.3324L16.0894 20.8941C16.0932 20.8872 16.0989 20.8815 16.1058 20.8777L16.5441 20.638L16.1058 20.3983Z" fill="#005773"/>
</g>
<path d="M16.1058 20.3983C16.0989 20.3945 16.0932 20.3888 16.0894 20.3819L15.8497 19.9436L15.61 20.3819C15.6062 20.3888 15.6005 20.3945 15.5935 20.3983L15.1553 20.638L15.5935 20.8777C15.6005 20.8815 15.6062 20.8872 15.61 20.8941L15.8497 21.3324L16.0894 20.8941C16.0932 20.8872 16.0989 20.8815 16.1058 20.8777L16.5441 20.638L16.1058 20.3983Z" fill="white"/>
</g>
<defs>
<filter id="filter0_f_284_2195" x="18.6698" y="8.82485" width="5.10921" height="5.08101" filterUnits="userSpaceOnUse" color-interpolation-filters="sRGB">
<feFlood flood-opacity="0" result="BackgroundImageFix"/>
<feBlend mode="normal" in="SourceGraphic" in2="BackgroundImageFix" result="shape"/>
<feGaussianBlur stdDeviation="0.33318" result="effect1_foregroundBlur_284_2195"/>
</filter>
<filter id="filter1_i_284_2195" x="12.3976" y="12.2733" width="18.1268" height="18.2582" filterUnits="userSpaceOnUse" color-interpolation-filters="sRGB">
<feFlood flood-opacity="0" result="BackgroundImageFix"/>
<feBlend mode="normal" in="SourceGraphic" in2="BackgroundImageFix" result="shape"/>
<feColorMatrix in="SourceAlpha" type="matrix" values="0 0 0 0 0 0 0 0 0 0 0 0 0 0 0 0 0 0 127 0" result="hardAlpha"/>
<feOffset dy="-0.266544"/>
<feGaussianBlur stdDeviation="0.266544"/>
<feComposite in2="hardAlpha" operator="arithmetic" k2="-1" k3="1"/>
<feColorMatrix type="matrix" values="0 0 0 0 0 0 0 0 0 0.172667 0 0 0 0 0.616667 0 0 0 0.15 0"/>
<feBlend mode="normal" in2="shape" result="effect1_innerShadow_284_2195"/>
</filter>
<filter id="filter2_ii_284_2195" x="13.9082" y="9.03906" width="15.1057" height="24.9932" filterUnits="userSpaceOnUse" color-interpolation-filters="sRGB">
<feFlood flood-opacity="0" result="BackgroundImageFix"/>
<feBlend mode="normal" in="SourceGraphic" in2="BackgroundImageFix" result="shape"/>
<feColorMatrix in="SourceAlpha" type="matrix" values="0 0 0 0 0 0 0 0 0 0 0 0 0 0 0 0 0 0 127 0" result="hardAlpha"/>
<feOffset dy="5"/>
<feGaussianBlur stdDeviation="10"/>
<feComposite in2="hardAlpha" operator="arithmetic" k2="-1" k3="1"/>
<feColorMatrix type="matrix" values="0 0 0 0 0.579167 0 0 0 0 0.579167 0 0 0 0 0.579167 0 0 0 1 0"/>
<feBlend mode="normal" in2="shape" result="effect1_innerShadow_284_2195"/>
<feColorMatrix in="SourceAlpha" type="matrix" values="0 0 0 0 0 0 0 0 0 0 0 0 0 0 0 0 0 0 127 0" result="hardAlpha"/>
<feOffset dy="-5"/>
<feGaussianBlur stdDeviation="10"/>
<feComposite in2="hardAlpha" operator="arithmetic" k2="-1" k3="1"/>
<feColorMatrix type="matrix" values="0 0 0 0 0.366667 0 0 0 0 0.366667 0 0 0 0 0.366667 0 0 0 1 0"/>
<feBlend mode="normal" in2="effect1_innerShadow_284_2195" result="effect2_innerShadow_284_2195"/>
</filter>
<filter id="filter3_d_284_2195" x="-3.08288" y="7.11035" width="48.8394" height="48.5911" filterUnits="userSpaceOnUse" color-interpolation-filters="sRGB">
<feFlood flood-opacity="0" result="BackgroundImageFix"/>
<feColorMatrix in="SourceAlpha" type="matrix" values="0 0 0 0 0 0 0 0 0 0 0 0 0 0 0 0 0 0 127 0" result="hardAlpha"/>
<feOffset dy="10"/>
<feGaussianBlur stdDeviation="10"/>
<feComposite in2="hardAlpha" operator="out"/>
<feColorMatrix type="matrix" values="0 0 0 0 0.225 0 0 0 0 0.225 0 0 0 0 0.225 0 0 0 0.55 0"/>
<feBlend mode="normal" in2="BackgroundImageFix" result="effect1_dropShadow_284_2195"/>
<feBlend mode="normal" in="SourceGraphic" in2="effect1_dropShadow_284_2195" result="shape"/>
</filter>
<filter id="filter4_f_284_2195" x="25.2102" y="25.7209" width="3.8643" height="3.8643" filterUnits="userSpaceOnUse" color-interpolation-filters="sRGB">
<feFlood flood-opacity="0" result="BackgroundImageFix"/>
<feBlend mode="normal" in="SourceGraphic" in2="BackgroundImageFix" result="shape"/>
<feGaussianBlur stdDeviation="0.0555515" result="effect1_foregroundBlur_284_2195"/>
</filter>
<filter id="filter5_f_284_2195" x="25.1546" y="25.6654" width="3.9754" height="3.9754" filterUnits="userSpaceOnUse" color-interpolation-filters="sRGB">
<feFlood flood-opacity="0" result="BackgroundImageFix"/>
<feBlend mode="normal" in="SourceGraphic" in2="BackgroundImageFix" result="shape"/>
<feGaussianBlur stdDeviation="0.0833273" result="effect1_foregroundBlur_284_2195"/>
</filter>
<filter id="filter6_f_284_2195" x="23.2113" y="15.1661" width="1.7221" height="1.72198" filterUnits="userSpaceOnUse" color-interpolation-filters="sRGB">
<feFlood flood-opacity="0" result="BackgroundImageFix"/>
<feBlend mode="normal" in="SourceGraphic" in2="BackgroundImageFix" result="shape"/>
<feGaussianBlur stdDeviation="0.0833273" result="effect1_foregroundBlur_284_2195"/>
</filter>
<filter id="filter7_f_284_2195" x="14.9886" y="19.7769" width="1.7221" height="1.72198" filterUnits="userSpaceOnUse" color-interpolation-filters="sRGB">
<feFlood flood-opacity="0" result="BackgroundImageFix"/>
<feBlend mode="normal" in="SourceGraphic" in2="BackgroundImageFix" result="shape"/>
<feGaussianBlur stdDeviation="0.0833273" result="effect1_foregroundBlur_284_2195"/>
</filter>
<linearGradient id="paint0_linear_284_2195" x1="19.6587" y1="10.1659" x2="23.0122" y2="10.1659" gradientUnits="userSpaceOnUse">
<stop offset="0.488759" stop-color="#BCBCBC"/>
<stop offset="0.488859" stop-color="#D1E5EE"/>
<stop offset="0.488959" stop-color="#919191"/>
</linearGradient>
<linearGradient id="paint1_linear_284_2195" x1="23.0122" y1="33.1554" x2="19.6587" y2="33.1554" gradientUnits="userSpaceOnUse">
<stop offset="0.488759" stop-color="#BCBCBC"/>
<stop offset="0.488859" stop-color="#D1E5EE"/>
<stop offset="0.488959" stop-color="#919191"/>
</linearGradient>
<linearGradient id="paint2_linear_284_2195" x1="32.2034" y1="25.9667" x2="30.5454" y2="28.86" gradientUnits="userSpaceOnUse">
<stop offset="0.488759" stop-color="#BCBCBC"/>
<stop offset="0.488859" stop-color="#D1E5EE"/>
<stop offset="0.488959" stop-color="#919191"/>
</linearGradient>
<linearGradient id="paint3_linear_284_2195" x1="10.4675" y1="17.3545" x2="12.1255" y2="14.4613" gradientUnits="userSpaceOnUse">
<stop offset="0.488759" stop-color="#BCBCBC"/>
<stop offset="0.488859" stop-color="#D1E5EE"/>
<stop offset="0.488959" stop-color="#919191"/>
</linearGradient>
<linearGradient id="paint4_linear_284_2195" x1="30.5263" y1="14.472" x2="32.1843" y2="17.3653" gradientUnits="userSpaceOnUse">
<stop offset="0.488759" stop-color="#BCBCBC"/>
<stop offset="0.488859" stop-color="#D1E5EE"/>
<stop offset="0.488959" stop-color="#919191"/>
</linearGradient>
<linearGradient id="paint5_linear_284_2195" x1="12.1446" y1="28.8493" x2="10.4866" y2="25.956" gradientUnits="userSpaceOnUse">
<stop offset="0.488759" stop-color="#BCBCBC"/>
<stop offset="0.488859" stop-color="#D1E5EE"/>
<stop offset="0.488959" stop-color="#919191"/>
</linearGradient>
<linearGradient id="paint6_linear_284_2195" x1="21.4607" y1="11.2903" x2="21.4607" y2="31.7809" gradientUnits="userSpaceOnUse">
<stop stop-color="#CFCFCF"/>
<stop offset="0.484375" stop-color="#EEEEEE"/>
<stop offset="1" stop-color="#919191"/>
</linearGradient>
<linearGradient id="paint7_linear_284_2195" x1="21.4607" y1="11.2903" x2="21.4607" y2="31.7809" gradientUnits="userSpaceOnUse">
<stop stop-color="white"/>
<stop offset="0.197072" stop-color="#C6C6C6" stop-opacity="0"/>
</linearGradient>
<linearGradient id="paint8_linear_284_2195" x1="21.461" y1="12.5398" x2="21.461" y2="30.5315" gradientUnits="userSpaceOnUse">
<stop stop-color="#7E7E7E"/>
<stop offset="1" stop-color="#D8D8D8"/>
</linearGradient>
<linearGradient id="paint9_linear_284_2195" x1="21.4611" y1="14.0391" x2="21.4611" y2="29.0322" gradientUnits="userSpaceOnUse">
<stop stop-color="#C7C7C7"/>
<stop offset="1" stop-color="#747474"/>
</linearGradient>
<radialGradient id="paint10_angular_284_2195" cx="0" cy="0" r="1" gradientUnits="userSpaceOnUse" gradientTransform="translate(21.3624 21.6589) rotate(90.2256) scale(6.50005)">
<stop offset="0.107585" stop-color="#BFBFBF"/>
<stop offset="0.291667" stop-color="#DFDFDF"/>
<stop offset="0.494792" stop-color="#9E9E9E"/>
<stop offset="0.692708" stop-color="#D8D8D8"/>
<stop offset="0.885417" stop-color="#B3B3B3"/>
<stop offset="1" stop-color="#D7D7D7"/>
</radialGradient>
<clipPath id="clip0_284_2195">
<rect x="0.155273" y="0.291748" width="42" height="42" rx="21" fill="white"/>
</clipPath>
</defs>
</svg>
