<svg xmlns="http://www.w3.org/2000/svg" width="19" height="19" viewBox="0 0 19 19" fill="none">
<path d="M9.15451 13.2439L9 12.7684L9.15451 13.2439C9.29937 13.1969 9.41031 13.1171 9.49774 13.0429C9.57734 12.9753 9.66423 12.8884 9.75344 12.7992L9.76473 12.7879L15.199 7.35355L14.4919 6.64645L9.05762 12.0808C8.95278 12.1856 8.89514 12.2427 8.85056 12.2805C8.84878 12.282 8.84709 12.2835 8.84549 12.2848C8.84388 12.2835 8.8422 12.282 8.84042 12.2805C8.79584 12.2427 8.7382 12.1856 8.63336 12.0808L6.19904 9.64645L5.49194 10.3536L7.92625 12.7879L7.93755 12.7992C8.02676 12.8884 8.11364 12.9753 8.19324 13.0429C8.28067 13.1171 8.39161 13.1969 8.53647 13.2439L8.69098 12.7684L8.53647 13.2439C8.73731 13.3092 8.95366 13.3092 9.15451 13.2439ZM18.3301 9.41504C18.3301 14.1095 14.5245 17.915 9.83008 17.915C5.13566 17.915 1.33008 14.1095 1.33008 9.41504C1.33008 4.72062 5.13566 0.915039 9.83008 0.915039C14.5245 0.915039 18.3301 4.72062 18.3301 9.41504Z" stroke="#3561FF"/>
</svg>