<svg width="44" height="40" viewBox="0 0 44 40" fill="none" xmlns="http://www.w3.org/2000/svg">
<g opacity="0.8">
<path opacity="0.8" d="M33.55 32.5V23.125M28.6 27.8125H38.5M38.5 15.3125H5.5M38.5 18.4375V12.5C38.5 10.7498 38.5 9.87476 38.1403 9.20628C37.8239 8.61828 37.3191 8.14021 36.6982 7.84061C35.9923 7.5 35.0682 7.5 33.22 7.5H10.78C8.93183 7.5 8.00774 7.5 7.30183 7.8406C6.6809 8.14021 6.17606 8.61827 5.85968 9.20628C5.5 9.87475 5.5 10.7498 5.5 12.5V24.375C5.5 26.1252 5.5 27.0002 5.85968 27.6687C6.17606 28.2567 6.6809 28.7348 7.30183 29.0344C8.00774 29.375 8.93183 29.375 10.78 29.375H22" stroke="white" stroke-width="2" stroke-linecap="round" stroke-linejoin="round"/>
</g>
</svg>
